<svg width="26" height="26" viewBox="0 0 26 26" fill="none" xmlns="http://www.w3.org/2000/svg">
<path d="M12.9821 10.9607C11.0692 10.9607 9.25325 12.3368 9.48165 14.236C9.4994 14.3835 9.52058 14.5383 9.54518 14.703C9.61841 15.193 10.0457 15.5491 10.5412 15.5491H11.1075L11.5207 18.1144C11.6375 18.8395 12.2634 19.3727 12.998 19.3727C13.7325 19.3727 14.3584 18.8395 14.4752 18.1144L14.8884 15.5491H15.462C15.9543 15.5491 16.3803 15.1978 16.4554 14.7114C16.4794 14.5559 16.5001 14.4092 16.5173 14.2684C16.7516 12.3556 14.9091 10.9607 12.9821 10.9607Z" stroke="#66CCDA" stroke-width="1.52946" stroke-linejoin="round"/>
<path d="M13 10.7059C14.1262 10.7059 15.0392 9.79286 15.0392 8.66659C15.0392 7.54033 14.1262 6.62732 13 6.62732C11.8737 6.62732 10.9607 7.54033 10.9607 8.66659C10.9607 9.79286 11.8737 10.7059 13 10.7059Z" stroke="#66CCDA" stroke-width="1.52946" stroke-linecap="round" stroke-linejoin="round"/>
</svg>
