<svg width="16" height="16" viewBox="0 0 16 16" fill="none" xmlns="http://www.w3.org/2000/svg">
<path d="M7.98418 6.17242C6.26996 6.17242 4.64262 7.4056 4.8473 9.10754C4.86321 9.23972 4.88219 9.37844 4.90423 9.52603C4.96986 9.96514 5.35277 10.2843 5.7968 10.2843H6.30428L6.67457 12.5831C6.77924 13.2329 7.34013 13.7107 7.99843 13.7107C8.65664 13.7107 9.21753 13.2329 9.3222 12.5831L9.69248 10.2843H10.2065C10.6477 10.2843 11.0294 9.96944 11.0967 9.53356C11.1182 9.39421 11.1368 9.26275 11.1522 9.13657C11.3622 7.42244 9.71103 6.17242 7.98418 6.17242Z" stroke="#66CCDA" stroke-width="1.3706" stroke-linejoin="round"/>
<path d="M8.00034 5.94415C9.00957 5.94415 9.82774 5.12594 9.82774 4.11665C9.82774 3.10737 9.00957 2.28918 8.00034 2.28918C6.99102 2.28918 6.17285 3.10737 6.17285 4.11665C6.17285 5.12594 6.99102 5.94415 8.00034 5.94415Z" stroke="#66CCDA" stroke-width="1.3706" stroke-linecap="round" stroke-linejoin="round"/>
</svg>
