<svg width="344" height="343" viewBox="0 0 344 343" fill="none" xmlns="http://www.w3.org/2000/svg">
<path d="M74.8025 247.19C67.7354 217.771 64.4743 184.202 63.2531 162.689C62.7025 152.989 70.7962 145.114 80.8515 145.114H262.919C272.973 145.114 281.068 152.989 280.516 162.689C279.295 184.202 276.035 217.771 268.968 247.19C265.692 260.821 255.305 271.203 240.968 273.212C226.196 275.281 203.766 277.038 171.886 277.038C140.004 277.038 117.573 275.281 102.801 273.212C88.4652 271.203 78.0774 260.821 74.8025 247.19Z" stroke="white" stroke-width="27.3099" stroke-linecap="round" stroke-linejoin="round"/>
<path d="M108.156 145.116V127.526C108.156 93.5249 136.687 65.9617 171.88 65.9617C207.073 65.9617 235.604 93.5249 235.604 127.526V145.116" stroke="white" stroke-width="27.3099" stroke-linecap="round" stroke-linejoin="round"/>
<path d="M135.475 197.883V224.269M208.301 197.883V224.269" stroke="white" stroke-width="27.3099" stroke-linecap="round" stroke-linejoin="round"/>
</svg>
