<svg width="26" height="26" viewBox="0 0 26 26" fill="none" xmlns="http://www.w3.org/2000/svg">
<rect width="26" height="26" rx="13" fill="#FC9042"/>
<path d="M7.73508 17.3069C7.8204 18.3022 8.59005 19.1193 9.57797 19.2671C10.4846 19.4028 11.4185 19.5277 12.3725 19.5277C13.3264 19.5277 14.2603 19.4028 15.167 19.2671C16.1549 19.1193 16.9245 18.3022 17.0099 17.3069C17.1249 15.9651 17.2426 14.5749 17.2426 13.1505C17.2426 11.4205 17.2618 9.74096 17.1892 8.13724C17.1666 7.63829 16.7814 7.23368 16.2842 7.18593C13.7032 6.93802 11.0418 6.93802 8.46073 7.18593C7.96356 7.23368 7.57833 7.63829 7.55573 8.13724C7.48308 9.74096 7.5023 11.4205 7.5023 13.1505C7.5023 14.5749 7.62005 15.9651 7.73508 17.3069Z" fill="white" stroke="white" stroke-width="1.55893" stroke-linejoin="round"/>
<path d="M9.57797 19.2672C8.59005 19.1193 7.8204 18.3022 7.73508 17.3069C7.62005 15.9651 7.5023 14.5749 7.5023 13.1505C7.5023 12.8496 7.50172 12.5501 7.50114 12.2524C7.50029 11.8134 7.49944 11.378 7.50048 10.9466C10.7221 10.7504 14.0228 10.7504 17.2445 10.9466C17.2455 11.378 17.2446 11.8134 17.2438 12.2524C17.2432 12.5501 17.2426 12.8496 17.2426 13.1505C17.2426 14.5749 17.1249 15.9651 17.0098 17.3069C16.9245 18.3022 16.1549 19.1193 15.167 19.2672C14.2603 19.4028 13.3264 19.5277 12.3725 19.5277C11.4185 19.5277 10.4846 19.4028 9.57797 19.2672Z" fill="#FC9042" stroke="white" stroke-width="1.55893" stroke-linejoin="round"/>
<path d="M17.2368 10.1666C17.8547 10.1982 18.4599 10.2553 19.0493 10.3074C19.5469 10.3513 19.953 10.7357 20.0251 11.2299C20.1139 11.8384 20.2021 12.4679 20.2021 13.1125C20.2021 13.7571 20.1139 14.3866 20.0251 14.9951C19.953 15.4893 19.5468 15.8736 19.0493 15.9176C18.4186 15.9733 17.7697 16.0348 17.1067 16.0646" stroke="white" stroke-width="1.55893" stroke-linejoin="round"/>
<path d="M10.7981 16.0795L10.7981 12.8136" stroke="white" stroke-width="1.55893" stroke-linecap="round" stroke-linejoin="round"/>
<path d="M13.8508 16.0795L13.8508 12.8136" stroke="white" stroke-width="1.55893" stroke-linecap="round" stroke-linejoin="round"/>
</svg>
