<svg width="26" height="26" viewBox="0 0 26 26" fill="none" xmlns="http://www.w3.org/2000/svg">
<rect width="26" height="26" rx="13" fill="#FC9042"/>
<path d="M6.88401 17.2336C6.96933 18.2288 7.73898 19.0459 8.7269 19.1938C9.63354 19.3294 10.5675 19.4543 11.5214 19.4543C12.4753 19.4543 13.4092 19.3294 14.3159 19.1938C15.3038 19.0459 16.0735 18.2288 16.1588 17.2336C16.2738 15.8917 16.3916 14.5015 16.3916 13.0771C16.3916 11.3472 16.4108 9.6676 16.3381 8.06388C16.3155 7.56493 15.9303 7.16032 15.4331 7.11257C12.8521 6.86466 10.1907 6.86466 7.60966 7.11257C7.11248 7.16032 6.72725 7.56493 6.70465 8.06388C6.63201 9.6676 6.65123 11.3472 6.65123 13.0771C6.65123 14.5015 6.76897 15.8917 6.88401 17.2336Z" fill="white" stroke="white" stroke-width="1.55893" stroke-linejoin="round"/>
<path d="M8.7269 19.1938C7.73898 19.0459 6.96933 18.2289 6.88401 17.2336C6.76897 15.8917 6.65123 14.5015 6.65123 13.0772C6.65123 12.7762 6.65065 12.4768 6.65007 12.179C6.64921 11.74 6.64837 11.3046 6.6494 10.8733C9.87101 10.677 13.1718 10.677 16.3934 10.8733C16.3944 11.3046 16.3936 11.74 16.3927 12.179C16.3921 12.4768 16.3916 12.7762 16.3916 13.0772C16.3916 14.5015 16.2738 15.8917 16.1588 17.2336C16.0735 18.2289 15.3038 19.0459 14.3159 19.1938C13.4092 19.3295 12.4753 19.4544 11.5214 19.4544C10.5675 19.4544 9.63354 19.3295 8.7269 19.1938Z" fill="#FC9042" stroke="white" stroke-width="1.55893" stroke-linejoin="round"/>
<path d="M16.3857 10.0933C17.0036 10.1249 17.6089 10.182 18.1983 10.234C18.6958 10.278 19.1019 10.6623 19.174 11.1565C19.2628 11.765 19.351 12.3946 19.351 13.0391C19.351 13.6837 19.2628 14.3133 19.174 14.9217C19.1019 15.4159 18.6958 15.8003 18.1983 15.8442C17.5675 15.9 16.9186 15.9614 16.2556 15.9913" stroke="white" stroke-width="1.55893" stroke-linejoin="round"/>
<path d="M9.94702 16.0062L9.94702 12.7402" stroke="white" stroke-width="1.55893" stroke-linecap="round" stroke-linejoin="round"/>
<path d="M12.9998 16.0062L12.9998 12.7402" stroke="white" stroke-width="1.55893" stroke-linecap="round" stroke-linejoin="round"/>
</svg>
