<?xml version="1.0" encoding="UTF-8"?>
<svg id="Livello_1" data-name="Livello 1" xmlns="http://www.w3.org/2000/svg" viewBox="0 0 15.45 13.69">
  <defs>
    <style>
      .cls-1 {
        fill: #fff;
        stroke-width: 0px;
      }
    </style>
  </defs>
  <path class="cls-1" d="M7.73,3.84c-.46,0-.83-.37-.83-.83V.83c0-.46.37-.83.83-.83s.83.37.83.83v2.17c0,.46-.37.83-.83.83Z"/>
  <path class="cls-1" d="M14.46,13.69H.99c-.46,0-.83-.37-.83-.83s.37-.83.83-.83h13.48c.46,0,.83.37.83.83s-.37.83-.83.83Z"/>
  <path class="cls-1" d="M13.56,10.75H1.89c-.55,0-1.07-.23-1.43-.63-.35-.39-.51-.88-.46-1.4C.45,4.54,3.26,2.14,7.73,2.14s7.28,2.4,7.71,6.58c.05.52-.11,1.01-.46,1.4-.36.4-.88.63-1.43.63ZM7.73,3.81c-3.62,0-5.71,1.76-6.06,5.09h0s0,.07.04.11c.04.05.11.08.19.08h11.66c.07,0,.14-.03.19-.08.04-.04.04-.08.04-.11-.35-3.33-2.44-5.09-6.06-5.09ZM.84,8.81h0,0Z"/>
</svg>