<svg width="344" height="343" viewBox="0 0 344 343" fill="none" xmlns="http://www.w3.org/2000/svg">
<path d="M171.899 120.186C164.044 120.186 157.726 113.867 157.726 106.012V68.7859C157.726 60.9308 164.044 54.6125 171.899 54.6125C179.754 54.6125 186.072 60.9308 186.072 68.7859V105.842C186.072 113.697 179.754 120.015 171.899 120.015V120.186Z" fill="white"/>
<path d="M286.819 288.387H56.8013C48.9462 288.387 42.6279 282.069 42.6279 274.214C42.6279 266.359 48.9462 260.041 56.8013 260.041H286.99C294.845 260.041 301.163 266.359 301.163 274.214C301.163 282.069 294.845 288.387 286.99 288.387H286.819Z" fill="white"/>
<path d="M271.456 238.183H72.1758C62.7839 238.183 53.9042 234.255 47.7567 227.425C41.78 220.765 39.0478 212.397 39.9016 203.518C47.5859 132.139 95.5704 91.1555 171.902 91.1555C248.233 91.1555 296.217 132.139 303.56 203.518C304.414 212.397 301.682 220.765 295.705 227.425C289.557 234.255 280.678 238.183 271.286 238.183H271.456ZM171.902 119.673C110.085 119.673 74.3957 149.727 68.419 206.591C68.419 206.591 68.419 207.787 69.1021 208.47C69.7851 209.324 70.9805 209.836 72.3466 209.836H271.456C272.652 209.836 273.847 209.324 274.701 208.47C275.384 207.787 275.384 207.104 275.384 206.591C269.407 149.727 233.718 119.673 171.902 119.673Z" fill="white"/>
</svg>
