<svg width="13" height="14" viewBox="0 0 13 14" fill="none" xmlns="http://www.w3.org/2000/svg">
<path d="M2.54278 10.2942C1.71307 10.217 1.01573 9.61013 0.900833 8.78479C0.76936 7.84037 0.696289 6.86943 0.696289 5.86999C0.696289 4.83524 0.769388 3.81708 0.910146 2.84228C1.02147 2.07131 1.65077 1.48938 2.42547 1.40801C3.73422 1.27055 5.10156 1.19644 6.49986 1.19644C7.89382 1.19644 9.237 1.27501 10.5469 1.41046C11.3348 1.49192 11.9748 2.08594 12.0866 2.87011C12.2246 3.83737 12.3034 4.84419 12.3034 5.86999C12.3034 6.88766 12.2172 7.87705 12.0816 8.83766C11.9688 9.63679 11.3186 10.2467 10.5157 10.3283C9.21848 10.46 7.8811 10.5435 6.49986 10.5435C6.4668 10.5435 6.43375 10.5435 6.40073 10.5433C5.42677 11.6637 4.68004 12.2174 3.37486 12.8036V10.3713C3.16324 10.3522 2.95284 10.3325 2.74372 10.313C2.67661 10.3067 2.60963 10.3005 2.54278 10.2942Z" fill="white" stroke="#4F3421" stroke-width="1.39286" stroke-linecap="round" stroke-linejoin="round"/>
<path d="M6.49735 6.45081C6.49735 6.11554 6.77003 5.90989 7.2511 5.58844C7.69733 5.29029 7.9327 4.90352 7.828 4.37716C7.7233 3.85081 7.28839 3.41589 6.76203 3.31119C5.9358 3.14685 5.14062 3.79939 5.14062 4.64182" stroke="#4F3421" stroke-width="1.39286" stroke-linecap="round" stroke-linejoin="round"/>
<path d="M6.49644 8.38153C6.43234 8.38153 6.38037 8.32956 6.38037 8.26545C6.38037 8.20135 6.43234 8.14938 6.49644 8.14938" stroke="#4F3421" stroke-width="1.39286"/>
<path d="M6.49623 8.38156C6.56034 8.38156 6.6123 8.32959 6.6123 8.26549C6.6123 8.20138 6.56034 8.14941 6.49623 8.14941" stroke="#4F3421" stroke-width="1.39286"/>
</svg>
