<svg width="16" height="16" viewBox="0 0 16 16" fill="none" xmlns="http://www.w3.org/2000/svg">
<path d="M7.06618 0.923031C6.99992 0.883449 6.92417 0.862549 6.84699 0.862549C6.76981 0.862549 6.69406 0.883449 6.6278 0.923031C6.57314 0.966336 6.53626 1.02818 6.52415 1.09685C6.51203 1.16552 6.52551 1.23626 6.56204 1.29565C7.91006 3.63003 8.19501 6.80829 6.35381 8.56182C5.64542 7.96652 5.08302 7.21665 4.70989 6.36991C4.02901 6.74807 3.46473 7.30553 3.07831 7.98176C2.6919 8.65799 2.49811 9.42715 2.51799 10.2057C2.63344 13.0567 4.46878 15.1375 7.99774 15.1375C11.5267 15.1375 13.3569 12.9456 13.4775 10.2057C13.62 6.91789 11.2856 2.87383 7.06618 0.923031Z" stroke="white" stroke-width="1.5" stroke-linecap="round" stroke-linejoin="round"/>
<path d="M10.7384 10.2063C10.7384 10.7876 10.5075 11.3451 10.0964 11.7561C9.68539 12.1671 9.12792 12.398 8.54663 12.398" stroke="white" stroke-width="1.5" stroke-linecap="round" stroke-linejoin="round"/>
</svg>
