<svg width="24" height="24" viewBox="0 0 24 24" fill="none" xmlns="http://www.w3.org/2000/svg">
<path d="M6.81782 14.9859C8.46683 14.9859 9.80361 13.6491 9.80361 12.0001C9.80361 10.3511 8.46683 9.01428 6.81782 9.01428C5.16881 9.01428 3.83203 10.3511 3.83203 12.0001C3.83203 13.6491 5.16881 14.9859 6.81782 14.9859Z" stroke="black" stroke-width="2.09464" stroke-linecap="round" stroke-linejoin="round"/>
<path d="M17.1831 9.24392C18.8321 9.24392 20.1688 7.90713 20.1688 6.25813C20.1688 4.60912 18.8321 3.27234 17.1831 3.27234C15.534 3.27234 14.1973 4.60912 14.1973 6.25813C14.1973 7.90713 15.534 9.24392 17.1831 9.24392Z" stroke="black" stroke-width="2.09464" stroke-linecap="round" stroke-linejoin="round"/>
<path d="M17.1831 20.7278C18.8321 20.7278 20.1688 19.391 20.1688 17.742C20.1688 16.093 18.8321 14.7562 17.1831 14.7562C15.534 14.7562 14.1973 16.093 14.1973 17.742C14.1973 19.391 15.534 20.7278 17.1831 20.7278Z" stroke="black" stroke-width="2.09464" stroke-linecap="round" stroke-linejoin="round"/>
<path d="M8.20215 9.38652C10.9286 7.84875 11.0941 7.8358 14.1969 6.96057" stroke="black" stroke-width="2.09464" stroke-linecap="round" stroke-linejoin="round"/>
<path d="M8.20215 14.6136C10.9286 16.1514 11.0941 16.1643 14.1969 17.0396" stroke="black" stroke-width="2.09464" stroke-linecap="round" stroke-linejoin="round"/>
</svg>
