<svg width="25" height="25" viewBox="0 0 25 25" fill="none" xmlns="http://www.w3.org/2000/svg">
<path d="M2.34628 17.7056C2.6006 20.0826 4.51246 21.9945 6.88838 22.2593C8.65314 22.4561 10.4651 22.625 12.3125 22.625C14.1599 22.625 15.9719 22.4561 17.7366 22.2593C20.1125 21.9945 22.0244 20.0826 22.2787 17.7056C22.4665 15.9508 22.625 14.1492 22.625 12.3125C22.625 10.4758 22.4665 8.67422 22.2787 6.91942C22.0244 4.54236 20.1125 2.63049 17.7366 2.36565C15.9719 2.16895 14.1599 2 12.3125 2C10.4651 2 8.65314 2.16895 6.88838 2.36565C4.51246 2.63049 2.6006 4.54236 2.34628 6.91942C2.15854 8.67422 2 10.4758 2 12.3125C2 14.1492 2.15854 15.9508 2.34628 17.7056Z" stroke="black" stroke-width="2.475"/>
<path d="M8 13.3571L11.1169 16.5714C12.5836 12.3583 13.8051 10.5095 16.5714 8" stroke="black" stroke-width="2.475" stroke-linecap="round" stroke-linejoin="round"/>
</svg>
