<svg width="26" height="26" viewBox="0 0 26 26" fill="none" xmlns="http://www.w3.org/2000/svg">
<rect width="26" height="26" rx="13" fill="#FF5045"/>
<path d="M19.2909 15.3884C19.2909 9.2741 12.9997 5.23773 12.9997 5.23773C12.9997 5.23773 6.7085 9.2741 6.7085 15.3884C6.7085 16.8136 7.37132 18.1805 8.55115 19.1883C9.73099 20.1961 11.3312 20.7622 12.9997 20.7622C14.6683 20.7622 16.2685 20.1961 17.4483 19.1883C18.6281 18.1805 19.2909 16.8136 19.2909 15.3884Z" fill="white"/>
<path d="M19.2909 15.3884C19.2909 9.2741 12.9997 5.23773 12.9997 5.23773C12.9997 5.23773 6.7085 9.2741 6.7085 15.3884C6.7085 16.8136 7.37132 18.1805 8.55115 19.1883C9.73099 20.1961 11.3312 20.7622 12.9997 20.7622C14.6683 20.7622 16.2685 20.1961 17.4483 19.1883C18.6281 18.1805 19.2909 16.8136 19.2909 15.3884Z" stroke="#FF5045" stroke-width="1.86294" stroke-linecap="round" stroke-linejoin="round"/>
<path d="M15.8418 15.3767C15.8418 15.8559 15.6189 16.3154 15.2222 16.6543C14.8256 16.9931 14.2876 17.1835 13.7266 17.1835" stroke="#FF5045" stroke-width="1.86294" stroke-linecap="round" stroke-linejoin="round"/>
</svg>
