<svg width="1145" height="1145" viewBox="0 0 1145 1145" fill="none" xmlns="http://www.w3.org/2000/svg">
<rect width="1145" height="1145" rx="572.5" fill="#4F2121"/>
<path d="M849.548 677.688C849.548 408.425 572.492 230.669 572.492 230.669C572.492 230.669 295.437 408.425 295.437 677.688C295.437 740.453 324.626 800.647 376.584 845.029C428.542 889.411 499.013 914.345 572.492 914.345C645.972 914.345 716.442 889.411 768.4 845.029C820.358 800.647 849.548 740.453 849.548 677.688Z" fill="white"/>
<path d="M849.548 677.688C849.548 408.425 572.492 230.669 572.492 230.669C572.492 230.669 295.437 408.425 295.437 677.688C295.437 740.453 324.626 800.647 376.584 845.029C428.542 889.411 499.013 914.345 572.492 914.345C645.972 914.345 716.442 889.411 768.4 845.029C820.358 800.647 849.548 740.453 849.548 677.688Z" stroke="#4F2121" stroke-width="82.0411" stroke-linecap="round" stroke-linejoin="round"/>
<path d="M697.674 677.161C697.674 698.263 687.86 718.502 670.391 733.424C652.922 748.345 629.229 756.728 604.523 756.728" stroke="#4F2121" stroke-width="82.0411" stroke-linecap="round" stroke-linejoin="round"/>
</svg>
