<svg width="26" height="26" viewBox="0 0 26 26" fill="none" xmlns="http://www.w3.org/2000/svg">
<rect width="26" height="26" rx="13" fill="#F0432B"/>
<path d="M19.2909 15.3883C19.2909 9.27404 12.9997 5.23767 12.9997 5.23767C12.9997 5.23767 6.7085 9.27404 6.7085 15.3883C6.7085 16.8136 7.37132 18.1804 8.55115 19.1882C9.73099 20.196 11.3312 20.7622 12.9997 20.7622C14.6683 20.7622 16.2685 20.196 17.4483 19.1882C18.6281 18.1804 19.2909 16.8136 19.2909 15.3883Z" fill="white"/>
<path d="M19.2909 15.3883C19.2909 9.27404 12.9997 5.23767 12.9997 5.23767C12.9997 5.23767 6.7085 9.27404 6.7085 15.3883C6.7085 16.8136 7.37132 18.1804 8.55115 19.1882C9.73099 20.196 11.3312 20.7622 12.9997 20.7622C14.6683 20.7622 16.2685 20.196 17.4483 19.1882C18.6281 18.1804 19.2909 16.8136 19.2909 15.3883Z" stroke="#F0432B" stroke-width="1.86294" stroke-linecap="round" stroke-linejoin="round"/>
<path d="M15.842 15.3767C15.842 15.8559 15.6192 16.3155 15.2225 16.6543C14.8258 16.9931 14.2878 17.1835 13.7268 17.1835" stroke="#F0432B" stroke-width="1.86294" stroke-linecap="round" stroke-linejoin="round"/>
</svg>
