<svg width="27" height="26" viewBox="0 0 27 26" fill="none" xmlns="http://www.w3.org/2000/svg">
<path d="M25.3944 22.5801C24.0403 20.9666 23.3069 18.9227 23.3262 16.8164V8.0504C23.3262 4.16328 20.6906 1 17.4509 1L6.87533 1C3.63567 1 1 4.16328 1 8.0504C1 11.9375 3.63567 15.1008 6.87533 15.1008H10.4005V16.8164C10.3813 19.4831 11.3147 22.0691 13.0327 24.1088C13.143 24.2378 13.28 24.3413 13.4342 24.4123C13.5883 24.4833 13.756 24.5201 13.9257 24.5201H24.5013C24.7262 24.5203 24.9464 24.456 25.1357 24.3348C25.3251 24.2136 25.4758 24.0407 25.5698 23.8364C25.6638 23.6322 25.6973 23.4052 25.6662 23.1825C25.6351 22.9599 25.5407 22.7508 25.3944 22.5801ZM6.87533 12.7518C4.93177 12.7518 3.35013 10.6426 3.35013 8.05157C3.35013 5.46055 4.93177 3.35131 6.87533 3.35131C8.81889 3.35131 10.4005 5.45938 10.4005 8.05157C10.4005 10.6438 8.81889 12.7518 6.87533 12.7518ZM14.4886 22.1688C13.3461 20.6194 12.7363 18.7415 12.7507 16.8164V8.59093C12.7507 8.55802 12.7342 8.52982 12.7319 8.49692C12.7401 8.34886 12.7507 8.20198 12.7507 8.0504C12.7663 6.36215 12.2372 4.71386 11.2419 3.35013L17.4509 3.35013C19.3945 3.35013 20.9761 5.45938 20.9761 8.0504V16.8164C20.9701 18.6811 21.4211 20.5188 22.2898 22.1688H14.4886ZM6.87533 6.58274C6.52652 6.62581 6.20838 6.80354 5.98883 7.07798C5.76928 7.35242 5.66572 7.70182 5.70026 8.05157C5.66572 8.40132 5.76928 8.75072 5.98883 9.02516C6.20838 9.2996 6.52652 9.47733 6.87533 9.5204C7.22413 9.47733 7.54228 9.2996 7.76183 9.02516C7.98138 8.75072 8.08494 8.40132 8.05039 8.05157C8.08494 7.70182 7.98138 7.35242 7.76183 7.07798C7.54228 6.80354 7.22413 6.62581 6.87533 6.58274Z" fill="black" stroke="black"/>
</svg>
