<svg width="26" height="26" viewBox="0 0 26 26" fill="none" xmlns="http://www.w3.org/2000/svg">
<rect width="26" height="26" rx="13" fill="#F6B092"/>
<path d="M18.4267 11.0329L16.6827 11.6583C15.1674 12.2017 13.6896 10.7657 14.1892 9.23541L14.7643 7.47419C14.8559 7.19362 15.0452 6.92373 15.3277 7.00935C16.3413 7.31664 18.5389 9.452 18.8751 10.4564C18.9688 10.7363 18.7045 10.9333 18.4267 11.0329Z" fill="#F6B092" stroke="white" stroke-width="1.45178" stroke-linejoin="round"/>
<path d="M11.1613 18.51L11.7363 16.7488C12.2359 15.2186 10.7581 13.7826 9.24281 14.3259L7.49883 14.9513C7.221 15.0509 6.95666 15.2479 7.05036 15.5278C7.38662 16.5322 9.58419 18.6676 10.5978 18.9749C10.8803 19.0605 11.0697 18.7906 11.1613 18.51Z" fill="#F6B092" stroke="white" stroke-width="1.45178" stroke-linejoin="round"/>
<path d="M15.1 15.0687C16.3779 13.7536 16.357 12.295 15.0418 11.017C13.7267 9.73911 12.2681 9.76005 10.9902 11.0752C9.71224 12.3904 9.73318 13.849 11.0483 15.1269C12.3635 16.4048 13.8221 16.3839 15.1 15.0687Z" fill="#F6B092" stroke="white" stroke-width="1.45178" stroke-linecap="round" stroke-linejoin="round"/>
</svg>
