<svg width="245" height="233" viewBox="0 0 245 233" fill="none" xmlns="http://www.w3.org/2000/svg">
<path d="M1.77 161.5C-10.49 135.13 52.76 141.43 58.33 123.11C63.89 104.79 -1.93001 94.32 13.83 62.03C29.59 29.74 42.31 47.2 58.67 38.47C75.01 29.75 64.82 1.82002 87.07 0.0800199C109.32 -1.65998 146.41 26.26 164.02 44.58C181.63 62.9 235.1 35.17 240.97 69.76C244.41 90.04 206.67 101.3 205.74 119.62C204.81 137.94 248.39 139.69 244.68 167.61C240.97 195.53 187.2 174.59 168.65 184.19C150.11 193.79 154.74 228.69 114.88 232.18C75.02 235.67 73.16 210.37 54.62 192.04C36.08 173.72 14.75 189.42 1.77 161.5Z" fill="#F1E8E1"/>
<path d="M120.82 82.4C122.7 72.57 124.81 63.01 128.55 54.03C132.71 44.04 139.11 36.25 147.12 30.08C154.03 24.76 161.79 24.54 169.65 25.3C185.72 26.87 196.88 37.62 206.96 50.75C214.68 60.81 218.51 72.93 222.47 85.05C228.05 102.14 230 120.08 231.76 138.05C233.78 158.63 234.45 179.26 233.29 199.94C233.19 201.72 233.79 204.51 231.38 204.36C229.34 204.23 229.94 201.55 229.93 199.88C229.88 193.33 230.72 186.83 230.77 180.27C230.89 166.11 229.67 152.06 228.72 137.98C228.58 135.86 228.17 134.6 225.95 134.88C224.02 135.13 222.15 134.37 220.29 133.86C214.33 132.24 213.52 129.27 217.67 124.28C211.26 120.44 210.71 117.81 215.41 113.22C213.55 111.7 210.79 110.69 211.56 107.26C212.36 103.71 215.22 103.68 217.8 103.13C219.74 102.71 222.4 104.65 223.4 102.36C224.07 100.84 222.93 98.19 222.38 96.13C216.88 75.42 209.83 55.72 194.57 41.37C183.63 31.08 171.22 26.69 157.08 29.09C151.85 29.98 147.64 33.43 143.79 37.13C138.31 42.4 134.22 49.01 131.06 56.37C129.93 59.01 130.62 60.44 132.69 61.47C136.49 63.37 140.45 64.26 144.59 63.48C154.49 61.61 161.63 55.2 166.91 45.8C167.15 45.37 167.36 44.91 167.56 44.45C168.02 43.37 168.58 42.11 169.78 42.92C170.68 43.53 170.33 44.8 169.82 45.7C164 55.81 156.74 63.71 145.73 65.8C140.43 66.81 135.37 66.16 130.8 62.66C128.57 60.95 128.58 63.46 128.24 64.58C125.48 73.59 123.79 82.85 123.59 92.41C123.52 95.62 123.78 98.84 123.59 102.04C123.43 104.79 124.33 105.55 126.66 105.52C138.54 105.37 150.42 105.47 162.3 105.28C167.41 105.2 172.48 105.61 177.56 105.96C179.26 106.08 180.92 106.63 182.39 107.63C185.21 109.54 185.45 111.99 183.28 114.87C182.7 115.64 181.19 116 182.71 117.79C185.41 120.98 184.48 123.89 180.66 125.34C180.37 125.45 180.12 125.68 179.9 125.82C179.87 126.91 180.64 127.12 181.1 127.63C183.37 130.15 183.14 133.4 180.5 135.42C177.45 137.76 173.91 138.03 170.41 138.14C159.44 138.51 148.46 138.5 137.48 137.99C125.49 137.44 113.5 137.07 101.5 137.43C89.95 137.78 78.44 136.31 66.89 136.6C64.96 136.65 63.05 136.75 61.22 137.53C60.37 137.89 59.36 138.29 59.44 139.49C59.5 140.42 60.39 140.89 61.15 141.16C65.16 142.63 69.32 143.14 73.51 143.31C75.43 143.39 77.36 143.27 79.28 143.39C80.42 143.46 82.17 143.08 82.07 145.16C81.97 147.08 80.3 146.77 79.11 146.79C75.04 146.86 70.96 146.66 66.9 146.96C64.93 147.11 61.69 146.71 61.61 149.52C61.55 151.53 64.77 151.76 66.72 152.18C70.4 152.97 74.12 153.22 77.87 153.06C79.28 153 80.99 153.08 81.03 155.01C81.07 157.1 79.25 156.76 77.93 156.93C74.79 157.35 71.66 157.83 68.54 158.35C66.83 158.63 65.39 159.53 64.1 161.19C66.61 163.41 69.49 163.39 72.23 163.51C92.81 164.41 113.39 165.2 133.97 166.04C145.95 166.53 157.94 167.22 169.89 165.38C173.8 164.78 177.72 164.2 181.65 163.83C182.93 163.71 185.09 162.59 185.38 164.9C185.67 167.22 183.4 166.85 182.08 167.1C167.4 169.97 152.6 170.23 137.76 169.82C134.82 169.74 131.88 169.57 128.94 169.48C124.99 169.36 124.95 169.38 125.11 173.73C125.37 180.91 125.11 188.11 125.89 195.27C126.06 196.79 126.01 198.36 125.9 199.89C125.81 201.27 126.52 203.51 124.5 203.49C122.84 203.48 122.77 201.53 122.75 199.91C122.66 193.88 122.53 187.85 122.39 181.81C122.33 178.99 122.07 176.15 122.19 173.34C122.32 170.29 121.45 169.24 118.6 169.15C103.45 168.65 88.3 167.87 73.15 167.17C70.43 167.04 67.74 166.73 65.12 165.79C63.2 165.1 61.49 164.09 61.18 161.6C60.86 159.04 62.22 157.57 64.12 156.58C64.42 156.43 64.68 156.18 65.31 155.72C62.65 154.5 60.12 153.91 58.6 151.65C56.51 148.54 59.13 146.84 60.53 144.88C59.85 144.5 59.24 144.19 58.66 143.82C57.13 142.83 55.78 141.59 55.92 139.37C56.08 136.94 57.53 135.45 59.38 134.57C62.13 133.24 65.07 132.98 68.03 133.02C79.23 133.19 90.41 134.15 101.63 133.85C120.08 133.36 138.5 135.03 156.95 134.97C162.27 134.95 167.58 134.59 172.89 134.43C174.63 134.38 176.23 133.83 177.78 133.02C178.51 132.64 179.34 132.17 179.27 131.16C179.2 130.2 178.37 129.75 177.62 129.44C174.51 128.19 171.26 127.66 168.01 127.13C167.11 126.98 166.21 126.9 165.31 126.76C164.4 126.62 163.29 126.42 163.3 125.19C163.32 123.74 164.44 123.51 165.53 123.54C169.16 123.64 172.77 123.42 176.36 122.83C177.98 122.56 180.66 123.12 180.76 121.1C180.89 118.71 178.12 118.95 176.48 118.54C173.37 117.77 170.18 117.98 167.01 117.93C166.33 117.93 165.61 118.13 164.99 117.93C164.06 117.64 162.8 117.43 162.96 115.86C163.1 114.48 164.23 114.6 165.1 114.55C168.83 114.31 172.56 114.16 176.28 113.88C178.14 113.74 181.14 114.12 181.2 111.86C181.26 109.45 178.29 109.29 176.32 109.13C172.6 108.82 168.86 108.51 165.14 108.54C141.83 108.73 118.52 109 95.21 108.8C86.63 108.73 78.04 109.73 69.44 110.11C68.04 110.17 65.63 110.99 65.62 108.46C65.61 106.39 67.96 106.95 69.3 106.85C84.55 105.69 99.81 105.07 115.09 105.52C119.42 105.65 119.32 105.56 119.16 100.77C118.88 92.02 117.82 83.41 115.97 74.91C115.18 71.28 113.76 67.92 112.79 64.38C112.19 62.18 111.5 61.86 109.41 62.73C96.76 68.03 84.81 67.14 74.19 56.73C73.59 56.15 73 55.55 72.48 54.87C71.96 54.19 71.4 53.38 72.29 52.56C73.02 51.89 73.51 52.56 74.01 53.1C83.53 63.62 94.84 64.85 107.07 61.33C111.17 60.15 111.57 59.34 109.53 55.1C105.7 47.11 100.25 40.71 93.01 36.93C86.48 33.51 79.26 34 72.36 35.45C56.01 38.88 45.37 50.74 38.36 67.05C30.9 84.4 27.69 103.15 25.58 122.17C25.21 125.47 24.79 128.77 24.29 132.05C23.9 134.64 24.16 136.19 27.06 135.92C29.89 135.66 32.67 136.36 35.21 138.01C36.94 139.14 38.56 140.37 38.39 142.95C38.21 145.57 36.55 146.57 34.5 147.02C34.23 147.08 34.01 147.47 33.8 147.68C33.97 148.47 34.52 148.68 34.96 149.06C38.37 151.97 38.28 155.91 34.55 158.2C32.83 159.25 32.19 159.58 33.9 161.5C36.65 164.56 36.06 167.8 32.62 169.79C30.6 170.96 28.44 171.56 26.13 171.73C22.04 172.02 22.03 172.14 21.98 176.69C21.89 185.29 21.82 193.9 21.75 202.5C21.75 203.14 21.82 203.8 21.72 204.42C21.52 205.7 21.88 207.64 20.01 207.5C18.45 207.38 18.65 205.72 18.65 204.48C18.66 196.26 18.52 188.03 18.78 179.83C19.54 156.23 20.85 132.67 24.14 109.32C26.78 90.59 30.97 72.28 40.37 56.35C47 45.11 55.8 36.09 67.93 32.96C78.23 30.3 88.53 29.42 98.05 36.52C105.53 42.1 111.18 49.32 114.36 58.92C116.89 66.58 119.66 74.16 120.79 82.38L120.82 82.4Z" fill="#4F3421" stroke="#4F3421" stroke-width="2" stroke-miterlimit="10"/>
<path d="M152.84 46.6599C154.44 45.1799 154.2 42.9899 154.58 41.0499C154.76 40.1499 155.01 38.9299 156.14 39.1899C157.04 39.3999 156.93 40.5199 156.8 41.2899C156.45 43.3299 156.13 45.4099 155.52 47.3599C155.01 49.0099 153.95 50.3299 152.15 49.7999C150.66 49.3699 150.01 48.0499 149.97 46.3499C149.96 45.6499 149.95 44.9499 149.99 44.2599C150.05 43.0299 149.88 41.1099 151.12 41.0899C153 41.0599 152.01 43.1799 152.27 44.3699C152.43 45.0999 151.93 46.0199 152.83 46.6699L152.84 46.6599Z" fill="#4F3421"/>
<path d="M84.54 49.6598C85.86 48.3298 85.42 46.7898 85.47 45.3598C85.5 44.4298 85.09 43.0598 86.49 43.0098C87.78 42.9698 87.62 44.3798 87.85 45.2798C88.03 45.9698 88.03 46.7398 88.01 47.4698C87.94 50.0098 87.3 52.4998 84.77 52.6498C82.33 52.7998 81.23 50.6598 81.05 48.0098C81.02 47.5698 80.89 47.1098 80.96 46.6898C81.17 45.2798 80.18 42.8898 82.04 42.7598C83.69 42.6398 83.21 44.9898 83.33 46.3498C83.43 47.5598 83.62 48.6698 84.54 49.6598Z" fill="#4F3421"/>
<path d="M96.91 50.9098C97.61 50.0498 97.17 48.9998 97.3 48.0498C97.42 47.0898 96.99 45.6198 98.11 45.4398C99.4 45.2198 99.57 46.7498 99.73 47.8398C99.86 48.6898 99.92 49.6398 99.73 50.4598C99.29 52.3898 99.13 54.9398 96.79 54.9598C94.33 54.9798 93.79 52.6598 93.58 50.3398C93.53 49.7598 93.46 49.1398 93.58 48.5898C93.88 47.1998 92.7 44.7198 94.76 44.6998C96.35 44.6798 95.6 47.0698 95.86 48.3998C96.04 49.3398 95.68 50.5298 96.91 50.9198V50.9098Z" fill="#4F3421"/>
<path d="M141.74 49.39C141.99 48.19 142.26 46.99 142.49 45.78C142.66 44.89 142.51 43.52 143.75 43.82C144.68 44.05 144.84 45.28 144.68 46.26C144.41 47.88 144.31 49.55 143.56 51.04C142.88 52.41 142.19 53.8 140.58 53.59C139.36 53.43 138.68 52.29 138.48 51.02C138.21 49.22 138.37 47.36 139.26 45.83C139.67 45.12 140.43 45.79 140.63 46.44C140.93 47.44 141.03 48.53 141.22 49.57L141.74 49.39Z" fill="#4F3421"/>
<path d="M23.03 153.72C22.4 150 23.65 149.22 26.31 149.76C28.43 150.18 30.46 150.79 32.41 151.75C34.06 152.57 34.5 153.76 32.59 154.87C29.94 156.42 27.04 156.94 24.12 156.81C21.83 156.71 23.39 154.4 23.03 153.71V153.72Z" fill="#F0EFEF"/>
<path d="M23.52 142.34C23.12 139.67 24.35 138.91 26.44 139.29C28.96 139.75 31.61 139.52 33.89 141.19C34.37 141.54 34.92 141.88 34.91 142.58C34.91 143.64 34.08 143.5 33.46 143.73C30.76 144.74 27.91 144.4 25.17 144.98C23.18 145.4 23.31 143.86 23.52 142.35V142.34Z" fill="#EFEEED"/>
<path d="M22.67 164.56C22.28 161.65 23.33 160.9 25.73 161.62C27.35 162.1 29.01 162.38 30.5 163.3C31.08 163.66 31.85 164.03 31.82 164.87C31.79 165.65 31.17 166.21 30.49 166.43C28.99 166.91 27.46 167.27 25.97 167.77C23.32 168.67 22.03 167.86 22.66 164.55L22.67 164.56Z" fill="#F1F0EF"/>
<path d="M224.18 120.96C221.98 120.87 220.1 120.52 218.25 119.93C217.37 119.65 216.32 119.52 216.26 118.29C216.19 116.79 217.49 117.01 218.27 116.85C220.04 116.49 221.88 116.52 223.62 116.07C226.1 115.44 226.49 117.07 226.66 119.19C226.89 122.14 224.89 120.52 224.17 120.95L224.18 120.96Z" fill="#ECEBEA"/>
<path d="M225.2 131.46C223.47 131 221.74 130.59 220.03 130.06C219.55 129.91 218.85 129.81 218.82 128.98C218.79 128.03 219.42 127.72 220.09 127.53C221.72 127.09 223.36 126.71 224.98 126.24C227.05 125.64 227.75 126.6 227.91 128.91C228.09 131.52 226.81 131.5 225.2 131.46Z" fill="#E4E3E3"/>
<path d="M220.45 106.61C221.85 107.2 224.48 105.28 225 108.99C225.22 110.54 225.08 111.6 223.38 111.19C221.18 110.66 219 110.09 216.81 109.51C216.14 109.33 215.35 109.07 215.41 108.16C215.48 107.12 216.36 106.88 217.14 106.8C218.15 106.69 219.16 106.68 220.45 106.61Z" fill="#E1E0DF"/>
</svg>
