<svg width="20" height="20" viewBox="0 0 20 20" fill="none" xmlns="http://www.w3.org/2000/svg">
<path d="M17.7363 14.4135C18.1905 14.9242 18.9727 14.9701 19.4834 14.516C19.9942 14.0618 20.0401 13.2796 19.5859 12.7689L17.7363 14.4135ZM0.414094 12.7689C-0.0400503 13.2796 0.00583374 14.0618 0.516579 14.516C1.02732 14.9701 1.80952 14.9242 2.26366 14.4135L0.414094 12.7689ZM11.8208 7.62532L12.5158 6.60144L11.8208 7.62532ZM19.5859 12.7689C16.9571 9.81243 15.1136 8.36491 12.5158 6.60144L11.1257 8.64919C13.5925 10.3237 15.271 11.6409 17.7363 14.4135L19.5859 12.7689ZM2.26366 14.4135C4.72897 11.6409 6.40748 10.3237 8.87428 8.64919L7.48421 6.60144C4.88639 8.36491 3.04292 9.81242 0.414094 12.7689L2.26366 14.4135ZM12.5158 6.60144C10.9984 5.57141 9.00157 5.57141 7.48421 6.60144L8.87428 8.64919C9.55247 8.18882 10.4475 8.18882 11.1257 8.64919L12.5158 6.60144Z" fill="#020202"/>
</svg>
