<svg width="16" height="16" viewBox="0 0 16 16" fill="none" xmlns="http://www.w3.org/2000/svg">
<g clip-path="url(#clip0_1214_3504)">
<path d="M2.32912 5.4864C2.41245 5.82896 3.11608 6.11597 4.03265 6.17152C4.87516 6.21781 5.73619 6.2641 6.61573 6.2641C7.49527 6.2641 8.36555 6.21781 9.1988 6.17152C10.1154 6.11597 10.8283 5.83822 10.9023 5.4864C11.0042 5.01423 11.1153 4.53279 11.1153 4.0421C11.1153 3.44031 11.1338 2.85704 11.069 2.29228C11.0505 2.11637 10.6894 1.97749 10.2265 1.95898C7.83783 1.87565 5.37511 1.87565 2.98646 1.95898C2.52355 1.97749 2.17173 2.11637 2.14395 2.29228C2.07915 2.84778 2.09766 3.44031 2.09766 4.0421C2.09766 4.54205 2.20876 5.02348 2.3106 5.4864H2.32912Z" fill="#FC9042"/>
<path d="M10.9209 3.00518C10.8376 2.66262 10.134 2.37561 9.21739 2.32006C8.37489 2.27377 7.51386 2.22748 6.63432 2.22748C5.75478 2.22748 4.8845 2.27377 4.05125 2.32006C3.13467 2.37561 2.42178 2.65336 2.34771 3.00518C2.24587 3.47735 2.13477 3.95879 2.13477 4.44948C2.13477 5.05127 2.11626 5.63454 2.18106 6.1993C2.19958 6.37521 2.56066 6.51408 3.02357 6.5326C5.41222 6.61593 7.87494 6.61593 10.2636 6.5326C10.7265 6.51408 11.0783 6.37521 11.1061 6.1993C11.1709 5.6438 11.1524 5.05127 11.1524 4.44948C11.1524 3.94953 11.0413 3.46809 10.9394 3.00518H10.9209Z" fill="#FC9042"/>
<path d="M6.62524 14.5223C5.67163 14.5223 4.77358 14.402 3.93107 14.2724C2.69045 14.0872 1.71833 13.0503 1.61649 11.8097C1.50539 10.5505 1.39429 9.25436 1.39429 7.89338V7.06939C1.39429 5.72693 1.39429 4.4678 1.44984 3.21793C1.48687 2.40319 2.12569 1.72734 2.94043 1.65327C5.38463 1.42181 7.86586 1.42181 10.3193 1.65327C11.134 1.72734 11.7729 2.40319 11.8099 3.21793C11.8655 4.45854 11.8655 5.72693 11.8655 7.06939V7.89338C11.8655 9.25436 11.7544 10.5505 11.6433 11.8004C11.5322 13.041 10.56 14.0779 9.32867 14.2631C8.48617 14.3927 7.58811 14.5131 6.6345 14.5131H6.62524V14.5223ZM3.05153 11.68C3.09782 12.2633 3.56074 12.754 4.14401 12.8466C4.93097 12.9669 5.77348 13.078 6.62524 13.078C7.47701 13.078 8.31952 12.9669 9.10647 12.8466C9.68975 12.7633 10.1527 12.2726 10.199 11.68C10.3008 10.4579 10.4119 9.18955 10.4119 7.89338V7.06939C10.4119 5.74545 10.4119 4.49558 10.3656 3.29199C10.3656 3.19015 10.2823 3.10683 10.1804 3.09757C7.81957 2.87537 5.43092 2.87537 3.0793 3.09757C2.97746 3.09757 2.89414 3.19015 2.89414 3.29199C2.83859 4.50483 2.83859 5.75471 2.84784 7.06939V7.89338C2.84784 9.18955 2.95894 10.4579 3.06079 11.68H3.05153Z" fill="#FC9042"/>
<path d="M11.0414 11.3099L10.9766 9.86559C11.5135 9.83782 12.032 9.79153 12.5412 9.74523L12.7449 9.72672C12.8745 9.71746 12.9764 9.61562 12.9949 9.486C13.0875 8.87495 13.1523 8.375 13.1523 7.84728C13.1523 7.28252 13.0689 6.68999 12.9949 6.20855C12.9764 6.07894 12.8745 5.97709 12.7449 5.96784L12.5783 5.94932C12.0968 5.90303 11.5969 5.86599 11.0969 5.83822L11.171 4.39392C11.6895 4.4217 12.2079 4.46799 12.7079 4.51428L12.8745 4.5328C13.6707 4.60686 14.3096 5.20865 14.4299 6.00487C14.5225 6.64369 14.6058 7.22697 14.6058 7.85653C14.6058 8.53239 14.5132 9.18048 14.4299 9.7082C14.3096 10.5044 13.6707 11.1062 12.8745 11.1803L12.6708 11.1988C12.1431 11.2451 11.5969 11.2914 11.0414 11.3191V11.3099Z" fill="#FC9042"/>
<path d="M5.17161 11.3284C4.7735 11.3284 4.44946 11.0044 4.44946 10.6063V7.57878C4.44946 7.18067 4.7735 6.85663 5.17161 6.85663C5.56972 6.85663 5.89376 7.18067 5.89376 7.57878V10.6063C5.89376 11.0044 5.56972 11.3284 5.17161 11.3284Z" fill="#FC9042"/>
<path d="M7.99534 11.3284C7.59723 11.3284 7.27319 11.0044 7.27319 10.6063V7.57878C7.27319 7.18067 7.59723 6.85663 7.99534 6.85663C8.39345 6.85663 8.71749 7.18067 8.71749 7.57878V10.6063C8.71749 11.0044 8.39345 11.3284 7.99534 11.3284Z" fill="#FC9042"/>
</g>
<defs>
<clipPath id="clip0_1214_3504">
<rect width="13.2116" height="13.045" fill="white" transform="translate(1.39429 1.47754)"/>
</clipPath>
</defs>
</svg>
