<svg width="344" height="343" viewBox="0 0 344 343" fill="none" xmlns="http://www.w3.org/2000/svg">
<g clip-path="url(#clip0_1214_3594)">
<path d="M172.269 57.4539C109.337 57.4539 58.2231 108.568 58.2231 171.5C58.2231 234.432 109.337 285.546 172.269 285.546C235.202 285.546 286.315 234.432 286.315 171.5C286.315 108.568 235.349 57.4539 172.269 57.4539ZM205.065 214.341C199.894 218.773 193.247 221.728 186.303 223.5V238.125C186.303 244.182 181.281 249.205 175.224 249.205C169.167 249.205 164.144 244.182 164.144 238.125V225.273C153.212 224.091 141.985 219.807 132.53 211.239C127.951 207.103 127.655 200.159 131.792 195.58C135.928 191 142.871 190.705 147.451 194.841C156.315 202.966 168.576 204.887 178.917 202.523C184.088 201.341 188.224 199.273 190.735 197.205C193.247 194.989 193.542 193.512 193.542 193.068C193.542 190.114 192.951 188.489 192.36 187.602C191.769 186.716 191.031 185.83 189.406 184.943C185.713 182.727 180.099 181.546 171.974 180.068C171.678 180.068 171.235 180.068 170.94 179.921C163.997 178.591 154.837 176.966 147.599 172.83C143.462 170.466 139.474 167.216 136.667 162.341C133.86 157.614 132.53 152 132.53 145.943C132.53 129.988 143.315 116.25 161.337 111.079V93.9427C161.337 87.8859 166.36 82.8631 172.417 82.8631C178.474 82.8631 183.497 87.8859 183.497 93.9427V109.602C190.883 110.636 197.088 113.147 201.667 115.806C205.065 117.727 207.872 119.795 209.645 121.42C210.531 122.159 211.27 122.897 211.86 123.488C212.156 123.784 212.304 123.932 212.451 124.227V124.522H212.747C212.747 124.522 212.747 124.522 204.474 131.909L212.747 124.522C216.883 129.102 216.44 136.045 211.86 140.182C207.281 144.318 200.338 143.875 196.349 139.443C196.349 139.443 196.349 139.443 196.201 139.295C196.054 139.148 195.61 138.704 195.167 138.261C194.133 137.375 192.508 136.193 190.588 135.011C186.451 132.648 180.838 130.579 173.747 131.17C158.678 132.5 154.69 140.625 154.69 146.091C154.69 148.898 155.281 150.375 155.724 151.114C156.167 151.852 157.053 152.739 158.531 153.625C162.224 155.693 167.837 156.875 176.11 158.352C176.406 158.352 176.553 158.352 176.849 158.352C183.94 159.682 193.247 161.454 200.781 165.739C204.917 168.102 208.906 171.648 211.713 176.375C214.52 181.25 215.849 186.864 215.849 192.921C215.849 201.932 210.974 209.023 205.213 213.898L205.065 214.341Z" fill="white"/>
</g>
<defs>
<clipPath id="clip0_1214_3594">
<rect width="228.092" height="228.092" fill="white" transform="translate(58.2231 57.4539)"/>
</clipPath>
</defs>
</svg>
