<svg width="16" height="16" viewBox="0 0 16 16" fill="none" xmlns="http://www.w3.org/2000/svg">
<path d="M1.77342 12.4754L1.03478 12.6055L1.03478 12.6055L1.77342 12.4754ZM3.85703 14.5339L3.74453 15.2754L3.74453 15.2754L3.85703 14.5339ZM10.76 14.5339L10.8725 15.2754L10.8725 15.2754L10.76 14.5339ZM12.8436 12.4754L12.105 12.3453L12.105 12.3453L12.8436 12.4754ZM12.8436 6.71271L12.105 6.84278L12.105 6.84278L12.8436 6.71271ZM10.76 4.65421L10.6475 5.39572L10.6475 5.39572L10.76 4.65421ZM3.85703 4.65421L3.74453 3.91269L3.85703 4.65421ZM1.77342 6.71271L1.03478 6.58264L1.03478 6.58264L1.77342 6.71271ZM1.03478 12.6055C1.27418 13.965 2.35964 15.0653 3.74453 15.2754L3.96953 13.7924C3.24125 13.6819 2.64332 13.0908 2.51205 12.3453L1.03478 12.6055ZM3.74453 15.2754C4.79306 15.4345 5.79083 15.5994 7.30851 15.5994V14.0994C5.91619 14.0994 5.01924 13.9517 3.96953 13.7924L3.74453 15.2754ZM7.30851 15.5994C8.82619 15.5994 9.82396 15.4345 10.8725 15.2754L10.6475 13.7924C9.59778 13.9517 8.70083 14.0994 7.30851 14.0994V15.5994ZM10.8725 15.2754C12.2574 15.0653 13.3428 13.965 13.5822 12.6055L12.105 12.3453C11.9737 13.0908 11.3758 13.6819 10.6475 13.7924L10.8725 15.2754ZM13.5822 12.6055C13.7278 11.7787 13.867 11.0233 13.867 9.59406H12.367C12.367 10.8931 12.2454 11.548 12.105 12.3453L13.5822 12.6055ZM13.867 9.59406C13.867 8.16483 13.7278 7.40941 13.5822 6.58264L12.105 6.84278C12.2454 7.64009 12.367 8.29501 12.367 9.59406H13.867ZM13.5822 6.58264C13.3428 5.22315 12.2574 4.12281 10.8725 3.91269L10.6475 5.39572C11.3758 5.50621 11.9737 6.09732 12.105 6.84278L13.5822 6.58264ZM10.8725 3.91269C9.82396 3.75361 8.82619 3.58875 7.30851 3.58875V5.08875C8.70084 5.08875 9.59778 5.23646 10.6475 5.39572L10.8725 3.91269ZM7.30851 3.58875C5.79083 3.58875 4.79306 3.75361 3.74453 3.91269L3.96953 5.39572C5.01924 5.23646 5.91619 5.08875 7.30851 5.08875V3.58875ZM3.74453 3.91269C2.35964 4.12281 1.27418 5.22315 1.03478 6.58264L2.51205 6.84278C2.64332 6.09732 3.24125 5.50621 3.96953 5.39572L3.74453 3.91269ZM1.03478 6.58264C0.889193 7.40941 0.75 8.16483 0.75 9.59406H2.25C2.25 8.29501 2.37165 7.64009 2.51205 6.84278L1.03478 6.58264ZM0.75 9.59406C0.75 11.0233 0.889193 11.7787 1.03478 12.6055L2.51205 12.3453C2.37165 11.548 2.25 10.8931 2.25 9.59406H0.75Z" fill="white"/>
<path d="M13.4213 11.1984H10.0744C9.15781 11.1984 8.41479 10.4554 8.41479 9.53885C8.41479 8.62229 9.15781 7.87927 10.0744 7.87927H13.4213C14.017 7.87927 14.4999 8.36217 14.4999 8.95785V10.1199C14.4999 10.7155 14.017 11.1984 13.4213 11.1984Z" stroke="white" stroke-width="1.5" stroke-linecap="round"/>
<path d="M2.80653 4.21178C2.4519 4.42582 2.33794 4.88682 2.55199 5.24144C2.76604 5.59606 3.22703 5.71002 3.58166 5.49598L2.80653 4.21178ZM9.06525 1.31012L9.45282 1.95222L9.45282 1.95222L9.06525 1.31012ZM10.6439 1.79878L9.96131 2.10962L9.96131 2.10962L10.6439 1.79878ZM11.7212 5.97401C11.8929 6.35097 12.3376 6.51739 12.7146 6.34571C13.0916 6.17404 13.258 5.72928 13.0863 5.35232L11.7212 5.97401ZM3.58166 5.49598L9.45282 1.95222L8.67769 0.668016L2.80653 4.21178L3.58166 5.49598ZM9.96131 2.10962L11.7212 5.97401L13.0863 5.35232L11.3264 1.48793L9.96131 2.10962ZM9.45282 1.95222C9.63528 1.84208 9.87298 1.91566 9.96131 2.10962L11.3264 1.48793C10.8663 0.477599 9.62814 0.0943313 8.67769 0.668016L9.45282 1.95222Z" fill="white"/>
</svg>
