<?xml version="1.0" encoding="UTF-8"?>
<svg id="Livello_1" data-name="Livello 1" xmlns="http://www.w3.org/2000/svg" viewBox="0 0 15.44 15.44">
  <defs>
    <style>
      .cls-1 {
        fill: #fff;
        stroke-width: 0px;
      }
    </style>
  </defs>
  <path class="cls-1" d="M7.72,0C3.46,0,0,3.46,0,7.72s3.46,7.72,7.72,7.72,7.72-3.46,7.72-7.72S11.99,0,7.72,0ZM9.94,10.62c-.35.3-.8.5-1.27.62v.99c0,.41-.34.75-.75.75s-.75-.34-.75-.75v-.87c-.74-.08-1.5-.37-2.14-.95-.31-.28-.33-.75-.05-1.06.28-.31.75-.33,1.06-.05.6.55,1.43.68,2.13.52.35-.08.63-.22.8-.36.17-.15.19-.25.19-.28,0-.2-.04-.31-.08-.37-.04-.06-.09-.12-.2-.18-.25-.15-.63-.23-1.18-.33-.02,0-.05,0-.07-.01-.47-.09-1.09-.2-1.58-.48-.28-.16-.55-.38-.74-.71-.19-.32-.28-.7-.28-1.11,0-1.08.73-2.01,1.95-2.36v-1.16c0-.41.34-.75.75-.75s.75.34.75.75v1.06c.5.07.92.24,1.23.42.23.13.42.27.54.38.06.05.11.1.15.14.02.02.03.03.04.05v.02s.02,0,.02,0h0s0,0,0,0h0s0,0-.56.5l.56-.5c.28.31.25.78-.06,1.06-.31.28-.78.25-1.05-.05,0,0,0,0-.01-.01-.01-.01-.04-.04-.07-.07-.07-.06-.18-.14-.31-.22-.28-.16-.66-.3-1.14-.26-1.02.09-1.29.64-1.29,1.01,0,.19.04.29.07.34.03.05.09.11.19.17.25.14.63.22,1.19.32.02,0,.03,0,.05,0,.48.09,1.11.21,1.62.5.28.16.55.4.74.72.19.33.28.71.28,1.12,0,.61-.33,1.09-.72,1.42Z"/>
</svg>