<svg width="261" height="291" viewBox="0 0 261 291" fill="none" xmlns="http://www.w3.org/2000/svg">
<path d="M130.28 156.064C168.582 156.064 199.632 125.014 199.632 86.7127C199.632 48.4111 168.582 17.3615 130.28 17.3615C91.9789 17.3615 60.9293 48.4111 60.9293 86.7127C60.9293 125.014 91.9789 156.064 130.28 156.064Z" fill="white" stroke="white" stroke-width="33.5554" stroke-linecap="round" stroke-linejoin="round"/>
<path d="M243.515 263.163C237.457 238.75 223.656 216.898 204.112 200.924C183.273 183.891 157.186 174.586 130.272 174.586C103.357 174.586 77.2706 183.891 56.4316 200.924C36.8871 216.898 23.0859 238.749 17.0282 263.162C22.8825 265.115 28.9956 266.478 35.295 267.18C66.1963 270.625 97.9243 273.583 130.273 273.583C162.621 273.583 194.349 270.625 225.25 267.18C231.549 266.478 237.661 265.115 243.515 263.163Z" fill="white" stroke="white" stroke-width="33.5554" stroke-linecap="round" stroke-linejoin="round"/>
</svg>
