<svg width="26" height="26" viewBox="0 0 26 26" fill="none" xmlns="http://www.w3.org/2000/svg">
<rect width="26" height="26" rx="13" fill="#F0432B"/>
<path d="M7.45815 17.4721C7.05474 15.7339 6.86859 13.7505 6.79888 12.4794C6.76745 11.9063 7.22946 11.441 7.80344 11.441H18.1963C18.7702 11.441 19.2323 11.9063 19.2008 12.4794C19.1311 13.7505 18.945 15.7339 18.5416 17.4721C18.3546 18.2775 17.7617 18.8909 16.9433 19.0096C16.1001 19.1319 14.8197 19.2357 12.9999 19.2357C11.18 19.2357 9.89959 19.1319 9.05639 19.0096C8.23805 18.8909 7.64509 18.2775 7.45815 17.4721Z" stroke="white" stroke-width="1.55892" stroke-linecap="round" stroke-linejoin="round"/>
<path d="M9.3623 11.4411V10.4018C9.3623 8.39284 10.9909 6.76428 12.9998 6.76428V6.76428C15.0087 6.76428 16.6373 8.39284 16.6373 10.4018V11.4411" stroke="white" stroke-width="1.55892" stroke-linecap="round" stroke-linejoin="round"/>
<path d="M10.9214 14.5588V16.1178M15.0785 14.5588V16.1178" stroke="white" stroke-width="1.55892" stroke-linecap="round" stroke-linejoin="round"/>
</svg>
