<svg width="16" height="16" viewBox="0 0 16 16" fill="none" xmlns="http://www.w3.org/2000/svg">
<path d="M3.00742 12.029C2.64398 10.463 2.47628 8.67612 2.41347 7.53097C2.38516 7.01465 2.80139 6.59546 3.3185 6.59546H12.6816C13.1986 6.59546 13.6149 7.01465 13.5866 7.53097C13.5238 8.67612 13.3561 10.463 12.9927 12.029C12.8242 12.7546 12.2901 13.3072 11.5527 13.4141C10.7931 13.5243 9.63956 13.6178 8.00007 13.6178C6.36049 13.6178 5.20695 13.5243 4.4473 13.4141C3.71004 13.3072 3.17584 12.7546 3.00742 12.029Z" stroke="#F0432B" stroke-width="1.40446" stroke-linecap="round" stroke-linejoin="round"/>
<path d="M4.7229 6.59556V5.65924C4.7229 3.84934 6.19013 2.38214 7.99998 2.38214C9.80983 2.38214 11.2771 3.84934 11.2771 5.65924V6.59556" stroke="#F0432B" stroke-width="1.40446" stroke-linecap="round" stroke-linejoin="round"/>
<path d="M6.12769 9.4043V10.8088M9.87288 9.4043V10.8088" stroke="#F0432B" stroke-width="1.40446" stroke-linecap="round" stroke-linejoin="round"/>
</svg>
