<svg width="26" height="26" viewBox="0 0 26 26" fill="none" xmlns="http://www.w3.org/2000/svg">
<rect width="26" height="26" rx="13" fill="#D771E0"/>
<path d="M13.4098 10.5016C14.5136 10.5016 15.4084 9.60682 15.4084 8.50301C15.4084 7.39921 14.5136 6.50439 13.4098 6.50439C12.3059 6.50439 11.4111 7.39921 11.4111 8.50301C11.4111 9.60682 12.3059 10.5016 13.4098 10.5016Z" stroke="white" stroke-width="1.55892" stroke-linecap="round" stroke-linejoin="round"/>
<path d="M10.9152 19.4954C12.8469 19.4954 14.4128 17.9294 14.4128 15.9977C14.4128 14.066 12.8469 12.5 10.9152 12.5C8.98345 12.5 7.41748 14.066 7.41748 15.9977C7.41748 17.9294 8.98345 19.4954 10.9152 19.4954Z" fill="#D771E0"/>
<path d="M13.4099 10.5017V13.4597C13.4099 14.0336 13.8765 14.4882 14.4486 14.534C16.6976 14.7141 17.4834 15.6797 18.1866 19.4955" stroke="white" stroke-width="1.55892" stroke-linecap="round" stroke-linejoin="round"/>
<path d="M10.9115 12.5C10.2802 12.5006 9.66077 12.6722 9.11901 12.9964C8.57726 13.3206 8.13337 13.7854 7.83442 14.3415C7.53547 14.8976 7.39262 15.5242 7.42102 16.1549C7.44942 16.7856 7.64801 17.3969 7.99573 17.9239C8.34344 18.4508 8.82732 18.8739 9.39601 19.1481C9.96471 19.4223 10.597 19.5374 11.2259 19.4813C11.8547 19.4252 12.4567 19.1999 12.9679 18.8294C13.479 18.4588 13.8804 17.9568 14.1293 17.3766" stroke="white" stroke-width="1.55892" stroke-linecap="round" stroke-linejoin="round"/>
<rect x="12" y="7" width="3" height="3" fill="white"/>
</svg>
