<svg width="3300" height="2200" viewBox="0 0 3300 2200" fill="none" xmlns="http://www.w3.org/2000/svg">
<g id="MapTB" clip-path="url(#clip0_512_1698)">
<g id="Notes">
<path id="artboard" d="M3300 0H0V2200H3300V0Z" fill="white"/>
<path id="Vector" d="M263 292H3036" stroke="black" stroke-width="0.5"/>
<text id="Weight/Scale Variations" fill="black" xml:space="preserve" style="white-space: pre" font-family="Inter" font-size="13" font-weight="bold" letter-spacing="0em"><tspan x="263" y="321.727">Weight/Scale Variations</tspan></text>
<text id="Ultralight" fill="black" xml:space="preserve" style="white-space: pre" font-family="Inter" font-size="13" letter-spacing="0em"><tspan x="531.211" y="321.727">Ultralight</tspan></text>
<text id="Thin" fill="black" xml:space="preserve" style="white-space: pre" font-family="Inter" font-size="13" letter-spacing="0em"><tspan x="842.922" y="321.727">Thin</tspan></text>
<text id="Light" fill="black" xml:space="preserve" style="white-space: pre" font-family="Inter" font-size="13" letter-spacing="0em"><tspan x="1137.63" y="321.727">Light</tspan></text>
<text id="Regular" fill="black" xml:space="preserve" style="white-space: pre" font-family="Inter" font-size="13" letter-spacing="0em"><tspan x="1426.34" y="321.727">Regular</tspan></text>
<text id="Medium" fill="black" xml:space="preserve" style="white-space: pre" font-family="Inter" font-size="13" letter-spacing="0em"><tspan x="1721.56" y="321.727">Medium</tspan></text>
<text id="Semibold" fill="black" xml:space="preserve" style="white-space: pre" font-family="Inter" font-size="13" letter-spacing="0em"><tspan x="2014.27" y="321.727">Semibold</tspan></text>
<text id="Bold" fill="black" xml:space="preserve" style="white-space: pre" font-family="Inter" font-size="13" letter-spacing="0em"><tspan x="2325.98" y="321.727">Bold</tspan></text>
<text id="Heavy" fill="black" xml:space="preserve" style="white-space: pre" font-family="Inter" font-size="13" letter-spacing="0em"><tspan x="2617.19" y="321.727">Heavy</tspan></text>
<text id="Black" fill="black" xml:space="preserve" style="white-space: pre" font-family="Inter" font-size="13" letter-spacing="0em"><tspan x="2916.4" y="321.727">Black</tspan></text>
<path id="Vector_2" d="M263 1903H3036" stroke="black" stroke-width="0.5"/>
<g id="Group">
<path id="Vector_3" d="M272.248 1933.83C276.555 1933.83 280.139 1930.26 280.139 1925.95C280.139 1921.64 276.545 1918.07 272.238 1918.07C267.941 1918.07 264.367 1921.64 264.367 1925.95C264.367 1930.26 267.951 1933.83 272.248 1933.83ZM272.248 1932.35C268.703 1932.35 265.871 1929.5 265.871 1925.95C265.871 1922.39 268.693 1919.55 272.238 1919.55C275.793 1919.55 278.645 1922.39 278.645 1925.95C278.645 1929.5 275.803 1932.35 272.248 1932.35ZM268.654 1925.95C268.654 1926.38 268.957 1926.67 269.406 1926.67H271.506V1928.79C271.506 1929.23 271.799 1929.53 272.229 1929.53C272.678 1929.53 272.971 1929.23 272.971 1928.79V1926.67H275.09C275.529 1926.67 275.832 1926.38 275.832 1925.95C275.832 1925.51 275.529 1925.21 275.09 1925.21H272.971V1923.1C272.971 1922.65 272.678 1922.35 272.229 1922.35C271.799 1922.35 271.506 1922.65 271.506 1923.1V1925.21H269.406C268.957 1925.21 268.654 1925.51 268.654 1925.95Z" fill="black"/>
</g>
<g id="Group_2">
<path id="Vector_4" d="M293.215 1935.91C298.664 1935.91 303.176 1931.39 303.176 1925.95C303.176 1920.5 298.654 1915.99 293.205 1915.99C287.766 1915.99 283.254 1920.5 283.254 1925.95C283.254 1931.39 287.775 1935.91 293.215 1935.91ZM293.215 1934.25C288.605 1934.25 284.924 1930.56 284.924 1925.95C284.924 1921.34 288.596 1917.65 293.205 1917.65C297.814 1917.65 301.516 1921.34 301.516 1925.95C301.516 1930.56 297.824 1934.25 293.215 1934.25ZM288.684 1925.95C288.684 1926.43 289.016 1926.75 289.514 1926.75H292.385V1929.63C292.385 1930.12 292.717 1930.46 293.195 1930.46C293.684 1930.46 294.025 1930.13 294.025 1929.63V1926.75H296.906C297.395 1926.75 297.736 1926.43 297.736 1925.95C297.736 1925.46 297.395 1925.12 296.906 1925.12H294.025V1922.25C294.025 1921.75 293.684 1921.41 293.195 1921.41C292.717 1921.41 292.385 1921.75 292.385 1922.25V1925.12H289.514C289.016 1925.12 288.684 1925.46 288.684 1925.95Z" fill="black"/>
</g>
<g id="Group_3">
<path id="Vector_5" d="M319.895 1938.66C326.857 1938.66 332.619 1932.9 332.619 1925.95C332.619 1918.99 326.848 1913.22 319.885 1913.22C312.932 1913.22 307.18 1918.99 307.18 1925.95C307.18 1932.9 312.941 1938.66 319.895 1938.66ZM319.895 1936.85C313.859 1936.85 309.006 1931.98 309.006 1925.95C309.006 1919.9 313.85 1915.05 319.885 1915.05C325.93 1915.05 330.793 1919.9 330.793 1925.95C330.793 1931.98 325.939 1936.85 319.895 1936.85ZM314.123 1925.95C314.123 1926.47 314.494 1926.83 315.041 1926.83H318.986V1930.78C318.986 1931.32 319.357 1931.7 319.875 1931.7C320.412 1931.7 320.783 1931.33 320.783 1930.78V1926.83H324.738C325.275 1926.83 325.656 1926.47 325.656 1925.95C325.656 1925.4 325.285 1925.03 324.738 1925.03H320.783V1921.09C320.783 1920.54 320.412 1920.16 319.875 1920.16C319.357 1920.16 318.986 1920.54 318.986 1921.09V1925.03H315.041C314.494 1925.03 314.123 1925.4 314.123 1925.95Z" fill="black"/>
</g>
<text id="Design Variations" fill="black" xml:space="preserve" style="white-space: pre" font-family="Inter" font-size="13" font-weight="bold" letter-spacing="0em"><tspan x="263" y="1952.73">Design Variations</tspan></text>
<text id="Symbols are supported in up to nine weights and three scales." fill="black" xml:space="preserve" style="white-space: pre" font-family="Inter" font-size="13" letter-spacing="0em"><tspan x="263" y="1970.73">Symbols are supported in up to nine weights and three scales.</tspan></text>
<text id="For optimal layout with text and other symbols, vertically align" fill="black" xml:space="preserve" style="white-space: pre" font-family="Inter" font-size="13" letter-spacing="0em"><tspan x="263" y="1988.73">For optimal layout with text and other symbols, vertically align</tspan></text>
<text id="symbols with the adjacent text." fill="black" xml:space="preserve" style="white-space: pre" font-family="Inter" font-size="13" letter-spacing="0em"><tspan x="263" y="2006.73">symbols with the adjacent text.</tspan></text>
<path id="Vector_6" d="M776 1919V1933" stroke="#00AEEF" stroke-width="0.5"/>
<g id="Group_4">
<path id="Vector_7" d="M779.311 1933.16C779.828 1933.16 780.082 1932.96 780.268 1932.41L781.527 1928.97H787.289L788.549 1932.41C788.734 1932.96 788.988 1933.16 789.496 1933.16C790.014 1933.16 790.346 1932.84 790.346 1932.36C790.346 1932.19 790.316 1932.03 790.238 1931.83L785.658 1919.63C785.434 1919.04 785.033 1918.73 784.408 1918.73C783.803 1918.73 783.393 1919.03 783.178 1919.62L778.598 1931.84C778.52 1932.04 778.49 1932.2 778.49 1932.37C778.49 1932.85 778.803 1933.16 779.311 1933.16ZM782.006 1927.48L784.379 1920.91H784.428L786.801 1927.48H782.006Z" fill="black"/>
</g>
<path id="Vector_8" d="M792.836 1919V1933" stroke="#00AEEF" stroke-width="0.5"/>
<text id="Margins" fill="black" xml:space="preserve" style="white-space: pre" font-family="Inter" font-size="13" font-weight="bold" letter-spacing="0em"><tspan x="776" y="1952.73">Margins</tspan></text>
<text id="Leading and trailing margins on the left and right side of each symbol" fill="black" xml:space="preserve" style="white-space: pre" font-family="Inter" font-size="13" letter-spacing="0em"><tspan x="776" y="1970.73">Leading and trailing margins on the left and right side of each symbol</tspan></text>
<text id="can be adjusted by modifying the x-location of the margin guidelines." fill="black" xml:space="preserve" style="white-space: pre" font-family="Inter" font-size="13" letter-spacing="0em"><tspan x="776" y="1988.73">can be adjusted by modifying the x-location of the margin guidelines.</tspan></text>
<text id="Modifications are automatically applied proportionally to all" fill="black" xml:space="preserve" style="white-space: pre" font-family="Inter" font-size="13" letter-spacing="0em"><tspan x="776" y="2006.73">Modifications are automatically applied proportionally to all</tspan></text>
<text id="scales and weights." fill="black" xml:space="preserve" style="white-space: pre" font-family="Inter" font-size="13" letter-spacing="0em"><tspan x="776" y="2024.73">scales and weights.</tspan></text>
<g id="Group_5">
<path id="Vector_9" d="M1291.84 1934.87L1293.54 1936.57C1294.4 1937.44 1295.39 1937.38 1296.31 1936.36L1307.01 1924.57L1306.04 1923.6L1295.43 1935.28C1295.07 1935.68 1294.74 1935.77 1294.27 1935.3L1293.1 1934.14C1292.63 1933.68 1292.74 1933.34 1293.14 1932.98L1304.62 1922.18L1303.64 1921.21L1292.05 1932.1C1291.06 1933.02 1290.98 1934 1291.84 1934.87ZM1298.26 1916.67C1297.84 1917.08 1297.81 1917.66 1298.04 1918.05C1298.28 1918.41 1298.74 1918.64 1299.38 1918.48C1300.85 1918.14 1302.37 1918.08 1303.79 1919.02L1303.21 1920.47C1302.87 1921.3 1303.04 1921.89 1303.58 1922.43L1305.87 1924.75C1306.36 1925.24 1306.77 1925.26 1307.34 1925.16L1308.4 1924.96L1309.07 1925.64L1309.03 1926.19C1308.99 1926.69 1309.12 1927.07 1309.61 1927.55L1310.37 1928.29C1310.85 1928.77 1311.46 1928.8 1311.93 1928.33L1314.84 1925.41C1315.31 1924.94 1315.29 1924.35 1314.81 1923.87L1314.04 1923.11C1313.56 1922.63 1313.19 1922.47 1312.71 1922.51L1312.13 1922.56L1311.49 1921.93L1311.73 1920.8C1311.86 1920.24 1311.71 1919.8 1311.12 1919.21L1308.92 1917.02C1305.58 1913.7 1301.15 1913.78 1298.26 1916.67ZM1299.75 1917.04C1302.18 1915.27 1305.47 1915.57 1307.7 1917.8L1310.13 1920.21C1310.37 1920.44 1310.41 1920.63 1310.34 1920.97L1310.02 1922.45L1311.52 1923.94L1312.51 1923.88C1312.76 1923.87 1312.84 1923.89 1313.03 1924.08L1313.61 1924.66L1311.17 1927.1L1310.59 1926.53C1310.4 1926.33 1310.37 1926.25 1310.38 1925.99L1310.45 1925.01L1308.95 1923.53L1307.43 1923.78C1307.11 1923.85 1306.96 1923.82 1306.71 1923.59L1304.71 1921.58C1304.46 1921.35 1304.43 1921.18 1304.59 1920.81L1305.46 1918.72C1303.9 1917.27 1301.87 1916.64 1299.84 1917.24C1299.68 1917.28 1299.62 1917.15 1299.75 1917.04Z" fill="black"/>
</g>
<text id="Exporting" fill="black" xml:space="preserve" style="white-space: pre" font-family="Inter" font-size="13" font-weight="bold" letter-spacing="0em"><tspan x="1289" y="1952.73">Exporting</tspan></text>
<text id="Symbols should be outlined when exporting to ensure the" fill="black" xml:space="preserve" style="white-space: pre" font-family="Inter" font-size="13" letter-spacing="0em"><tspan x="1289" y="1970.73">Symbols should be outlined when exporting to ensure the</tspan></text>
<text id="design is preserved when submitting to Xcode." fill="black" xml:space="preserve" style="white-space: pre" font-family="Inter" font-size="13" letter-spacing="0em"><tspan x="1289" y="1988.73">design is preserved when submitting to Xcode.</tspan></text>
<text id="template-version" fill="black" xml:space="preserve" style="white-space: pre" font-family="Inter" font-size="13" letter-spacing="0em"><tspan x="2946" y="1932.73">Template v.5.0</tspan></text>
<text id="Requires Xcode 15 or greater" fill="black" xml:space="preserve" style="white-space: pre" font-family="Inter" font-size="13" letter-spacing="0em"><tspan x="2858" y="1950.73">Requires Xcode 15 or greater</tspan></text>
<text id="descriptive-name" fill="black" xml:space="preserve" style="white-space: pre" font-family="Inter" font-size="13" letter-spacing="0em"><tspan x="2890" y="1968.73">Generated from mappin</tspan></text>
<text id="Typeset at 100.0 points" fill="black" xml:space="preserve" style="white-space: pre" font-family="Inter" font-size="13" letter-spacing="0em"><tspan x="2892" y="1986.73">Typeset at 100.0 points</tspan></text>
<text id="Small" fill="black" xml:space="preserve" style="white-space: pre" font-family="Inter" font-size="13" letter-spacing="0em"><tspan x="263" y="725.727">Small</tspan></text>
<text id="Medium_2" fill="black" xml:space="preserve" style="white-space: pre" font-family="Inter" font-size="13" letter-spacing="0em"><tspan x="263" y="1155.73">Medium</tspan></text>
<text id="Large" fill="black" xml:space="preserve" style="white-space: pre" font-family="Inter" font-size="13" letter-spacing="0em"><tspan x="263" y="1585.73">Large</tspan></text>
</g>
<g id="Guides">
<g id="H-reference">
<path id="Vector_10" d="M339.994 696H342.638L368.328 628.868H369.03V625.541H367.123L339.994 696ZM350.688 671.52H385.981L385.231 669.272H351.438L350.688 671.52ZM394.12 696H396.764L369.638 625.541H368.433V628.868L394.12 696Z" fill="#27AAE1"/>
</g>
<path id="Baseline-S" d="M263 696H3036" stroke="#27AAE1" stroke-width="0.5"/>
<path id="Capline-S" d="M263 625.541H3036" stroke="#27AAE1" stroke-width="0.5"/>
<g id="H-reference_2">
<path id="Vector_11" d="M339.994 1126H342.638L368.328 1058.87H369.03V1055.54H367.123L339.994 1126ZM350.688 1101.52H385.981L385.231 1099.27H351.438L350.688 1101.52ZM394.12 1126H396.764L369.638 1055.54H368.433V1058.87L394.12 1126Z" fill="#27AAE1"/>
</g>
<path id="Baseline-M" d="M263 1126H3036" stroke="#27AAE1" stroke-width="0.5"/>
<path id="Capline-M" d="M263 1055.54H3036" stroke="#27AAE1" stroke-width="0.5"/>
<g id="H-reference_3">
<path id="Vector_12" d="M339.994 1556H342.638L368.328 1488.87H369.03V1485.54H367.123L339.994 1556ZM350.688 1531.52H385.981L385.231 1529.27H351.438L350.688 1531.52ZM394.12 1556H396.764L369.638 1485.54H368.433V1488.87L394.12 1556Z" fill="#27AAE1"/>
</g>
<path id="Baseline-L" d="M263 1556H3036" stroke="#27AAE1" stroke-width="0.5"/>
<path id="Capline-L" d="M263 1485.54H3036" stroke="#27AAE1" stroke-width="0.5"/>
<path id="left-margin-Ultralight-S" d="M529.798 600.785V720.121" stroke="#00AEEF" stroke-width="0.5"/>
<path id="right-margin-Ultralight-S" d="M589.625 600.785V720.121" stroke="#00AEEF" stroke-width="0.5"/>
<path id="left-margin-Regular-S" d="M1411.42 600.785V720.121" stroke="#00AEEF" stroke-width="0.5"/>
<path id="right-margin-Regular-S" d="M1488.27 600.785V720.121" stroke="#00AEEF" stroke-width="0.5"/>
<path id="left-margin-Black-S" d="M2893.51 600.785V720.121" stroke="#00AEEF" stroke-width="0.5"/>
<path id="right-margin-Black-S" d="M2973.29 600.785V720.121" stroke="#00AEEF" stroke-width="0.5"/>
</g>
<g id="Symbols">
<g id="Black-S">
<g id="interface-home-2--door-entrance-home-house-map-roof-round">
<path id="Vector (Stroke)" fill-rule="evenodd" clip-rule="evenodd" d="M2934.22 622.64C2933.58 621.896 2932.42 621.896 2931.78 622.64L2896.47 663.599C2894.73 665.616 2891.69 665.841 2889.67 664.103C2887.66 662.364 2887.43 659.32 2889.17 657.303L2924.48 616.344C2928.97 611.138 2937.03 611.138 2941.52 616.344L2976.83 657.303C2978.57 659.32 2978.34 662.364 2976.33 664.103C2974.31 665.841 2971.27 665.616 2969.53 663.599L2934.22 622.64Z" fill="#4F3421"/>
<path id="Rectangle 15 (Stroke)" fill-rule="evenodd" clip-rule="evenodd" d="M2934.22 622.561C2933.58 621.813 2932.42 621.813 2931.78 622.561L2909.76 648.212L2908.65 656.16C2907.53 664.117 2907.59 672.194 2908.81 680.135C2909.1 682.037 2910.74 683.441 2912.66 683.441H2953.34C2955.26 683.441 2956.9 682.037 2957.19 680.135C2958.41 672.194 2958.47 664.117 2957.35 656.16L2956.24 648.212L2934.22 622.561ZM2924.46 616.28C2928.95 611.05 2937.05 611.05 2941.54 616.28L2964.47 643.004C2965.08 643.704 2965.46 644.561 2965.59 645.475L2966.9 654.821C2968.15 663.71 2968.09 672.732 2966.72 681.603C2965.7 688.208 2960.02 693.084 2953.34 693.084H2912.66C2905.98 693.084 2900.3 688.208 2899.28 681.603C2897.91 672.732 2897.85 663.71 2899.1 654.821L2900.41 645.475C2900.54 644.561 2900.93 643.704 2901.53 643.004L2924.46 616.28Z" fill="#4F3421"/>
<path id="Vector (Stroke) (Stroke)" fill-rule="evenodd" clip-rule="evenodd" d="M2917.46 668.721C2917.46 660.137 2924.42 653.179 2933 653.179C2941.58 653.179 2948.54 660.137 2948.54 668.721V688.263C2948.54 690.926 2946.38 693.085 2943.72 693.085H2922.28C2919.62 693.085 2917.46 690.926 2917.46 688.263V668.721ZM2933 662.822C2929.74 662.822 2927.1 665.463 2927.1 668.721V683.442H2938.9V668.721C2938.9 665.463 2936.26 662.822 2933 662.822Z" fill="#4F3421"/>
</g>
</g>
<g id="Regular-S">
<g id="interface-home-2--door-entrance-home-house-map-roof-round_2">
<path id="Vector (Stroke)_2" fill-rule="evenodd" clip-rule="evenodd" d="M1452.22 622.64C1451.58 621.896 1450.42 621.896 1449.78 622.64L1414.47 663.599C1412.73 665.616 1409.69 665.841 1407.67 664.103C1405.66 662.364 1405.43 659.32 1407.17 657.303L1442.48 616.344C1446.97 611.138 1455.03 611.138 1459.52 616.344L1494.83 657.303C1496.57 659.32 1496.34 662.364 1494.33 664.103C1492.31 665.841 1489.27 665.616 1487.53 663.599L1452.22 622.64Z" fill="#4F3421"/>
<path id="Rectangle 15 (Stroke)_2" fill-rule="evenodd" clip-rule="evenodd" d="M1452.22 622.561C1451.58 621.813 1450.42 621.813 1449.78 622.561L1427.76 648.212L1426.65 656.16C1425.53 664.117 1425.59 672.194 1426.81 680.135C1427.1 682.037 1428.74 683.441 1430.66 683.441H1471.34C1473.26 683.441 1474.9 682.037 1475.19 680.135C1476.41 672.194 1476.47 664.117 1475.35 656.16L1474.24 648.212L1452.22 622.561ZM1442.46 616.28C1446.95 611.05 1455.05 611.05 1459.54 616.28L1482.47 643.004C1483.08 643.704 1483.46 644.561 1483.59 645.475L1484.9 654.821C1486.15 663.71 1486.09 672.732 1484.72 681.603C1483.7 688.208 1478.02 693.084 1471.34 693.084H1430.66C1423.98 693.084 1418.3 688.208 1417.28 681.603C1415.91 672.732 1415.85 663.71 1417.1 654.821L1418.41 645.475C1418.54 644.561 1418.93 643.704 1419.53 643.004L1442.46 616.28Z" fill="#4F3421"/>
<path id="Vector (Stroke) (Stroke)_2" fill-rule="evenodd" clip-rule="evenodd" d="M1435.46 668.721C1435.46 660.137 1442.42 653.179 1451 653.179C1459.58 653.179 1466.54 660.137 1466.54 668.721V688.263C1466.54 690.926 1464.38 693.085 1461.72 693.085H1440.28C1437.62 693.085 1435.46 690.926 1435.46 688.263V668.721ZM1451 662.822C1447.74 662.822 1445.1 665.463 1445.1 668.721V683.442H1456.9V668.721C1456.9 665.463 1454.26 662.822 1451 662.822Z" fill="#4F3421"/>
</g>
</g>
<g id="Ultralight-S">
<g id="interface-home-2--door-entrance-home-house-map-roof-round_3">
<path id="Vector (Stroke)_3" fill-rule="evenodd" clip-rule="evenodd" d="M561.217 622.64C560.576 621.896 559.424 621.896 558.783 622.64L523.473 663.599C521.735 665.616 518.69 665.841 516.673 664.103C514.657 662.364 514.431 659.32 516.17 657.303L551.479 616.344C555.967 611.138 564.033 611.138 568.521 616.344L603.83 657.303C605.569 659.32 605.344 662.364 603.327 664.103C601.31 665.841 598.265 665.616 596.527 663.599L561.217 622.64Z" fill="#4F3421"/>
<path id="Rectangle 15 (Stroke)_3" fill-rule="evenodd" clip-rule="evenodd" d="M561.22 622.561C560.579 621.813 559.422 621.813 558.781 622.561L536.763 648.212L535.649 656.16C534.534 664.117 534.588 672.194 535.811 680.135C536.104 682.037 537.741 683.441 539.665 683.441H580.336C582.26 683.441 583.897 682.037 584.19 680.135C585.412 672.194 585.467 664.117 584.352 656.16L583.238 648.212L561.22 622.561ZM551.464 616.28C555.953 611.05 564.048 611.05 568.537 616.28L591.475 643.004C592.076 643.704 592.463 644.561 592.591 645.475L593.901 654.821C595.147 663.71 595.086 672.732 593.72 681.603C592.703 688.208 587.019 693.084 580.336 693.084H539.665C532.982 693.084 527.298 688.208 526.281 681.603C524.915 672.732 524.854 663.71 526.1 654.821L527.41 645.475C527.538 644.561 527.925 643.704 528.526 643.004L551.464 616.28Z" fill="#4F3421"/>
<path id="Vector (Stroke) (Stroke)_3" fill-rule="evenodd" clip-rule="evenodd" d="M544.458 668.721C544.458 660.137 551.417 653.179 560 653.179C568.584 653.179 575.542 660.137 575.542 668.721V688.263C575.542 690.926 573.383 693.085 570.721 693.085H549.28C546.617 693.085 544.458 690.926 544.458 688.263V668.721ZM560 662.822C556.742 662.822 554.101 665.463 554.101 668.721V683.442H565.899V668.721C565.899 665.463 563.258 662.822 560 662.822Z" fill="#4F3421"/>
</g>
</g>
</g>
</g>
<defs>
<clipPath id="clip0_512_1698">
<rect width="3300" height="2200" fill="white"/>
</clipPath>
</defs>
</svg>
