<svg width="24" height="24" viewBox="0 0 24 24" fill="none" xmlns="http://www.w3.org/2000/svg">
<g clip-path="url(#clip0_688_3921)">
<path fill-rule="evenodd" clip-rule="evenodd" d="M11.991 13.4962L18.1194 19.6246C18.3237 19.8219 18.5974 19.9311 18.8814 19.9287C19.1655 19.9262 19.4372 19.8123 19.638 19.6114C19.8389 19.4105 19.9528 19.1388 19.9553 18.8548C19.9578 18.5707 19.8486 18.2971 19.6512 18.0928L13.5228 11.9644L19.6512 5.83594C19.8486 5.63162 19.9578 5.35797 19.9553 5.07392C19.9528 4.78987 19.8389 4.51816 19.638 4.3173C19.4372 4.11644 19.1655 4.00251 18.8814 4.00004C18.5974 3.99757 18.3237 4.10677 18.1194 4.3041L11.991 10.4325L5.86256 4.3041C5.65732 4.11164 5.38526 4.00658 5.10394 4.01115C4.82261 4.01572 4.5541 4.12956 4.35522 4.32858C4.15634 4.5276 4.04269 4.79619 4.03832 5.07752C4.03395 5.35885 4.13921 5.63084 4.33181 5.83594L10.4591 11.9644L4.33073 18.0928C4.22726 18.1927 4.14473 18.3122 4.08795 18.4444C4.03118 18.5766 4.00129 18.7187 4.00004 18.8626C3.99879 19.0064 4.0262 19.1491 4.08067 19.2822C4.13514 19.4154 4.21558 19.5363 4.3173 19.638C4.41902 19.7397 4.53997 19.8202 4.67311 19.8747C4.80625 19.9291 4.9489 19.9565 5.09275 19.9553C5.23659 19.954 5.37875 19.9242 5.51092 19.8674C5.64309 19.8106 5.76263 19.7281 5.86256 19.6246L11.991 13.4962Z" fill="black" stroke="black" stroke-width="0.8"/>
</g>
<defs>
<clipPath id="clip0_688_3921">
<rect width="24" height="24" fill="white"/>
</clipPath>
</defs>
</svg>
