<svg width="24" height="24" viewBox="0 0 24 24" fill="none" xmlns="http://www.w3.org/2000/svg">
<g clip-path="url(#clip0_688_3920)">
<path d="M2.03378 17.3931C2.2881 19.7701 4.19996 21.682 6.57588 21.9468C8.34064 22.1436 10.1526 22.3125 12 22.3125C13.8474 22.3125 15.6594 22.1436 17.4241 21.9468C19.8 21.682 21.7119 19.7701 21.9662 17.3931C22.154 15.6383 22.3125 13.8367 22.3125 12C22.3125 10.1633 22.154 8.36172 21.9662 6.60692C21.7119 4.22986 19.8 2.31799 17.4241 2.05315C15.6594 1.85645 13.8474 1.6875 12 1.6875C10.1526 1.6875 8.34064 1.85645 6.57588 2.05315C4.19996 2.31799 2.2881 4.22986 2.03378 6.60692C1.84604 8.36172 1.6875 10.1633 1.6875 12C1.6875 13.8367 1.84604 15.6383 2.03378 17.3931Z" stroke="black" stroke-width="2.475"/>
<path d="M7.04883 7.9375H11.001" stroke="black" stroke-width="2.475" stroke-linecap="round" stroke-linejoin="round"/>
<path d="M16.9883 16.5625H11.9613" stroke="black" stroke-width="2.475" stroke-linecap="round" stroke-linejoin="round"/>
<path d="M14.475 10.35C15.8419 10.35 16.95 9.24193 16.95 7.87502C16.95 6.50812 15.8419 5.40002 14.475 5.40002C13.1081 5.40002 12 6.50812 12 7.87502C12 9.24193 13.1081 10.35 14.475 10.35Z" stroke="black" stroke-width="2.475" stroke-linecap="round" stroke-linejoin="round"/>
<path d="M9.525 18.6C8.1581 18.6 7.05 17.4919 7.05 16.125C7.05 14.7581 8.1581 13.65 9.525 13.65C10.8919 13.65 12 14.7581 12 16.125C12 17.4919 10.8919 18.6 9.525 18.6Z" stroke="black" stroke-width="2.475" stroke-linecap="round" stroke-linejoin="round"/>
</g>
<defs>
<clipPath id="clip0_688_3920">
<rect width="24" height="24" fill="white"/>
</clipPath>
</defs>
</svg>
