<svg width="25" height="24" viewBox="0 0 25 24" fill="none" xmlns="http://www.w3.org/2000/svg">
<path d="M19.1331 13.1658C19.0883 13.1092 19.064 13.039 19.0642 12.9668V10.8903C19.064 10.8181 19.0883 10.7479 19.1331 10.6913L20.091 9.49107C20.2634 9.27535 20.3667 9.01265 20.3874 8.73731C20.4081 8.46197 20.3452 8.18678 20.2071 7.9477L19.6484 6.98087C19.5106 6.74158 19.3039 6.54943 19.0551 6.42951C18.8064 6.30958 18.5273 6.26747 18.2543 6.30867L16.7364 6.53954C16.6647 6.54961 16.5916 6.53571 16.5285 6.5L14.7301 5.46173C14.6667 5.42365 14.6181 5.36519 14.5923 5.29592L14.0324 3.87245C13.9321 3.61566 13.7567 3.39506 13.5292 3.23942C13.3017 3.08379 13.0325 3.00035 12.7568 3H11.6369C11.3613 3.00035 11.0921 3.08379 10.8646 3.23942C10.637 3.39506 10.4617 3.61566 10.3614 3.87245L9.79893 5.29592C9.77213 5.3633 9.72367 5.41984 9.66118 5.45663L7.85888 6.5C7.79586 6.5358 7.72274 6.54971 7.65097 6.53954L6.13694 6.30867C5.86391 6.26747 5.5848 6.30958 5.33609 6.42951C5.08737 6.54943 4.8806 6.74158 4.74281 6.98087L4.18414 7.9477C4.04598 8.18678 3.98316 8.46197 4.00387 8.73731C4.02457 9.01265 4.12785 9.27535 4.30021 9.49107L5.25812 10.6913C5.30294 10.7479 5.32723 10.8181 5.32699 10.8903V12.9668C5.32723 13.039 5.30294 13.1092 5.25812 13.1658L4.30021 14.3661C4.12785 14.5818 4.02457 14.8445 4.00387 15.1198C3.98316 15.3952 4.04598 15.6704 4.18414 15.9094L4.74281 16.8763C4.8806 17.1156 5.08737 17.3077 5.33609 17.4276C5.5848 17.5476 5.86391 17.5897 6.13694 17.5485L7.6548 17.3176C7.72657 17.3074 7.79968 17.3213 7.86271 17.3571L9.66118 18.3954C9.72367 18.4322 9.77213 18.4887 9.79893 18.5561L10.3589 19.9847C10.4591 20.2415 10.6345 20.4621 10.862 20.6177C11.0896 20.7734 11.3587 20.8568 11.6344 20.8571H12.7517C13.0274 20.8568 13.2966 20.7734 13.5241 20.6177C13.7516 20.4621 13.927 20.2415 14.0272 19.9847L14.5872 18.5561C14.614 18.4887 14.6625 18.4322 14.725 18.3954L16.5234 17.3571C16.5865 17.3214 16.6596 17.3075 16.7313 17.3176L18.2492 17.5485C18.5222 17.5897 18.8013 17.5476 19.05 17.4276C19.2988 17.3077 19.5055 17.1156 19.6433 16.8763L20.202 15.9094C20.3401 15.6704 20.403 15.3952 20.3823 15.1198C20.3616 14.8445 20.2583 14.5818 20.0859 14.3661L19.1331 13.1658ZM12.1956 14.7985C11.628 14.7985 11.0731 14.6302 10.6012 14.3148C10.1292 13.9995 9.76139 13.5512 9.54418 13.0268C9.32696 12.5024 9.27013 11.9254 9.38086 11.3687C9.4916 10.812 9.76493 10.3006 10.1663 9.89925C10.5677 9.49788 11.079 9.22455 11.6357 9.11382C12.1924 9.00308 12.7695 9.05992 13.2939 9.27713C13.8183 9.49435 14.2665 9.86219 14.5818 10.3341C14.8972 10.8061 15.0655 11.361 15.0655 11.9286C15.0655 12.6897 14.7632 13.4197 14.2249 13.9579C13.6867 14.4961 12.9568 14.7985 12.1956 14.7985Z" stroke="black" stroke-width="2.475"/>
</svg>
