<svg width="344" height="343" viewBox="0 0 344 343" fill="none" xmlns="http://www.w3.org/2000/svg">
<path d="M171.814 136.882C139.343 136.882 108.517 160.242 112.394 192.481C112.695 194.986 113.055 197.613 113.472 200.409C114.716 208.727 121.969 214.772 130.38 214.772H139.993L147.007 258.318C148.989 270.627 159.615 279.677 172.085 279.677C184.553 279.677 195.177 270.627 197.159 258.318L204.173 214.772H213.91C222.267 214.772 229.5 208.808 230.774 200.551C231.181 197.913 231.533 195.422 231.824 193.032C235.801 160.561 204.525 136.882 171.814 136.882Z" stroke="white" stroke-width="24.8004" stroke-linejoin="round"/>
<path d="M172.118 132.557C191.237 132.557 206.734 117.058 206.734 97.9397C206.734 78.8214 191.237 63.323 172.118 63.323C153 63.323 137.501 78.8214 137.501 97.9397C137.501 117.058 153 132.557 172.118 132.557Z" stroke="white" stroke-width="24.8004" stroke-linecap="round" stroke-linejoin="round"/>
</svg>
