<svg width="26" height="26" viewBox="0 0 26 26" fill="none" xmlns="http://www.w3.org/2000/svg">
<path d="M12.75 10.6166C10.7121 10.6166 8.77744 12.0827 9.02077 14.106C9.03968 14.2632 9.06224 14.4281 9.08845 14.6036C9.16647 15.1256 9.62169 15.505 10.1496 15.505H10.7529L11.1931 18.238C11.3175 19.0105 11.9844 19.5785 12.767 19.5785C13.5495 19.5785 14.2163 19.0105 14.3407 18.238L14.7809 15.505H15.392C15.9165 15.505 16.3704 15.1307 16.4504 14.6125C16.4759 14.4469 16.498 14.2906 16.5163 14.1406C16.7659 12.1027 14.803 10.6166 12.75 10.6166Z" stroke="white" stroke-width="1.62944" stroke-linejoin="round"/>
<path d="M12.769 10.3452C13.9689 10.3452 14.9415 9.37247 14.9415 8.17257C14.9415 6.97269 13.9689 6 12.769 6C11.5691 6 10.5964 6.97269 10.5964 8.17257C10.5964 9.37247 11.5691 10.3452 12.769 10.3452Z" stroke="white" stroke-width="1.62944" stroke-linecap="round" stroke-linejoin="round"/>
</svg>
