<svg width="344" height="343" viewBox="0 0 344 343" fill="none" xmlns="http://www.w3.org/2000/svg">
<path d="M181.453 132.487C198.689 132.487 212.662 118.514 212.662 101.278C212.662 84.0411 198.689 70.068 181.453 70.068C164.215 70.068 150.242 84.0411 150.242 101.278C150.242 118.514 164.215 132.487 181.453 132.487Z" stroke="white" stroke-width="24.3435" stroke-linecap="round" stroke-linejoin="round"/>
<path d="M181.451 132.488V178.679C181.451 187.641 188.737 194.74 197.671 195.455C232.791 198.268 245.061 213.346 256.042 272.932" stroke="white" stroke-width="24.3435" stroke-linecap="round" stroke-linejoin="round"/>
<path d="M142.442 163.693C132.584 163.703 122.911 166.382 114.451 171.445C105.992 176.507 99.0599 183.766 94.3917 192.449C89.7234 201.133 87.4927 210.918 87.9362 220.767C88.3796 230.615 91.4807 240.161 96.9106 248.391C102.34 256.619 109.896 263.226 118.777 267.507C127.657 271.789 137.531 273.587 147.352 272.711C157.171 271.834 166.571 268.316 174.554 262.531C182.535 256.744 188.803 248.905 192.69 239.844" stroke="white" stroke-width="24.3435" stroke-linecap="round" stroke-linejoin="round"/>
<path d="M206.28 77.8067H159.434V124.654H206.28V77.8067Z" fill="white"/>
</svg>
