<svg width="16" height="16" viewBox="0 0 16 16" fill="none" xmlns="http://www.w3.org/2000/svg">
<path d="M8.60775 5.50176C9.71156 5.50176 10.6064 4.60694 10.6064 3.50314C10.6064 2.39933 9.71156 1.50452 8.60775 1.50452C7.50394 1.50452 6.60913 2.39933 6.60913 3.50314C6.60913 4.60694 7.50394 5.50176 8.60775 5.50176Z" stroke="white" stroke-width="1.55892" stroke-linecap="round" stroke-linejoin="round"/>
<path d="M8.60791 5.50183V8.45979C8.60791 9.03377 9.07449 9.48836 9.64664 9.53416C11.8956 9.71419 12.6814 10.6798 13.3846 14.4956" stroke="white" stroke-width="1.55892" stroke-linecap="round" stroke-linejoin="round"/>
<path d="M6.10952 7.50012C5.47817 7.50076 4.85876 7.67228 4.31701 7.99649C3.77526 8.3207 3.33136 8.7855 3.03242 9.34159C2.73347 9.89768 2.59062 10.5243 2.61902 11.155C2.64742 11.7857 2.84601 12.397 3.19373 12.924C3.54144 13.451 4.02531 13.874 4.59401 14.1482C5.16271 14.4224 5.79503 14.5376 6.42388 14.4815C7.05274 14.4253 7.65468 14.2001 8.16585 13.8295C8.67702 13.459 9.07837 12.957 9.3273 12.3768" stroke="white" stroke-width="1.55892" stroke-linecap="round" stroke-linejoin="round"/>
</svg>
