<svg width="34" height="34" viewBox="0 0 34 34" fill="none" xmlns="http://www.w3.org/2000/svg">
<path d="M7.77326 27.7692L7.2399 26.1024L7.2399 26.1024L7.77326 27.7692ZM5.32178 28.4866L5.62933 30.2094L5.62933 30.2094L5.32178 28.4866ZM11.5718 26.5817L11.1478 24.8838L11.1478 24.8838L11.5718 26.5817ZM7.42568 7.05929L7.86318 8.75372L7.86318 8.75372L7.42568 7.05929ZM11.976 6.55224L12.3882 4.85146C12.3755 4.8484 12.3629 4.84548 12.3502 4.8427L11.976 6.55224ZM4.92289 8.01821L4.20869 6.42058L4.20869 6.42058L4.92289 8.01821ZM23.9325 7.05929L23.495 5.36485L23.495 5.36485L23.9325 7.05929ZM26.8802 6.49513L26.7291 4.75167L26.7291 4.75167L26.8802 6.49513ZM20.8421 8.28175L20.1272 6.68444L20.1272 6.68444L20.8421 8.28175ZM19.5787 8.39453L19.1665 10.0953L19.5787 8.39453ZM18.1622 29.4863C19.1106 29.6727 20.0305 29.0551 20.2169 28.1067C20.4033 27.1584 19.7857 26.2385 18.8373 26.052L18.1622 29.4863ZM12.3836 26.5669L12.7212 24.8498L12.7212 24.8498L12.3836 26.5669ZM26.7329 14.183C26.7329 15.1495 27.5164 15.933 28.4829 15.933C29.4494 15.933 30.2329 15.1495 30.2329 14.183H26.7329ZM7.2399 26.1024C6.26001 26.416 5.64812 26.6507 5.01423 26.7638L5.62933 30.2094C6.56787 30.0418 7.56753 29.6724 8.30662 29.4359L7.2399 26.1024ZM11.1478 24.8838C9.87722 25.2011 8.44504 25.7168 7.2399 26.1024L8.30662 29.4359C9.7024 28.9893 10.8706 28.5605 11.9957 28.2796L11.1478 24.8838ZM7.86318 8.75372C8.46848 8.59743 9.20693 8.41831 9.93279 8.30972C10.6967 8.19545 11.2682 8.18875 11.6019 8.26178L12.3502 4.8427C11.3772 4.62977 10.2909 4.7172 9.41497 4.84824C8.50098 4.98497 7.61757 5.20235 6.98818 5.36485L7.86318 8.75372ZM5.63709 9.61584C6.51959 9.22133 7.25573 8.91056 7.86318 8.75372L6.98818 5.36485C6.05316 5.60628 5.05869 6.0406 4.20869 6.42058L5.63709 9.61584ZM1.97266 9.86592V26.8771H5.47266V9.86592H1.97266ZM4.20869 6.42058C2.85374 7.02629 1.97266 8.37476 1.97266 9.86592H5.47266C5.47266 9.76216 5.53598 9.66104 5.63709 9.61584L4.20869 6.42058ZM5.01424 26.7638C5.07974 26.7522 5.17526 26.7547 5.27543 26.7908C5.36989 26.8249 5.42852 26.8741 5.45678 26.9045C5.4835 26.9332 5.48602 26.9473 5.48178 26.936C5.47788 26.9255 5.47266 26.9047 5.47266 26.8771H1.97266C1.97266 27.7455 2.28002 28.628 2.89377 29.288C3.53914 29.982 4.52061 30.4073 5.62933 30.2094L5.01424 26.7638ZM24.37 8.75372C25.1585 8.55014 26.1483 8.31514 27.0314 8.23859L26.7291 4.75167C25.5299 4.85563 24.2934 5.15871 23.495 5.36485L24.37 8.75372ZM21.557 9.87907C22.6815 9.37574 23.6034 8.95167 24.37 8.75372L23.495 5.36485C22.3699 5.65537 21.1168 6.2415 20.1272 6.68444L21.557 9.87907ZM27.0314 8.23859C26.9922 8.24198 26.9313 8.23665 26.8658 8.21C26.8036 8.18468 26.7635 8.15092 26.7428 8.12828C26.7073 8.08964 26.7329 8.0944 26.7329 8.16187H30.2329C30.2329 6.50637 28.9733 4.55711 26.7291 4.75167L27.0314 8.23859ZM11.5639 8.25302L19.1665 10.0953L19.9908 6.69375L12.3882 4.85146L11.5639 8.25302ZM18.8373 26.052L12.7212 24.8498L12.0461 28.284L18.1622 29.4863L18.8373 26.052ZM26.7329 8.16187V14.183H30.2329V8.16187H26.7329ZM20.1272 6.68444C20.0927 6.69987 20.0454 6.70698 19.9908 6.69375L19.1665 10.0953C19.9567 10.2868 20.7981 10.2187 21.557 9.87906L20.1272 6.68444ZM11.9957 28.2796C11.9884 28.2814 12.0041 28.2758 12.0461 28.284L12.7212 24.8498C12.2254 24.7523 11.6868 24.7492 11.1478 24.8838L11.9957 28.2796Z" fill="black"/>
<path d="M20.229 18V8.44227C20.0124 8.46239 19.7925 8.44649 19.5781 8.39456L11.9911 6.55603C11.9808 6.63828 11.9756 6.72178 11.9756 6.80613V26.5395C12.126 26.5405 12.2764 26.5597 12.4237 26.5954L15.9616 27.2977" stroke="black" stroke-width="3.5" stroke-linecap="round" stroke-linejoin="round"/>
<path d="M26.9541 19V29" stroke="black" stroke-width="3.5" stroke-linecap="round" stroke-linejoin="round"/>
<path d="M21.9541 24H31.9541" stroke="black" stroke-width="3.5" stroke-linecap="round" stroke-linejoin="round"/>
</svg>
