<svg width="24" height="24" viewBox="0 0 24 24" fill="none" xmlns="http://www.w3.org/2000/svg">
<path d="M20.5508 12L3.00006 12" stroke="black" stroke-width="2.475" stroke-linecap="round" stroke-linejoin="round"/>
<path d="M9.78428 6.95724C10.3129 6.5241 10.3904 5.74439 9.95724 5.21572C9.5241 4.68705 8.74439 4.60961 8.21572 5.04276L9.78428 6.95724ZM3 12L2.0392 11.2201C1.67027 11.6746 1.67027 12.3254 2.0392 12.7799L3 12ZM8.21572 18.9572C8.74439 19.3904 9.5241 19.3129 9.95724 18.7843C10.3904 18.2556 10.3129 17.4759 9.78428 17.0428L8.21572 18.9572ZM8.21572 5.04276C5.52153 7.25014 4.14638 8.62419 2.0392 11.2201L3.9608 12.7799C5.95785 10.3197 7.2135 9.06351 9.78428 6.95724L8.21572 5.04276ZM9.78428 17.0428C7.2135 14.9365 5.95785 13.6803 3.9608 11.2201L2.0392 12.7799C4.14638 15.3758 5.52153 16.7499 8.21572 18.9572L9.78428 17.0428Z" fill="black"/>
</svg>
