<svg width="13" height="18" viewBox="0 0 13 18" fill="none" xmlns="http://www.w3.org/2000/svg">
<path d="M6.3 18C6.3 18 0 9.783 0 6.3C-1.23281e-08 5.47267 0.162954 4.65345 0.479559 3.88909C0.796164 3.12474 1.26022 2.43024 1.84523 1.84523C2.43024 1.26022 3.12474 0.796164 3.88909 0.479559C4.65345 0.162954 5.47267 0 6.3 0C7.12733 0 7.94655 0.162954 8.71091 0.479559C9.47526 0.796164 10.1698 1.26022 10.7548 1.84523C11.3398 2.43024 11.8038 3.12474 12.1204 3.88909C12.437 4.65345 12.6 5.47267 12.6 6.3C12.6 9.783 6.3 18 6.3 18ZM6.3 8.1C6.77739 8.1 7.23523 7.91036 7.57279 7.57279C7.91036 7.23523 8.1 6.77739 8.1 6.3C8.1 5.82261 7.91036 5.36477 7.57279 5.02721C7.23523 4.68964 6.77739 4.5 6.3 4.5C5.82261 4.5 5.36477 4.68964 5.02721 5.02721C4.68964 5.36477 4.5 5.82261 4.5 6.3C4.5 6.77739 4.68964 7.23523 5.02721 7.57279C5.36477 7.91036 5.82261 8.1 6.3 8.1Z" fill="#4F3421"/>
</svg>
