<svg width="16" height="16" viewBox="0 0 16 16" fill="none" xmlns="http://www.w3.org/2000/svg">
<g clip-path="url(#clip0_1214_3523)">
<path d="M7.99591 1.58252C4.45749 1.58252 1.58252 4.45749 1.58252 7.99591C1.58252 11.5343 4.45749 14.4093 7.99591 14.4093C11.5343 14.4093 14.4093 11.5343 14.4093 7.99591C14.4093 4.45749 11.5425 1.58252 7.99591 1.58252ZM10.0846 10.1009C9.78151 10.404 9.29825 10.404 8.99519 10.1009L7.45532 8.56108C7.30789 8.41364 7.22598 8.21706 7.22598 8.02049V5.45677C7.22598 5.03084 7.56999 4.68683 7.99591 4.68683C8.42183 4.68683 8.76585 5.03084 8.76585 5.45677V7.70104L10.0764 9.01157C10.3794 9.31463 10.3794 9.79789 10.0764 10.1009H10.0846Z" fill="#F6C547"/>
</g>
<defs>
<clipPath id="clip0_1214_3523">
<rect width="12.835" height="12.835" fill="white" transform="translate(1.58252 1.58252)"/>
</clipPath>
</defs>
</svg>
