<svg width="3300" height="2200" viewBox="0 0 3300 2200" fill="none" xmlns="http://www.w3.org/2000/svg">
<g id="MapTB" clip-path="url(#clip0_512_1698)">
<g id="Notes">
<path id="artboard" d="M3300 0H0V2200H3300V0Z" fill="white"/>
<path id="Vector" d="M263 292H3036" stroke="black" stroke-width="0.5"/>
<text id="Weight/Scale Variations" fill="black" xml:space="preserve" style="white-space: pre" font-family="Inter" font-size="13" font-weight="bold" letter-spacing="0em"><tspan x="263" y="321.727">Weight/Scale Variations</tspan></text>
<text id="Ultralight" fill="black" xml:space="preserve" style="white-space: pre" font-family="Inter" font-size="13" letter-spacing="0em"><tspan x="531.211" y="321.727">Ultralight</tspan></text>
<text id="Thin" fill="black" xml:space="preserve" style="white-space: pre" font-family="Inter" font-size="13" letter-spacing="0em"><tspan x="842.922" y="321.727">Thin</tspan></text>
<text id="Light" fill="black" xml:space="preserve" style="white-space: pre" font-family="Inter" font-size="13" letter-spacing="0em"><tspan x="1137.63" y="321.727">Light</tspan></text>
<text id="Regular" fill="black" xml:space="preserve" style="white-space: pre" font-family="Inter" font-size="13" letter-spacing="0em"><tspan x="1426.34" y="321.727">Regular</tspan></text>
<text id="Medium" fill="black" xml:space="preserve" style="white-space: pre" font-family="Inter" font-size="13" letter-spacing="0em"><tspan x="1721.56" y="321.727">Medium</tspan></text>
<text id="Semibold" fill="black" xml:space="preserve" style="white-space: pre" font-family="Inter" font-size="13" letter-spacing="0em"><tspan x="2014.27" y="321.727">Semibold</tspan></text>
<text id="Bold" fill="black" xml:space="preserve" style="white-space: pre" font-family="Inter" font-size="13" letter-spacing="0em"><tspan x="2325.98" y="321.727">Bold</tspan></text>
<text id="Heavy" fill="black" xml:space="preserve" style="white-space: pre" font-family="Inter" font-size="13" letter-spacing="0em"><tspan x="2617.19" y="321.727">Heavy</tspan></text>
<text id="Black" fill="black" xml:space="preserve" style="white-space: pre" font-family="Inter" font-size="13" letter-spacing="0em"><tspan x="2916.4" y="321.727">Black</tspan></text>
<path id="Vector_2" d="M263 1903H3036" stroke="black" stroke-width="0.5"/>
<g id="Group">
<path id="Vector_3" d="M272.248 1933.83C276.555 1933.83 280.139 1930.26 280.139 1925.95C280.139 1921.64 276.545 1918.07 272.238 1918.07C267.941 1918.07 264.367 1921.64 264.367 1925.95C264.367 1930.26 267.951 1933.83 272.248 1933.83ZM272.248 1932.35C268.703 1932.35 265.871 1929.5 265.871 1925.95C265.871 1922.39 268.693 1919.55 272.238 1919.55C275.793 1919.55 278.645 1922.39 278.645 1925.95C278.645 1929.5 275.803 1932.35 272.248 1932.35ZM268.654 1925.95C268.654 1926.38 268.957 1926.67 269.406 1926.67H271.506V1928.79C271.506 1929.23 271.799 1929.53 272.229 1929.53C272.678 1929.53 272.971 1929.23 272.971 1928.79V1926.67H275.09C275.529 1926.67 275.832 1926.38 275.832 1925.95C275.832 1925.51 275.529 1925.21 275.09 1925.21H272.971V1923.1C272.971 1922.65 272.678 1922.35 272.229 1922.35C271.799 1922.35 271.506 1922.65 271.506 1923.1V1925.21H269.406C268.957 1925.21 268.654 1925.51 268.654 1925.95Z" fill="black"/>
</g>
<g id="Group_2">
<path id="Vector_4" d="M293.215 1935.91C298.664 1935.91 303.176 1931.39 303.176 1925.95C303.176 1920.5 298.654 1915.99 293.205 1915.99C287.766 1915.99 283.254 1920.5 283.254 1925.95C283.254 1931.39 287.775 1935.91 293.215 1935.91ZM293.215 1934.25C288.605 1934.25 284.924 1930.56 284.924 1925.95C284.924 1921.34 288.596 1917.65 293.205 1917.65C297.814 1917.65 301.516 1921.34 301.516 1925.95C301.516 1930.56 297.824 1934.25 293.215 1934.25ZM288.684 1925.95C288.684 1926.43 289.016 1926.75 289.514 1926.75H292.385V1929.63C292.385 1930.12 292.717 1930.46 293.195 1930.46C293.684 1930.46 294.025 1930.13 294.025 1929.63V1926.75H296.906C297.395 1926.75 297.736 1926.43 297.736 1925.95C297.736 1925.46 297.395 1925.12 296.906 1925.12H294.025V1922.25C294.025 1921.75 293.684 1921.41 293.195 1921.41C292.717 1921.41 292.385 1921.75 292.385 1922.25V1925.12H289.514C289.016 1925.12 288.684 1925.46 288.684 1925.95Z" fill="black"/>
</g>
<g id="Group_3">
<path id="Vector_5" d="M319.895 1938.66C326.857 1938.66 332.619 1932.9 332.619 1925.95C332.619 1918.99 326.848 1913.22 319.885 1913.22C312.932 1913.22 307.18 1918.99 307.18 1925.95C307.18 1932.9 312.941 1938.66 319.895 1938.66ZM319.895 1936.85C313.859 1936.85 309.006 1931.98 309.006 1925.95C309.006 1919.9 313.85 1915.05 319.885 1915.05C325.93 1915.05 330.793 1919.9 330.793 1925.95C330.793 1931.98 325.939 1936.85 319.895 1936.85ZM314.123 1925.95C314.123 1926.47 314.494 1926.83 315.041 1926.83H318.986V1930.78C318.986 1931.32 319.357 1931.7 319.875 1931.7C320.412 1931.7 320.783 1931.33 320.783 1930.78V1926.83H324.738C325.275 1926.83 325.656 1926.47 325.656 1925.95C325.656 1925.4 325.285 1925.03 324.738 1925.03H320.783V1921.09C320.783 1920.54 320.412 1920.16 319.875 1920.16C319.357 1920.16 318.986 1920.54 318.986 1921.09V1925.03H315.041C314.494 1925.03 314.123 1925.4 314.123 1925.95Z" fill="black"/>
</g>
<text id="Design Variations" fill="black" xml:space="preserve" style="white-space: pre" font-family="Inter" font-size="13" font-weight="bold" letter-spacing="0em"><tspan x="263" y="1952.73">Design Variations</tspan></text>
<text id="Symbols are supported in up to nine weights and three scales." fill="black" xml:space="preserve" style="white-space: pre" font-family="Inter" font-size="13" letter-spacing="0em"><tspan x="263" y="1970.73">Symbols are supported in up to nine weights and three scales.</tspan></text>
<text id="For optimal layout with text and other symbols, vertically align" fill="black" xml:space="preserve" style="white-space: pre" font-family="Inter" font-size="13" letter-spacing="0em"><tspan x="263" y="1988.73">For optimal layout with text and other symbols, vertically align</tspan></text>
<text id="symbols with the adjacent text." fill="black" xml:space="preserve" style="white-space: pre" font-family="Inter" font-size="13" letter-spacing="0em"><tspan x="263" y="2006.73">symbols with the adjacent text.</tspan></text>
<path id="Vector_6" d="M776 1919V1933" stroke="#00AEEF" stroke-width="0.5"/>
<g id="Group_4">
<path id="Vector_7" d="M779.311 1933.16C779.828 1933.16 780.082 1932.96 780.268 1932.41L781.527 1928.97H787.289L788.549 1932.41C788.734 1932.96 788.988 1933.16 789.496 1933.16C790.014 1933.16 790.346 1932.84 790.346 1932.36C790.346 1932.19 790.316 1932.03 790.238 1931.83L785.658 1919.63C785.434 1919.04 785.033 1918.73 784.408 1918.73C783.803 1918.73 783.393 1919.03 783.178 1919.62L778.598 1931.84C778.52 1932.04 778.49 1932.2 778.49 1932.37C778.49 1932.85 778.803 1933.16 779.311 1933.16ZM782.006 1927.48L784.379 1920.91H784.428L786.801 1927.48H782.006Z" fill="black"/>
</g>
<path id="Vector_8" d="M792.836 1919V1933" stroke="#00AEEF" stroke-width="0.5"/>
<text id="Margins" fill="black" xml:space="preserve" style="white-space: pre" font-family="Inter" font-size="13" font-weight="bold" letter-spacing="0em"><tspan x="776" y="1952.73">Margins</tspan></text>
<text id="Leading and trailing margins on the left and right side of each symbol" fill="black" xml:space="preserve" style="white-space: pre" font-family="Inter" font-size="13" letter-spacing="0em"><tspan x="776" y="1970.73">Leading and trailing margins on the left and right side of each symbol</tspan></text>
<text id="can be adjusted by modifying the x-location of the margin guidelines." fill="black" xml:space="preserve" style="white-space: pre" font-family="Inter" font-size="13" letter-spacing="0em"><tspan x="776" y="1988.73">can be adjusted by modifying the x-location of the margin guidelines.</tspan></text>
<text id="Modifications are automatically applied proportionally to all" fill="black" xml:space="preserve" style="white-space: pre" font-family="Inter" font-size="13" letter-spacing="0em"><tspan x="776" y="2006.73">Modifications are automatically applied proportionally to all</tspan></text>
<text id="scales and weights." fill="black" xml:space="preserve" style="white-space: pre" font-family="Inter" font-size="13" letter-spacing="0em"><tspan x="776" y="2024.73">scales and weights.</tspan></text>
<g id="Group_5">
<path id="Vector_9" d="M1291.84 1934.87L1293.54 1936.57C1294.4 1937.44 1295.39 1937.38 1296.31 1936.36L1307.01 1924.57L1306.04 1923.6L1295.43 1935.28C1295.07 1935.68 1294.74 1935.77 1294.27 1935.3L1293.1 1934.14C1292.63 1933.68 1292.74 1933.34 1293.14 1932.98L1304.62 1922.18L1303.64 1921.21L1292.05 1932.1C1291.06 1933.02 1290.98 1934 1291.84 1934.87ZM1298.26 1916.67C1297.84 1917.08 1297.81 1917.66 1298.04 1918.05C1298.28 1918.41 1298.74 1918.64 1299.38 1918.48C1300.85 1918.14 1302.37 1918.08 1303.79 1919.02L1303.21 1920.47C1302.87 1921.3 1303.04 1921.89 1303.58 1922.43L1305.87 1924.75C1306.36 1925.24 1306.77 1925.26 1307.34 1925.16L1308.4 1924.96L1309.07 1925.64L1309.03 1926.19C1308.99 1926.69 1309.12 1927.07 1309.61 1927.55L1310.37 1928.29C1310.85 1928.77 1311.46 1928.8 1311.93 1928.33L1314.84 1925.41C1315.31 1924.94 1315.29 1924.35 1314.81 1923.87L1314.04 1923.11C1313.56 1922.63 1313.19 1922.47 1312.71 1922.51L1312.13 1922.56L1311.49 1921.93L1311.73 1920.8C1311.86 1920.24 1311.71 1919.8 1311.12 1919.21L1308.92 1917.02C1305.58 1913.7 1301.15 1913.78 1298.26 1916.67ZM1299.75 1917.04C1302.18 1915.27 1305.47 1915.57 1307.7 1917.8L1310.13 1920.21C1310.37 1920.44 1310.41 1920.63 1310.34 1920.97L1310.02 1922.45L1311.52 1923.94L1312.51 1923.88C1312.76 1923.87 1312.84 1923.89 1313.03 1924.08L1313.61 1924.66L1311.17 1927.1L1310.59 1926.53C1310.4 1926.33 1310.37 1926.25 1310.38 1925.99L1310.45 1925.01L1308.95 1923.53L1307.43 1923.78C1307.11 1923.85 1306.96 1923.82 1306.71 1923.59L1304.71 1921.58C1304.46 1921.35 1304.43 1921.18 1304.59 1920.81L1305.46 1918.72C1303.9 1917.27 1301.87 1916.64 1299.84 1917.24C1299.68 1917.28 1299.62 1917.15 1299.75 1917.04Z" fill="black"/>
</g>
<text id="Exporting" fill="black" xml:space="preserve" style="white-space: pre" font-family="Inter" font-size="13" font-weight="bold" letter-spacing="0em"><tspan x="1289" y="1952.73">Exporting</tspan></text>
<text id="Symbols should be outlined when exporting to ensure the" fill="black" xml:space="preserve" style="white-space: pre" font-family="Inter" font-size="13" letter-spacing="0em"><tspan x="1289" y="1970.73">Symbols should be outlined when exporting to ensure the</tspan></text>
<text id="design is preserved when submitting to Xcode." fill="black" xml:space="preserve" style="white-space: pre" font-family="Inter" font-size="13" letter-spacing="0em"><tspan x="1289" y="1988.73">design is preserved when submitting to Xcode.</tspan></text>
<text id="template-version" fill="black" xml:space="preserve" style="white-space: pre" font-family="Inter" font-size="13" letter-spacing="0em"><tspan x="2946" y="1932.73">Template v.5.0</tspan></text>
<text id="Requires Xcode 15 or greater" fill="black" xml:space="preserve" style="white-space: pre" font-family="Inter" font-size="13" letter-spacing="0em"><tspan x="2858" y="1950.73">Requires Xcode 15 or greater</tspan></text>
<text id="descriptive-name" fill="black" xml:space="preserve" style="white-space: pre" font-family="Inter" font-size="13" letter-spacing="0em"><tspan x="2890" y="1968.73">Generated from mappin</tspan></text>
<text id="Typeset at 100.0 points" fill="black" xml:space="preserve" style="white-space: pre" font-family="Inter" font-size="13" letter-spacing="0em"><tspan x="2892" y="1986.73">Typeset at 100.0 points</tspan></text>
<text id="Small" fill="black" xml:space="preserve" style="white-space: pre" font-family="Inter" font-size="13" letter-spacing="0em"><tspan x="263" y="725.727">Small</tspan></text>
<text id="Medium_2" fill="black" xml:space="preserve" style="white-space: pre" font-family="Inter" font-size="13" letter-spacing="0em"><tspan x="263" y="1155.73">Medium</tspan></text>
<text id="Large" fill="black" xml:space="preserve" style="white-space: pre" font-family="Inter" font-size="13" letter-spacing="0em"><tspan x="263" y="1585.73">Large</tspan></text>
</g>
<g id="Guides">
<g id="H-reference">
<path id="Vector_10" d="M339.994 696H342.638L368.328 628.868H369.03V625.541H367.123L339.994 696ZM350.688 671.52H385.981L385.231 669.272H351.438L350.688 671.52ZM394.12 696H396.764L369.638 625.541H368.433V628.868L394.12 696Z" fill="#27AAE1"/>
</g>
<path id="Baseline-S" d="M263 696H3036" stroke="#27AAE1" stroke-width="0.5"/>
<path id="Capline-S" d="M263 625.541H3036" stroke="#27AAE1" stroke-width="0.5"/>
<g id="H-reference_2">
<path id="Vector_11" d="M339.994 1126H342.638L368.328 1058.87H369.03V1055.54H367.123L339.994 1126ZM350.688 1101.52H385.981L385.231 1099.27H351.438L350.688 1101.52ZM394.12 1126H396.764L369.638 1055.54H368.433V1058.87L394.12 1126Z" fill="#27AAE1"/>
</g>
<path id="Baseline-M" d="M263 1126H3036" stroke="#27AAE1" stroke-width="0.5"/>
<path id="Capline-M" d="M263 1055.54H3036" stroke="#27AAE1" stroke-width="0.5"/>
<g id="H-reference_3">
<path id="Vector_12" d="M339.994 1556H342.638L368.328 1488.87H369.03V1485.54H367.123L339.994 1556ZM350.688 1531.52H385.981L385.231 1529.27H351.438L350.688 1531.52ZM394.12 1556H396.764L369.638 1485.54H368.433V1488.87L394.12 1556Z" fill="#27AAE1"/>
</g>
<path id="Baseline-L" d="M263 1556H3036" stroke="#27AAE1" stroke-width="0.5"/>
<path id="Capline-L" d="M263 1485.54H3036" stroke="#27AAE1" stroke-width="0.5"/>
<path id="left-margin-Ultralight-S" d="M529.798 600.785V720.121" stroke="#00AEEF" stroke-width="0.5"/>
<path id="right-margin-Ultralight-S" d="M589.625 600.785V720.121" stroke="#00AEEF" stroke-width="0.5"/>
<path id="left-margin-Regular-S" d="M1411.42 600.785V720.121" stroke="#00AEEF" stroke-width="0.5"/>
<path id="right-margin-Regular-S" d="M1488.27 600.785V720.121" stroke="#00AEEF" stroke-width="0.5"/>
<path id="left-margin-Black-S" d="M2893.51 600.785V720.121" stroke="#00AEEF" stroke-width="0.5"/>
<path id="right-margin-Black-S" d="M2973.29 600.785V720.121" stroke="#00AEEF" stroke-width="0.5"/>
</g>
<g id="Symbols">
<g id="Black-S">
<g id="interface-user-multiple--close-geometric-human-multiple-person-up-user">
<g id="Group 201">
<path id="Vector (Stroke)" fill-rule="evenodd" clip-rule="evenodd" d="M2949.38 619.503C2950.33 617.013 2953.11 615.762 2955.6 616.708C2963.22 619.604 2968.65 626.98 2968.65 635.636C2968.65 646.816 2959.59 655.879 2948.41 655.879C2945.75 655.879 2943.59 653.72 2943.59 651.057C2943.59 648.394 2945.75 646.236 2948.41 646.236C2954.27 646.236 2959.01 641.49 2959.01 635.636C2959.01 631.115 2956.18 627.244 2952.18 625.722C2949.69 624.776 2948.43 621.992 2949.38 619.503Z" fill="#4F3421"/>
<path id="Vector (Stroke)_2" fill-rule="evenodd" clip-rule="evenodd" d="M2922.46 619.388C2915.89 619.388 2910.57 624.713 2910.57 631.283C2910.57 637.852 2915.89 643.178 2922.46 643.178C2929.03 643.178 2934.36 637.852 2934.36 631.283C2934.36 624.713 2929.03 619.388 2922.46 619.388ZM2900.92 631.283C2900.92 619.388 2910.56 609.745 2922.46 609.745C2934.36 609.745 2944 619.388 2944 631.283C2944 643.178 2934.36 652.821 2922.46 652.821C2910.56 652.821 2900.92 643.178 2900.92 631.283Z" fill="#4F3421"/>
<path id="Subtract (Stroke)" fill-rule="evenodd" clip-rule="evenodd" d="M2922.45 668.576C2913.96 668.576 2906.07 671.125 2899.51 675.5C2898.29 676.307 2897.9 677.069 2897.77 677.548C2897.63 678.055 2897.66 678.688 2898.01 679.418C2898.74 680.928 2900.8 682.615 2904 682.615H2940.9C2944.1 682.615 2946.16 680.928 2946.88 679.418C2947.23 678.688 2947.26 678.055 2947.13 677.548C2946.99 677.069 2946.6 676.307 2945.39 675.5C2938.83 671.125 2930.94 668.576 2922.45 668.576ZM2894.16 667.474C2902.26 662.078 2912 658.933 2922.45 658.933C2932.9 658.933 2942.64 662.078 2950.74 667.474C2953.61 669.389 2955.6 671.983 2956.43 675.004C2957.25 677.999 2956.81 681.013 2955.58 683.589C2953.13 688.693 2947.52 692.258 2940.9 692.258H2904C2897.38 692.258 2891.77 688.693 2889.32 683.589C2888.08 681.013 2887.65 677.999 2888.47 675.004C2889.3 671.983 2891.28 669.389 2894.16 667.474Z" fill="#4F3421"/>
<path id="Subtract (Stroke)_2" fill-rule="evenodd" clip-rule="evenodd" d="M2958.44 667.193C2959.5 664.751 2962.34 663.633 2964.78 664.696C2967.37 665.82 2969.83 667.166 2972.15 668.709C2974.86 670.519 2976.76 672.983 2977.55 675.869C2978.33 678.728 2977.92 681.601 2976.74 684.049C2974.42 688.896 2969.1 692.258 2962.86 692.258H2939.48C2936.81 692.258 2934.65 690.099 2934.65 687.436C2934.65 684.774 2936.81 682.615 2939.48 682.615H2962.86C2965.68 682.615 2967.45 681.132 2968.05 679.878C2968.34 679.276 2968.35 678.784 2968.25 678.413C2968.15 678.069 2967.86 677.437 2966.8 676.735C2964.95 675.504 2962.99 674.432 2960.94 673.538C2958.49 672.475 2957.38 669.634 2958.44 667.193Z" fill="#4F3421"/>
</g>
</g>
</g>
<g id="Regular-S">
<g id="interface-user-multiple--close-geometric-human-multiple-person-up-user_2">
<g id="Group 201_2">
<path id="Vector (Stroke)_3" fill-rule="evenodd" clip-rule="evenodd" d="M1467.38 619.503C1468.33 617.013 1471.11 615.762 1473.6 616.708C1481.22 619.604 1486.65 626.98 1486.65 635.636C1486.65 646.816 1477.59 655.879 1466.41 655.879C1463.75 655.879 1461.59 653.72 1461.59 651.057C1461.59 648.394 1463.75 646.236 1466.41 646.236C1472.27 646.236 1477.01 641.49 1477.01 635.636C1477.01 631.115 1474.18 627.244 1470.18 625.722C1467.69 624.776 1466.43 621.992 1467.38 619.503Z" fill="#4F3421"/>
<path id="Vector (Stroke)_4" fill-rule="evenodd" clip-rule="evenodd" d="M1440.46 619.388C1433.89 619.388 1428.57 624.713 1428.57 631.283C1428.57 637.852 1433.89 643.178 1440.46 643.178C1447.03 643.178 1452.36 637.852 1452.36 631.283C1452.36 624.713 1447.03 619.388 1440.46 619.388ZM1418.92 631.283C1418.92 619.388 1428.56 609.745 1440.46 609.745C1452.36 609.745 1462 619.388 1462 631.283C1462 643.178 1452.36 652.821 1440.46 652.821C1428.56 652.821 1418.92 643.178 1418.92 631.283Z" fill="#4F3421"/>
<path id="Subtract (Stroke)_3" fill-rule="evenodd" clip-rule="evenodd" d="M1440.45 668.576C1431.96 668.576 1424.07 671.125 1417.51 675.5C1416.29 676.307 1415.9 677.069 1415.77 677.548C1415.63 678.055 1415.66 678.688 1416.01 679.418C1416.74 680.928 1418.8 682.615 1422 682.615H1458.9C1462.1 682.615 1464.16 680.928 1464.88 679.418C1465.23 678.688 1465.26 678.055 1465.13 677.548C1464.99 677.069 1464.6 676.307 1463.39 675.5C1456.83 671.125 1448.94 668.576 1440.45 668.576ZM1412.16 667.474C1420.26 662.078 1430 658.933 1440.45 658.933C1450.9 658.933 1460.64 662.078 1468.74 667.474C1471.61 669.389 1473.6 671.983 1474.43 675.004C1475.25 677.999 1474.81 681.013 1473.58 683.589C1471.13 688.693 1465.52 692.258 1458.9 692.258H1422C1415.38 692.258 1409.77 688.693 1407.32 683.589C1406.08 681.013 1405.65 677.999 1406.47 675.004C1407.3 671.983 1409.28 669.389 1412.16 667.474Z" fill="#4F3421"/>
<path id="Subtract (Stroke)_4" fill-rule="evenodd" clip-rule="evenodd" d="M1476.44 667.193C1477.5 664.751 1480.34 663.633 1482.78 664.696C1485.37 665.82 1487.83 667.166 1490.15 668.709C1492.86 670.519 1494.76 672.983 1495.55 675.869C1496.33 678.728 1495.92 681.601 1494.74 684.049C1492.42 688.896 1487.1 692.258 1480.86 692.258H1457.48C1454.81 692.258 1452.65 690.099 1452.65 687.436C1452.65 684.774 1454.81 682.615 1457.48 682.615H1480.86C1483.68 682.615 1485.45 681.132 1486.05 679.878C1486.34 679.276 1486.35 678.784 1486.25 678.413C1486.15 678.069 1485.86 677.437 1484.8 676.735C1482.95 675.504 1480.99 674.432 1478.94 673.538C1476.49 672.475 1475.38 669.634 1476.44 667.193Z" fill="#4F3421"/>
</g>
</g>
</g>
<g id="Ultralight-S">
<g id="interface-user-multiple--close-geometric-human-multiple-person-up-user_3">
<g id="Group 201_3">
<path id="Vector (Stroke)_5" fill-rule="evenodd" clip-rule="evenodd" d="M576.38 619.503C577.326 617.013 580.111 615.762 582.6 616.708C590.224 619.604 595.654 626.98 595.654 635.636C595.654 646.816 586.591 655.879 575.411 655.879C572.749 655.879 570.59 653.72 570.59 651.057C570.59 648.394 572.749 646.236 575.411 646.236C581.266 646.236 586.011 641.49 586.011 635.636C586.011 631.115 583.179 627.244 579.175 625.722C576.686 624.776 575.435 621.992 576.38 619.503Z" fill="#4F3421"/>
<path id="Vector (Stroke)_6" fill-rule="evenodd" clip-rule="evenodd" d="M549.46 619.388C542.891 619.388 537.565 624.713 537.565 631.283C537.565 637.852 542.891 643.178 549.46 643.178C556.029 643.178 561.355 637.852 561.355 631.283C561.355 624.713 556.029 619.388 549.46 619.388ZM527.922 631.283C527.922 619.388 537.565 609.745 549.46 609.745C561.355 609.745 570.998 619.388 570.998 631.283C570.998 643.178 561.355 652.821 549.46 652.821C537.565 652.821 527.922 643.178 527.922 631.283Z" fill="#4F3421"/>
<path id="Subtract (Stroke)_5" fill-rule="evenodd" clip-rule="evenodd" d="M549.449 668.576C540.956 668.576 533.073 671.125 526.506 675.5C525.293 676.307 524.904 677.069 524.773 677.548C524.634 678.055 524.664 678.688 525.014 679.418C525.739 680.928 527.802 682.615 531.002 682.615H567.896C571.096 682.615 573.16 680.928 573.884 679.418C574.234 678.688 574.264 678.055 574.126 677.548C573.994 677.069 573.605 676.307 572.393 675.5C565.825 671.125 557.942 668.576 549.449 668.576ZM521.16 667.474C529.262 662.078 538.996 658.933 549.449 658.933C559.903 658.933 569.636 662.078 577.738 667.474C580.614 669.389 582.601 671.983 583.427 675.004C584.246 677.999 583.814 681.013 582.578 683.589C580.13 688.693 574.521 692.258 567.896 692.258H531.002C524.377 692.258 518.768 688.693 516.32 683.589C515.084 681.013 514.652 677.999 515.471 675.004C516.298 671.983 518.284 669.389 521.16 667.474Z" fill="#4F3421"/>
<path id="Subtract (Stroke)_6" fill-rule="evenodd" clip-rule="evenodd" d="M585.44 667.193C586.502 664.751 589.343 663.633 591.785 664.696C594.367 665.82 596.829 667.166 599.147 668.709C601.865 670.519 603.759 672.983 604.549 675.869C605.33 678.728 604.917 681.601 603.742 684.049C601.417 688.896 596.105 692.258 589.861 692.258H566.476C563.813 692.258 561.655 690.099 561.655 687.436C561.655 684.774 563.813 682.615 566.476 682.615H589.861C592.68 682.615 594.446 681.132 595.048 679.878C595.337 679.276 595.348 678.784 595.247 678.413C595.153 678.069 594.856 677.437 593.802 676.735C591.953 675.504 589.992 674.432 587.937 673.538C585.495 672.475 584.377 669.634 585.44 667.193Z" fill="#4F3421"/>
</g>
</g>
</g>
</g>
</g>
<defs>
<clipPath id="clip0_512_1698">
<rect width="3300" height="2200" fill="white"/>
</clipPath>
</defs>
</svg>
