<svg width="16" height="16" viewBox="0 0 16 16" fill="none" xmlns="http://www.w3.org/2000/svg">
<g clip-path="url(#clip0_1214_3500)">
<path d="M8 1.5C4.41688 1.5 1.5 4.41688 1.5 8C1.5 11.5831 4.41688 14.5 8 14.5C11.5831 14.5 14.5 11.5831 14.5 8C14.5 4.41688 11.5831 1.5 8 1.5ZM9.21062 10.9494C9.0725 11.0063 8.91812 11.0469 8.77187 11.0875V11.8919C8.77187 12.225 8.49562 12.5012 8.1625 12.5012C7.82937 12.5012 7.55312 12.225 7.55312 11.8919V11.185C6.95187 11.12 6.33437 10.8925 5.81437 10.4212C5.5625 10.1937 5.54625 9.81188 5.77375 9.56C6.00125 9.30813 6.38313 9.29187 6.635 9.51937C7.26063 10.0881 8.15438 10.08 8.715 9.82812C9.0075 9.69813 9.17 9.51937 9.17 9.42188C9.17 8.99938 8.98312 8.88562 7.97562 8.69875C7.11437 8.53625 5.81437 8.30063 5.81437 6.82188C5.81437 6.02563 6.36687 5.12375 7.55312 4.85563V4.08375C7.55312 3.75063 7.82937 3.47438 8.1625 3.47438C8.49562 3.47438 8.77187 3.75063 8.77187 4.08375V4.83938C9.66562 5.02625 10.21 5.61125 10.2344 5.63563C10.4619 5.8875 10.4375 6.26938 10.1856 6.49688C9.93375 6.71625 9.55188 6.7 9.3325 6.45625C9.3 6.42375 8.8125 5.93625 8.08125 6.00125C7.43938 6.05812 7.03312 6.375 7.03312 6.82188C7.03312 7.1875 7.17125 7.30938 8.195 7.49625C9.01562 7.65063 10.3887 7.9025 10.3887 9.41375C10.3887 10.0394 9.95 10.6081 9.21062 10.9331V10.9494Z" fill="#5FBD50"/>
</g>
<defs>
<clipPath id="clip0_1214_3500">
<rect width="13" height="13" fill="white" transform="translate(1.5 1.5)"/>
</clipPath>
</defs>
</svg>
