<svg width="20" height="20" viewBox="0 0 20 20" fill="none" xmlns="http://www.w3.org/2000/svg">
<path d="M11.0653 3.31012L5.19409 6.85388L14.4038 7.66316L12.6439 3.79878C12.3696 3.19663 11.6317 2.96821 11.0653 3.31012Z" fill="white"/>
<path d="M3.77342 14.4754C3.95875 15.5279 4.80045 16.3736 5.85703 16.5339C6.90615 16.6931 7.85351 16.8494 9.30851 16.8494C10.7635 16.8494 11.7109 16.6931 12.76 16.5339C13.8166 16.3736 14.6583 15.5279 14.8436 14.4754C14.9866 13.6634 15.117 12.9582 15.117 11.5941C15.117 10.2299 14.9866 9.52475 14.8436 8.71271C14.6583 7.66023 13.8166 6.81451 12.76 6.65421C11.7109 6.49504 10.7635 6.33875 9.30851 6.33875C7.85351 6.33875 6.90615 6.49504 5.85703 6.65421C4.80045 6.81451 3.95875 7.66023 3.77342 8.71271C3.63042 9.52475 3.5 10.2299 3.5 11.5941C3.5 12.9582 3.63042 13.6634 3.77342 14.4754Z" fill="white"/>
<path d="M3.77342 14.4754L2.9363 14.6228L2.9363 14.6228L3.77342 14.4754ZM5.85703 16.5339L5.72953 17.3743L5.72953 17.3743L5.85703 16.5339ZM12.76 16.5339L12.8875 17.3743L12.8875 17.3743L12.76 16.5339ZM14.8436 14.4754L14.0065 14.328L14.0065 14.328L14.8436 14.4754ZM14.8436 8.71271L14.0065 8.86012L14.0065 8.86012L14.8436 8.71271ZM12.76 6.65421L12.6325 7.49459L12.6325 7.49459L12.76 6.65421ZM5.85703 6.65421L5.72953 5.81383L5.85703 6.65421ZM3.77342 8.71271L2.9363 8.5653L2.9363 8.5653L3.77342 8.71271ZM2.9363 14.6228C3.1829 16.0233 4.30087 17.1575 5.72953 17.3743L5.98453 15.6935C5.30003 15.5897 4.7346 15.0325 4.61054 14.328L2.9363 14.6228ZM5.72953 17.3743C6.77798 17.5334 7.78247 17.6994 9.30851 17.6994V15.9994C7.92454 15.9994 7.03432 15.8528 5.98453 15.6935L5.72953 17.3743ZM9.30851 17.6994C10.8346 17.6994 11.839 17.5334 12.8875 17.3743L12.6325 15.6935C11.5827 15.8528 10.6925 15.9994 9.30851 15.9994V17.6994ZM12.8875 17.3743C14.3162 17.1575 15.4341 16.0233 15.6807 14.6228L14.0065 14.328C13.8824 15.0325 13.317 15.5897 12.6325 15.6935L12.8875 17.3743ZM15.6807 14.6228C15.8267 13.7941 15.967 13.032 15.967 11.5941H14.267C14.267 12.8844 14.1465 13.5327 14.0065 14.328L15.6807 14.6228ZM15.967 11.5941C15.967 10.1562 15.8267 9.39403 15.6807 8.5653L14.0065 8.86012C14.1465 9.65546 14.267 10.3037 14.267 11.5941H15.967ZM15.6807 8.5653C15.4341 7.16487 14.3162 6.03058 12.8875 5.81383L12.6325 7.49459C13.317 7.59844 13.8824 8.1556 14.0065 8.86012L15.6807 8.5653ZM12.8875 5.81383C11.839 5.65476 10.8346 5.48875 9.30851 5.48875V7.18875C10.6925 7.18875 11.5827 7.33532 12.6325 7.49459L12.8875 5.81383ZM9.30851 5.48875C7.78247 5.48875 6.77798 5.65476 5.72953 5.81383L5.98453 7.49459C7.03432 7.33532 7.92454 7.18875 9.30851 7.18875V5.48875ZM5.72953 5.81383C4.30087 6.03058 3.1829 7.16487 2.9363 8.5653L4.61054 8.86012C4.7346 8.1556 5.30003 7.59844 5.98453 7.49459L5.72953 5.81383ZM2.9363 8.5653C2.79036 9.39403 2.65 10.1562 2.65 11.5941H4.35C4.35 10.3037 4.47048 9.65546 4.61054 8.86012L2.9363 8.5653ZM2.65 11.5941C2.65 13.032 2.79036 13.7941 2.9363 14.6228L4.61054 14.328C4.47048 13.5327 4.35 12.8844 4.35 11.5941H2.65Z" fill="#5FBD50"/>
<path d="M15.4213 13.1984H12.0744C11.1578 13.1984 10.4148 12.4554 10.4148 11.5388C10.4148 10.6223 11.1578 9.87927 12.0744 9.87927H15.4213C16.017 9.87927 16.4999 10.3622 16.4999 10.9578V12.1199C16.4999 12.7155 16.017 13.1984 15.4213 13.1984Z" fill="white" stroke="#5FBD50" stroke-width="1.7" stroke-linecap="round"/>
<path d="M4.75485 6.12616C4.35295 6.36875 4.22379 6.89121 4.46638 7.29312C4.70896 7.69502 5.23143 7.82418 5.63333 7.58159L4.75485 6.12616ZM11.0653 3.31012L11.5045 4.03783L11.5045 4.03783L11.0653 3.31012ZM12.6439 3.79878L11.8703 4.15107L11.8703 4.15107L12.6439 3.79878ZM13.6302 8.01545C13.8248 8.44268 14.3288 8.63128 14.7561 8.43672C15.1833 8.24215 15.3719 7.7381 15.1773 7.31087L13.6302 8.01545ZM5.63333 7.58159L11.5045 4.03783L10.626 2.5824L4.75485 6.12616L5.63333 7.58159ZM11.8703 4.15107L13.6302 8.01545L15.1773 7.31087L13.4174 3.44649L11.8703 4.15107ZM11.5045 4.03783C11.6358 3.9586 11.8068 4.01153 11.8703 4.15107L13.4174 3.44649C12.9325 2.38173 11.6277 1.97781 10.626 2.5824L11.5045 4.03783Z" fill="#5FBD50"/>
</svg>
