<?xml version="1.0" encoding="UTF-8"?>
<svg id="Livello_1" data-name="Livello 1" xmlns="http://www.w3.org/2000/svg" viewBox="0 0 16 16">
  <defs>
    <style>
      .cls-1 {
        fill: #5fbd50;
        stroke-width: 0px;
      }
    </style>
  </defs>
  <path class="cls-1" d="M8,0C3.59,0,0,3.59,0,8s3.59,8,8,8,8-3.59,8-8S12.41,0,8,0ZM9.49,11.63c-.17.07-.36.12-.54.17v.99c0,.41-.34.75-.75.75s-.75-.34-.75-.75v-.87c-.74-.08-1.5-.36-2.14-.94-.31-.28-.33-.75-.05-1.06.28-.31.75-.33,1.06-.05.77.7,1.87.69,2.56.38.36-.16.56-.38.56-.5,0-.52-.23-.66-1.47-.89-1.06-.2-2.66-.49-2.66-2.31,0-.98.68-2.09,2.14-2.42v-.95c0-.41.34-.75.75-.75s.75.34.75.75v.93c1.1.23,1.77.95,1.8.98.28.31.25.78-.06,1.06-.31.27-.78.25-1.05-.05-.04-.04-.64-.64-1.54-.56-.79.07-1.29.46-1.29,1.01,0,.45.17.6,1.43.83,1.01.19,2.7.5,2.7,2.36,0,.77-.54,1.47-1.45,1.87Z"/>
</svg>