<svg width="344" height="343" viewBox="0 0 344 343" fill="none" xmlns="http://www.w3.org/2000/svg">
<path d="M69.6618 125.923C71.1717 132.131 83.9224 137.331 100.532 138.338C115.799 139.177 131.402 140.016 147.34 140.016C163.279 140.016 179.049 139.177 194.149 138.338C210.758 137.331 223.677 132.298 225.019 125.923C226.864 117.367 228.878 108.642 228.878 99.7505C228.878 88.8453 229.213 78.2756 228.039 68.0415C227.703 64.8538 221.16 62.3372 212.772 62.0017C169.486 60.4917 124.859 60.4917 81.5736 62.0017C73.185 62.3372 66.8096 64.8538 66.3063 68.0415C65.1319 78.1078 65.4675 88.8453 65.4675 99.7505C65.4675 108.81 67.4807 117.534 69.3262 125.923H69.6618Z" fill="white"/>
<path d="M225.353 80.9596C223.843 74.752 211.093 69.5511 194.483 68.5445C179.216 67.7056 163.613 66.8667 147.675 66.8667C131.736 66.8667 115.966 67.7056 100.866 68.5445C84.2568 69.5511 71.3383 74.5843 69.9961 80.9596C68.1507 89.516 66.1374 98.2402 66.1374 107.132C66.1374 118.037 65.8018 128.607 66.9762 138.841C67.3118 142.029 73.8549 144.545 82.2435 144.881C125.529 146.391 170.156 146.391 213.441 144.881C221.83 144.545 228.205 142.029 228.709 138.841C229.883 128.775 229.548 118.037 229.548 107.132C229.548 98.0724 227.534 89.3482 225.689 80.9596H225.353Z" fill="white"/>
<path d="M147.512 289.675C130.231 289.675 113.957 287.494 98.6901 285.145C76.2086 281.789 58.5925 262.999 56.747 240.517C54.7337 217.7 52.7205 194.212 52.7205 169.55V154.618C52.7205 130.291 52.7205 107.474 53.7271 84.8246C54.3982 70.0607 65.9745 57.8133 80.7384 56.4711C125.03 52.2768 169.993 52.2768 214.453 56.4711C229.217 57.8133 240.793 70.0607 241.464 84.8246C242.471 107.306 242.471 130.291 242.471 154.618V169.55C242.471 194.212 240.458 217.7 238.444 240.35C236.431 262.831 218.815 281.622 196.501 284.977C181.234 287.326 164.96 289.507 147.68 289.507L147.512 289.675ZM82.7517 238.168C83.5906 248.738 91.9792 257.63 102.549 259.308C116.809 261.489 132.077 263.502 147.512 263.502C162.947 263.502 178.214 261.489 192.475 259.308C203.044 257.798 211.433 248.906 212.272 238.168C214.117 216.023 216.131 193.038 216.131 169.55V154.618C216.131 130.626 216.131 107.977 215.292 86.1668C215.292 84.3213 213.782 82.8114 211.936 82.6436C169.154 78.617 125.869 78.617 83.255 82.6436C81.4095 82.8114 79.8996 84.3213 79.8996 86.1668C78.8929 108.145 78.8929 130.794 79.0607 154.618V169.55C79.0607 193.038 81.074 216.023 82.9195 238.168H82.7517Z" fill="white"/>
<path d="M227.533 231.452L226.359 205.279C236.09 204.776 245.485 203.937 254.712 203.098L258.403 202.762C260.752 202.595 262.598 200.749 262.933 198.4C264.611 187.327 265.785 178.268 265.785 168.705C265.785 158.471 264.275 147.733 262.933 139.009C262.598 136.66 260.752 134.815 258.403 134.647L255.383 134.311C246.659 133.472 237.6 132.801 228.54 132.298L229.882 106.126C239.277 106.629 248.673 107.468 257.732 108.307L260.752 108.642C275.181 109.984 286.757 120.89 288.938 135.318C290.616 146.894 292.126 157.464 292.126 168.872C292.126 181.12 290.448 192.864 288.938 202.427C286.757 216.855 275.181 227.761 260.752 229.103L257.061 229.438C247.498 230.277 237.6 231.116 227.533 231.619V231.452Z" fill="white"/>
<path d="M121.165 231.787C113.951 231.787 108.079 225.915 108.079 218.7V163.839C108.079 156.625 113.951 150.753 121.165 150.753C128.38 150.753 134.252 156.625 134.252 163.839V218.7C134.252 225.915 128.38 231.787 121.165 231.787Z" fill="white"/>
<path d="M172.337 231.787C165.123 231.787 159.251 225.915 159.251 218.7V163.839C159.251 156.625 165.123 150.753 172.337 150.753C179.551 150.753 185.423 156.625 185.423 163.839V218.7C185.423 225.915 179.551 231.787 172.337 231.787Z" fill="white"/>
</svg>
