<?xml version="1.0" encoding="UTF-8"?>
<svg id="Livello_1" data-name="Livello 1" xmlns="http://www.w3.org/2000/svg" viewBox="0 0 14.26 14.09">
  <defs>
    <style>
      .cls-1 {
        fill: #fff;
        stroke-width: 0px;
      }
    </style>
  </defs>
  <g>
    <path class="cls-1" d="M1.01,4.33c.09.37.85.68,1.84.74.91.05,1.84.1,2.79.1s1.89-.05,2.79-.1c.99-.06,1.76-.36,1.84-.74.11-.51.23-1.03.23-1.56,0-.65.02-1.28-.05-1.89-.02-.19-.41-.34-.91-.36-2.58-.09-5.24-.09-7.82,0-.5.02-.88.17-.91.36-.07.6-.05,1.24-.05,1.89,0,.54.12,1.06.23,1.56Z"/>
    <path class="cls-1" d="M10.29,1.65c-.09-.37-.85-.68-1.84-.74-.91-.05-1.84-.1-2.79-.1s-1.89.05-2.79.1c-.99.06-1.76.36-1.84.74-.11.51-.23,1.03-.23,1.56,0,.65-.02,1.28.05,1.89.02.19.41.34.91.36,2.58.09,5.24.09,7.82,0,.5-.02.88-.17.91-.36.07-.6.05-1.24.05-1.89,0-.54-.12-1.06-.23-1.56Z"/>
    <path class="cls-1" d="M5.65,14.09c-1.03,0-2-.13-2.91-.27-1.34-.2-2.39-1.32-2.5-2.66h0C.12,9.8,0,8.4,0,6.93v-.89C0,4.59,0,3.23.06,1.88.1,1,.79.27,1.67.19,4.31-.06,6.99-.06,9.64.19c.88.08,1.57.81,1.61,1.69.06,1.34.06,2.71.06,4.16v.89c0,1.47-.12,2.87-.24,4.22-.12,1.34-1.17,2.46-2.5,2.66-.91.14-1.88.27-2.91.27ZM1.79,11.02c.05.63.55,1.16,1.18,1.26.85.13,1.76.25,2.68.25s1.83-.12,2.68-.25c.63-.09,1.13-.62,1.18-1.26.11-1.32.23-2.69.23-4.09v-.89c0-1.43,0-2.78-.05-4.08,0-.11-.09-.2-.2-.21-2.55-.24-5.13-.24-7.67,0-.11.01-.2.1-.2.21-.06,1.31-.06,2.66-.05,4.08v.89c0,1.4.12,2.77.23,4.09h0Z"/>
  </g>
  <path class="cls-1" d="M10.42,10.62l-.07-1.56c.58-.03,1.14-.08,1.69-.13l.22-.02c.14-.01.25-.12.27-.26.1-.66.17-1.2.17-1.77,0-.61-.09-1.25-.17-1.77-.02-.14-.13-.25-.27-.26l-.18-.02c-.52-.05-1.06-.09-1.6-.12l.08-1.56c.56.03,1.12.08,1.66.13l.18.02c.86.08,1.55.73,1.68,1.59.1.69.19,1.32.19,2,0,.73-.1,1.43-.19,2-.13.86-.82,1.51-1.68,1.59l-.22.02c-.57.05-1.16.1-1.76.13Z"/>
  <path class="cls-1" d="M4.08,10.64c-.43,0-.78-.35-.78-.78v-3.27c0-.43.35-.78.78-.78s.78.35.78.78v3.27c0,.43-.35.78-.78.78Z"/>
  <path class="cls-1" d="M7.13,10.64c-.43,0-.78-.35-.78-.78v-3.27c0-.43.35-.78.78-.78s.78.35.78.78v3.27c0,.43-.35.78-.78.78Z"/>
</svg>