<svg width="24" height="24" viewBox="0 0 24 24" fill="none" xmlns="http://www.w3.org/2000/svg">
<path d="M17.439 5.82372C15.7693 4.61462 13.7393 3.7125 11.5499 3.7125C5.85449 3.7125 1.23743 9.81734 1.23743 11.55C1.23743 12.6528 3.10773 15.5266 5.93598 17.4704" stroke="#4F3421" stroke-width="2.475" stroke-linejoin="round"/>
<path d="M20.2898 8.53863C21.2862 9.78011 21.8624 10.9379 21.8624 11.55C21.8624 13.2826 17.2453 19.3875 11.5499 19.3875C10.8268 19.3875 10.121 19.2891 9.43994 19.1137" stroke="#4F3421" stroke-width="2.475" stroke-linecap="round" stroke-linejoin="round"/>
<path d="M11.686 7.21875C9.22014 7.21875 7.22119 9.2177 7.22119 11.6835C7.22119 13.0684 7.85175 14.3061 8.84144 15.125L15.1073 8.81483C14.2883 7.83906 13.0596 7.21875 11.686 7.21875Z" fill="#4F3421"/>
<path d="M21.0374 1.2375C14.3426 9.81341 9.99717 14.1124 1.23743 21.0375" stroke="#4F3421" stroke-width="2.475" stroke-linecap="round" stroke-linejoin="round"/>
</svg>
