<svg width="600" height="600" viewBox="0 0 600 600" fill="none" xmlns="http://www.w3.org/2000/svg">
<path fill-rule="evenodd" clip-rule="evenodd" d="M0 158.744L289.5 290.5L0 222.75V347.676L291 308L82.5 481.5L147.866 600H154.343L296.137 306.918L297.689 306.591L228.868 600H330.814L313.045 345.565L393.235 600H588.7L600 587.534V587.387L572.056 515.391L518 481.5L310.601 310.561L310.14 303.968L310.88 303.812L600 372.26V242.91L310.88 303.812L310.117 303.632L309.689 297.5L309.54 296.673L600 177.436V53.7272L585 23.4999L308.639 284.546L475.335 0H328.052L302.948 260.098L256.07 0H204.941L131.5 39.9999L299 294.407L13.4528 0H0V158.744Z" fill="url(#paint0_radial_917_2094)"/>
<defs>
<radialGradient id="paint0_radial_917_2094" cx="0" cy="0" r="1" gradientUnits="userSpaceOnUse" gradientTransform="translate(300 308) rotate(93.7229) scale(292.617 287.765)">
<stop stop-color="#FDEFCB"/>
<stop offset="0.5" stop-color="#FFFAED" stop-opacity="0.4"/>
<stop offset="1" stop-color="white" stop-opacity="0"/>
</radialGradient>
</defs>
</svg>
