<svg width="245" height="234" viewBox="0 0 245 234" fill="none" xmlns="http://www.w3.org/2000/svg">
<path d="M1.57001 162.04C-10.69 135.67 52.56 141.97 58.13 123.65C63.69 105.33 -2.12999 94.8599 13.63 62.5699C29.39 30.2799 42.11 47.7399 58.47 39.0099C74.83 30.2799 64.63 2.35993 86.88 0.619929C109.13 -1.13007 146.22 26.7999 163.83 45.1199C181.44 63.4399 234.91 35.7099 240.78 70.2999C244.22 90.5799 206.48 101.84 205.55 120.16C204.62 138.48 248.2 140.23 244.49 168.15C240.78 196.07 187.01 175.13 168.46 184.73C149.92 194.33 154.55 229.23 114.69 232.72C74.83 236.21 72.97 210.91 54.43 192.58C35.89 174.26 14.56 189.96 1.58001 162.04H1.57001Z" fill="#F1E8E1"/>
<path d="M103.2 20.71C103.2 20.71 115.33 31.52 115.64 35.8" stroke="#4F3421" stroke-width="4" stroke-miterlimit="10" stroke-linecap="round"/>
<path d="M125.08 34.5699C125.08 34.5699 123.5 22.2899 120.8 16.1099" stroke="#4F3421" stroke-width="4" stroke-miterlimit="10" stroke-linecap="round"/>
<path d="M133.89 34.5699C133.89 34.5699 136.17 25.7499 138.74 21.9399C141.31 18.1299 145.01 16.1099 145.01 16.1099" stroke="#4F3421" stroke-width="4" stroke-miterlimit="10" stroke-linecap="round"/>
<path d="M114.83 153.02C106.99 153.25 104 158.52 101.22 164.4C96.59 174.2 90.46 183.08 83.36 191.25C81.98 192.84 81.05 194.1 81.58 196.47C82.27 199.56 80.8 202.21 78.33 204.18C58.83 219.75 36.85 228.85 11.72 229.96C7.99002 230.12 6.99002 228.89 7.36002 225.4C8.24002 217.03 9.04002 208.65 9.65002 200.26C10.36 190.47 7.70002 181.05 6.18002 171.44C25.52 170.51 38.59 158.08 52.25 146.33C52.95 147.59 53.58 148.72 54.32 150.04C62.94 142.97 69.24 134.42 72.8 123.94C75.1 117.18 78.46 110.79 78.56 103.32C78.71 92.1198 76.64 81.6298 70.33 72.1898C68.63 69.6498 67.02 67.0398 66.61 63.8998C65.98 59.0398 68.35 55.9698 73.21 55.5398C74.17 55.4598 74.79 55.5598 75.32 54.3798C78.78 46.6498 82.05 46.1898 88.12 52.4098C88.2 52.4898 88.35 52.5098 88.77 52.6898C89.85 50.1198 91.33 47.6898 94.73 48.5298C97.7 49.2698 98.88 51.9298 100.17 54.4998C100.38 54.1598 100.48 54.0698 100.48 53.9898C100.39 50.2898 100.25 46.2798 104.98 45.4598C109.36 44.6998 110.79 48.3798 112.22 51.5698C116.86 61.8598 120.53 72.4798 122.86 83.8498C129.19 75.0898 135.28 66.6098 141.43 58.1798C145.11 53.1298 147.17 52.6598 152.54 55.8798C153.88 56.6798 154.22 55.6198 154.86 55.2598C158.04 53.4598 160.66 53.6298 162.67 57.0098C162.98 57.5298 163.06 58.2898 164.33 58.1298C170 57.4198 170.78 58.0698 171.6 63.4198C172.09 63.1198 172.54 62.8598 172.98 62.5698C175.03 61.2298 177.24 60.4598 179.16 62.4798C181.15 64.5798 180.33 67.0198 178.99 69.1098C174.94 75.3798 170.67 81.4998 166.68 87.7998C161.7 95.6598 156.65 103.52 155.58 113.11C155.54 113.48 155.64 113.86 155.72 114.58C161.51 111.98 166.26 108.07 171.54 105.06C173.91 103.71 176.52 101.09 178.91 104.01C181.06 106.64 178.88 109.23 176.91 111.33C172.54 115.99 168.04 120.53 163.8 125.3C156.26 133.77 157.88 144.92 167.44 150.99C171.76 153.73 176.56 155.33 181.46 156.64C182.22 156.84 183.09 156.91 183.85 156.76C201.6 153.16 219.45 156.68 237.24 156.12C242.11 155.97 241.83 156.8 242 161.85C242.38 173.33 238.78 184.34 238.67 195.73C238.64 198.71 237.14 201.34 236.11 204.05C235.37 205.99 233.39 206.26 231.7 206.13C222.79 205.45 213.88 204.6 204.98 203.81C199.8 203.35 194.57 203.13 189.46 202.45C183.61 201.68 177.87 199.84 172.2 198.08C157.57 193.55 144.44 186.01 132.14 177.08C126.99 173.34 122.35 168.85 118.55 163.6C116.18 160.33 115.42 156.61 114.87 153.03L114.83 153.02ZM173.13 109.28C173.81 108.62 175.13 108.6 175.19 107.01C174.01 107.06 173.25 107.58 172.7 108.5C172.4 108.73 172.1 108.97 171.79 109.2C164.7 112.76 158.82 118.4 151.12 121.59C151.24 109.53 154.14 98.9498 161.19 89.4798C166.48 82.3798 170.44 74.3498 175.72 67.2098C175.99 66.8398 177.09 65.9998 175.97 65.2698C175.19 64.7598 174.89 65.0698 174.26 65.8798C168.3 73.5798 161.83 80.8498 155.26 88.0398C154.25 89.1398 153.7 90.7998 151.64 88.9298C149.89 87.3398 150.49 86.5398 151.59 85.0798C156.23 78.8998 160.78 72.6498 165.24 66.3398C166.21 64.9598 168.61 62.9998 166.88 61.7098C165.11 60.3798 163.99 63.2998 162.96 64.5898C157.73 71.1198 152.62 77.7498 147.55 84.4098C146.4 85.9098 145.57 86.6598 143.8 85.1098C142.29 83.7898 142.51 83.1398 143.71 81.6798C148.66 75.6298 153.45 69.4398 158.19 63.2098C159.16 61.9398 160.63 59.6298 159.53 58.7898C158.03 57.6298 156.29 59.7098 154.75 60.6298C154.56 60.7498 154.51 61.0798 154.36 61.2898C149.61 67.8598 144.79 74.3898 140.13 81.0298C139.03 82.5898 138.43 83.3198 136.5 81.9998C134.23 80.4598 135.66 79.4598 136.54 78.2198C140.4 72.7798 144.27 67.3598 148.1 61.8898C148.87 60.7898 149.69 59.1698 148.41 58.3098C147.26 57.5398 146.28 59.1798 145.64 60.0498C141.56 65.6598 137.86 71.5498 133.55 76.9598C126.25 86.1398 123.17 96.2198 125.66 107.81C125.72 111.52 125.77 115.24 125.83 118.95C125.83 119.51 125.83 120.06 125.83 120.62C126.06 121.16 126.02 120.91 125.94 120.58C130.65 118 131.27 113.49 132.62 110.11C133.91 106.9 135.62 103.81 138.14 101.38C141.37 98.2598 144.64 99.2998 145.74 103.6C147 108.49 145.92 113.24 144.29 117.71C139.57 130.64 130.54 140.35 119.94 148.72C118.5 149.86 117.28 150.62 117.86 152.84C119.8 160.2 123.68 166.42 129.66 170.87C136.35 175.85 142.94 181.02 150.34 185.03C160.9 190.77 172.06 194.8 183.69 197.68C186.49 198.38 187.2 197.35 187.24 194.59C187.34 187.13 186.73 179.64 188.13 172.22C188.94 167.95 188.98 163.64 188.63 158.68C185.18 161.65 182.06 160.43 178.89 159.39C177 158.77 175.03 158.38 173.12 157.8C161.57 154.31 154.08 143.46 155.98 132.89C156.82 128.2 159.76 124.65 162.75 121.18C166.05 117.36 169.85 113.96 172.68 109.73C172.9 109.64 173.05 109.49 173.13 109.27V109.28ZM142.08 103C140.05 103.94 139.45 105.25 138.79 106.58C135.85 112.54 132.53 118.26 128.41 123.52C127.18 125.1 125.76 125.71 124.02 125.26C122.02 124.74 122.19 122.94 122.2 121.31C122.22 113.89 122.42 106.5 121.49 99.0698C119.56 83.5598 116.38 68.4598 109.55 54.2998C108.59 52.3198 107.99 48.6398 105.44 49.5398C103.03 50.3898 104.54 53.8198 104.99 56.0098C106.67 64.2198 108.55 72.3898 110.39 80.5698C110.75 82.1898 111.89 83.7898 109.01 84.5098C106.09 85.2298 106.04 83.3598 105.71 81.5798C103.92 71.9898 99.94 63.1898 95.79 54.4698C95.32 53.4898 94.81 51.4298 93.11 52.5698C92.08 53.2598 91.95 54.6498 92.61 56.3598C96.29 65.8698 99.6 75.5098 103.09 85.0898C103.64 86.5898 103.68 87.2598 101.83 87.9498C99.82 88.6998 99.6 87.6098 99.1 86.3998C96.87 81.0198 94.78 75.5698 92.38 70.2698C89.86 64.6998 87.44 59.0398 83.59 54.1998C82.81 53.2198 81.88 51.7598 80.32 52.5698C78.87 53.3298 78.53 54.9398 78.93 56.4298C79.41 58.1998 80.16 59.9098 80.9 61.5998C85 70.9598 89.12 80.3198 93.28 89.6598C94.02 91.3298 93.73 92.0798 91.96 92.9298C89.25 94.2298 89.14 92.2398 88.48 90.7398C84.28 81.1898 81.3 71.1298 76.56 61.7998C75.58 59.8698 74.69 58.0398 72.35 59.7298C70.57 61.0198 69.62 62.8898 71.09 65.1798C73.74 69.3098 75.95 73.6498 78.07 78.1098C82.53 87.4998 83.05 97.2598 82.42 107.31C82.05 113.17 79.19 118.22 77.51 123.65C73.98 135.01 67.82 144.64 58.88 152.43C56.96 154.1 56.84 155.33 57.98 157.46C63.9 168.52 71.09 178.76 78.05 189.16C78.92 190.46 79.59 191.06 80.95 189.4C87.87 180.9 93.69 171.69 98.74 161.99C101.42 156.85 103.38 151.25 110.45 150.36C112.26 150.13 114.71 149.46 115.14 146.74C115.2 146.37 115.9 145.82 116.31 145.82C119.83 145.76 121.39 142.96 123.39 140.82C126.5 137.51 129.38 133.98 132.63 130.83C140.44 123.26 143.29 114.1 142.11 103.02L142.08 103ZM237.02 181.17C236.78 179.69 238.37 177.55 234.96 177.41C221.44 176.86 207.93 175.99 194.39 175.93C191.99 175.92 191.37 176.67 191.16 179.08C190.86 182.45 192.45 183.05 195.18 183.17C207.14 183.68 218.99 185.55 230.98 185.98C236.74 186.19 236.72 186.72 237.03 181.17H237.02ZM198.82 172.91C210.63 174.1 222.52 174.09 234.34 175.11C237.26 175.36 238.05 174.85 238.46 171.79C239.03 167.49 235.9 168.35 234.05 168.14C227.06 167.36 220.03 166.89 213.01 166.43C207.32 166.06 201.66 165.49 195.92 165.73C192.25 165.89 191.7 167.77 191.7 170.69C191.7 174.39 194.44 172.52 196.04 172.87C196.93 173.07 197.9 172.91 198.84 172.91H198.82ZM197.85 185.8C195.86 185.8 194.8 185.82 193.73 185.8C189.78 185.72 190.83 188.76 190.53 190.93C190.11 193.93 192.42 192.78 193.7 192.88C206.71 193.86 219.74 194.7 232.74 195.78C234.95 195.96 236.29 195.66 236.09 193.34C235.93 191.59 237.86 189.09 233.6 188.67C221.39 187.46 209.07 187.92 197.85 185.8ZM202.72 163.07C206.4 162.61 210.73 163.66 215.08 164.11C221.96 164.81 228.95 164.46 235.72 166.1C240.39 167.23 239.22 163.12 239.97 161.19C241.07 158.36 238.62 158.36 236.71 158.32C223.08 158.07 209.46 157.87 195.83 157.56C193.65 157.51 192.82 158.13 192.65 160.42C192.46 162.94 193.89 163.02 195.56 163.06C197.69 163.11 199.83 163.07 202.71 163.07H202.72ZM197.87 195.95C196.4 195.95 194.93 195.87 193.47 195.97C192.04 196.07 190.26 195.39 190.29 198.18C190.32 200.76 191.99 200.09 193.24 200.19C200.29 200.77 207.39 200.91 214.38 201.92C220.08 202.75 225.84 202.33 231.49 203.46C233.96 203.95 234.38 201.86 234.71 200.27C235.12 198.29 233.58 197.89 231.98 197.8C220.61 197.13 209.2 197.3 197.87 195.95Z" fill="#4F3421" stroke="#4F3421" stroke-width="4" stroke-miterlimit="10"/>
<path d="M142.11 104.44C144.58 105.95 140.32 119.36 132.62 130.8C129.37 133.95 126.48 137.48 123.38 140.79C121.37 142.93 119.82 145.72 116.3 145.79C115.89 145.79 115.19 146.34 115.13 146.71C114.71 149.43 112.25 150.11 110.44 150.33C103.37 151.22 101.41 156.82 98.7301 161.96C93.6801 171.66 87.8601 180.87 80.9401 189.37C79.5901 191.03 78.9201 190.44 78.0401 189.13C71.0801 178.74 63.8901 168.49 57.9701 157.43C56.8301 155.3 56.95 154.07 58.87 152.4C67.82 144.62 73.9801 134.99 77.5001 123.62C79.1901 118.19 82.0501 113.13 82.4101 107.28C83.0401 97.2297 82.52 87.4697 78.06 78.0797C75.94 73.6197 73.7301 69.2897 71.0801 65.1497C69.6101 62.8497 70.56 60.9797 72.34 59.6997C74.68 58.0097 75.5601 59.8297 76.5501 61.7697C81.3001 71.0997 84.2701 81.1597 88.4701 90.7097C89.1301 92.2097 89.24 94.1997 91.95 92.8997C93.72 92.0497 94.02 91.2997 93.27 89.6297C89.11 80.2897 84.9901 70.9297 80.8901 61.5697C80.1501 59.8797 79.4 58.1697 78.92 56.3997C78.52 54.9197 78.86 53.2997 80.31 52.5397C81.87 51.7297 82.8101 53.1897 83.5801 54.1697C87.4301 59.0097 89.8501 64.6697 92.3701 70.2397C94.7701 75.5497 96.86 80.9897 99.09 86.3697C99.59 87.5797 99.82 88.6697 101.82 87.9197C103.67 87.2297 103.62 86.5497 103.08 85.0597C99.5901 75.4797 96.28 65.8397 92.6 56.3297C91.94 54.6197 92.07 53.2397 93.1 52.5397C94.8 51.3997 95.32 53.4597 95.78 54.4397C99.93 63.1597 103.91 71.9597 105.7 81.5497C106.03 83.3297 106.08 85.2097 109 84.4797C111.89 83.7597 110.75 82.1597 110.38 80.5397C108.55 72.3597 106.66 64.1897 104.98 55.9797C104.53 53.7897 103.02 50.3597 105.43 49.5097C107.98 48.6097 108.59 52.2797 109.54 54.2697C116.37 68.4297 118.65 83.4097 120.58 98.9197C121.51 106.36 118.9 116.09 120.44 122.92C120.8 124.51 121.4 126.7 123.4 127.23C125.14 127.68 129.01 124.5 130.25 122.92C134.36 117.66 135.83 112.52 138.77 106.56C139.43 105.22 140.17 103.26 142.08 104.43L142.11 104.44Z" fill="#F1E8E0"/>
<path d="M126.4 118.07C125.15 116.31 127.02 110.61 126.79 106.75C125.9 91.5996 126.25 86.1396 133.55 76.9596C137.86 71.5396 141.56 65.6496 145.64 60.0496C146.28 59.1696 147.26 57.5296 148.41 58.3096C149.69 59.1696 148.88 60.7896 148.1 61.8896C144.28 67.3496 140.4 72.7796 136.54 78.2196C135.66 79.4596 134.23 80.4596 136.5 81.9996C138.44 83.3196 139.04 82.5996 140.13 81.0296C144.78 74.3896 149.6 67.8596 154.36 61.2896C154.51 61.0796 154.56 60.7396 154.75 60.6296C156.28 59.6996 158.02 57.6296 159.53 58.7896C160.62 59.6296 159.15 61.9396 158.19 63.2096C153.46 69.4396 148.67 75.6296 143.71 81.6796C142.51 83.1396 142.29 83.7895 143.8 85.1095C145.58 86.6595 146.41 85.9196 147.55 84.4096C152.62 77.7496 157.72 71.1196 162.96 64.5896C163.99 63.2996 165.11 60.3796 166.88 61.7096C168.6 62.9996 166.21 64.9596 165.24 66.3396C160.79 72.6496 156.23 78.8995 151.59 85.0795C150.49 86.5395 149.89 87.3496 151.64 88.9296C153.7 90.7996 154.25 89.1396 155.26 88.0396C161.83 80.8496 168.3 73.5796 174.26 65.8796C174.89 65.0596 175.2 64.7596 175.97 65.2696C177.09 65.9996 176 66.8396 175.72 67.2096C170.44 74.3596 166.47 82.3796 161.19 89.4796C154.14 98.9596 147.59 114.95 153.27 118.96C160.08 123.77 164.7 112.76 171.79 109.2C172.09 109.38 172.38 109.57 172.68 109.75C169.85 113.98 166.05 117.37 162.75 121.2C159.76 124.67 156.82 128.22 155.98 132.91C154.08 143.48 161.57 154.33 173.12 157.82C175.03 158.4 177 158.78 178.89 159.41C182.05 160.45 185.18 161.67 188.63 158.7C188.97 163.66 188.93 167.97 188.13 172.24C186.73 179.66 187.34 187.15 187.24 194.61C187.2 197.38 186.5 198.4 183.69 197.7C172.07 194.81 160.91 190.78 150.34 185.05C142.94 181.03 136.35 175.87 129.66 170.89C123.68 166.44 119.79 160.21 117.86 152.86C117.27 150.64 119.79 150.92 121.24 149.78C134.93 140.89 141.23 129.74 145.95 116.81C147.58 112.34 148.23 107.94 146.97 103.05C145.87 98.7495 141.06 97.2396 137.83 100.37C135.31 102.81 133.69 106.55 131.97 109.55C129.91 113.14 130.38 115.73 126.4 118.09" fill="#F1E8E0"/>
<path d="M237.02 181.42C236.65 186.96 236.68 186.43 230.92 186.16C218.94 185.6 207.11 183.61 195.16 182.97C192.43 182.82 190.85 182.21 191.19 178.84C191.43 176.43 192.05 175.69 194.45 175.73C207.99 175.93 221.49 176.94 235.01 177.64C238.42 177.82 236.81 179.94 237.03 181.42H237.02Z" fill="#F1E8E0"/>
<path d="M198.82 172.91C197.88 172.91 196.91 173.07 196.02 172.87C194.42 172.52 191.68 174.39 191.68 170.69C191.68 167.77 192.24 165.89 195.9 165.73C201.64 165.48 207.31 166.06 212.99 166.43C220.01 166.88 227.04 167.36 234.03 168.14C235.89 168.35 239.02 167.49 238.44 171.79C238.03 174.85 237.24 175.36 234.32 175.11C222.5 174.1 210.62 174.1 198.8 172.91H198.82Z" fill="#F1E8E0"/>
<path d="M197.86 185.8C209.08 187.92 221.4 187.46 233.61 188.67C237.87 189.09 235.95 191.59 236.1 193.34C236.31 195.66 234.96 195.96 232.75 195.78C219.74 194.7 206.72 193.86 193.71 192.88C192.42 192.78 190.11 193.93 190.54 190.93C190.85 188.76 189.8 185.72 193.74 185.8C194.8 185.82 195.87 185.8 197.86 185.8Z" fill="#F1E8E0"/>
<path d="M202.72 163.07C199.84 163.07 197.7 163.11 195.57 163.06C193.89 163.02 192.47 162.93 192.66 160.42C192.83 158.13 193.67 157.51 195.84 157.56C209.46 157.87 223.09 158.07 236.72 158.32C238.62 158.36 241.08 158.36 239.98 161.19C239.23 163.11 240.41 167.22 235.73 166.1C228.96 164.47 221.97 164.81 215.09 164.11C210.74 163.67 206.41 162.61 202.73 163.07H202.72Z" fill="#F1E8E0"/>
<path d="M197.88 195.95C209.21 197.3 220.62 197.14 231.99 197.8C233.59 197.89 235.14 198.29 234.72 200.27C234.39 201.86 233.97 203.95 231.5 203.46C225.85 202.34 220.09 202.75 214.39 201.92C207.41 200.9 200.3 200.77 193.25 200.19C192 200.09 190.33 200.76 190.3 198.18C190.27 195.39 192.05 196.07 193.48 195.97C194.94 195.87 196.41 195.95 197.88 195.95Z" fill="#F1E8E0"/>
<path d="M172.7 108.49C173.26 107.58 174.01 107.06 175.19 107C175.13 108.59 173.81 108.62 173.13 109.27C172.99 109.01 172.84 108.74 172.7 108.48V108.49Z" fill="#F1E8E0"/>
<path d="M171.8 109.19C172.1 108.96 172.4 108.72 172.71 108.49C172.85 108.75 173 109.02 173.14 109.28C173.06 109.5 172.91 109.65 172.69 109.74C172.39 109.56 172.1 109.37 171.8 109.19Z" fill="#F1E8E0"/>
</svg>
