<svg width="20" height="20" viewBox="0 0 20 20" fill="none" xmlns="http://www.w3.org/2000/svg">
<g clip-path="url(#clip0_688_3939)">
<path d="M9.36673 2.25992C9.59898 1.69361 10.401 1.69361 10.6332 2.25992L12.6042 7.06592L17.9118 7.53115C18.5226 7.58469 18.7602 8.35262 18.2864 8.74183L14.6671 11.715C14.469 11.8778 14.3784 12.1377 14.4326 12.3884L15.5647 17.6299C15.6946 18.2313 15.0267 18.6854 14.5152 18.3433L9.99998 15.3237L5.48474 18.3433C4.97327 18.6854 4.30536 18.2313 4.43526 17.6299L5.56737 12.3884C5.62151 12.1377 5.53098 11.8778 5.33282 11.715L1.71351 8.74183C1.23973 8.35262 1.47739 7.58469 2.0882 7.53115L7.39576 7.06592L9.36673 2.25992Z" fill="black"/>
<path d="M9.36673 2.25992C9.59898 1.69361 10.401 1.69361 10.6332 2.25992L12.6042 7.06592L17.9118 7.53115C18.5226 7.58469 18.7602 8.35262 18.2864 8.74183L14.6671 11.715C14.469 11.8778 14.3784 12.1377 14.4326 12.3884L15.5647 17.6299C15.6946 18.2313 15.0267 18.6854 14.5152 18.3433L9.99998 15.3237L5.48474 18.3433C4.97327 18.6854 4.30536 18.2313 4.43526 17.6299L5.56737 12.3884C5.62151 12.1377 5.53098 11.8778 5.33282 11.715L1.71351 8.74183C1.23973 8.35262 1.47739 7.58469 2.0882 7.53115L7.39576 7.06592L9.36673 2.25992Z" stroke="black" stroke-width="2.05329" stroke-linejoin="round"/>
</g>
<defs>
<clipPath id="clip0_688_3939">
<rect width="20" height="20" fill="white"/>
</clipPath>
</defs>
</svg>
