<svg width="259" height="253" viewBox="0 0 259 253" fill="none" xmlns="http://www.w3.org/2000/svg">
<path d="M129.499 0.40625C100.157 0.40625 81.1357 2.19633 69.2324 4.07653C54.4055 6.41846 46.7543 19.9484 48.2631 33.1885L53.8417 82.1425C53.8266 99.9463 52.9394 112.967 51.8158 122.322C50.8195 130.617 52.5365 139.319 56.7805 146.376C61.0873 153.537 68.2444 159.307 77.8466 160.43C89.7067 161.818 106.403 162.927 129.499 162.927C152.593 162.927 169.29 161.818 181.15 160.43C190.752 159.307 197.909 153.537 202.216 146.376C206.461 139.319 208.177 130.617 207.181 122.322C206.057 112.967 205.17 99.9463 205.155 82.1425L210.734 33.1885C212.242 19.9484 204.591 6.41846 189.765 4.07653C177.861 2.19633 158.839 0.40625 129.499 0.40625Z" fill="#916248"/>
<path fill-rule="evenodd" clip-rule="evenodd" d="M28.5906 104.084C31.6171 95.8248 38.3358 89.9774 46.384 87.3832C55.3492 86.259 68.1956 85.1214 85.0171 84.7667C85.577 84.7549 86.4815 84.9578 87.725 85.9794C88.9977 87.0246 90.2424 88.6425 91.1576 90.5143C93.5276 95.3636 97.4673 100.679 103.9 104.74C110.342 108.806 118.747 111.275 129.5 111.275C140.404 111.275 148.89 108.736 155.361 104.574C161.819 100.42 165.719 95.0027 168.034 90.1186C168.905 88.2805 170.086 86.7018 171.292 85.6779C172.056 85.0284 172.686 84.7134 173.177 84.5728C187.321 84.9381 197.696 85.4543 205.125 85.9525C205.283 85.9631 205.44 85.9749 205.597 85.9878C206.212 86.0539 206.814 86.1206 207.403 86.1884C217.686 87.6321 226.749 94.0937 230.41 104.084H247.188C253.378 104.084 258.396 109.102 258.396 115.292C258.396 121.482 253.378 126.5 247.188 126.5H233.109C233.154 128.17 233.177 129.904 233.177 131.702V134.694C233.177 135.131 233.275 135.573 233.483 136.006C236.427 142.134 244.515 159.323 251.246 176.949C254.292 184.923 255.592 193.29 255.592 201.535L255.593 219.873C255.594 235.867 243.31 249.329 227.057 250.126C207.835 251.069 175.316 252.192 129.5 252.192C83.6839 252.192 51.1651 251.069 31.9436 250.126C15.6908 249.329 3.40642 235.867 3.40642 219.874V201.541C3.40642 193.292 4.70737 184.921 7.75458 176.944C14.4869 159.319 22.5738 142.134 25.5178 136.006C25.7257 135.573 25.8231 135.131 25.8231 134.694V131.702C25.8231 129.904 25.8469 128.17 25.8913 126.5H11.8127C5.62248 126.5 0.60434 121.482 0.60434 115.292C0.60434 109.102 5.62248 104.084 11.8127 104.084H28.5906Z" fill="#4F3421"/>
<path fill-rule="evenodd" clip-rule="evenodd" d="M193.948 146.115C198.591 146.115 202.354 142.351 202.354 137.708C202.354 133.066 198.591 129.302 193.948 129.302H182.74C178.097 129.302 174.333 133.066 174.333 137.708C174.333 142.351 178.097 146.115 182.74 146.115H193.948ZM163.125 137.708C163.125 142.351 159.361 146.115 154.719 146.115H143.511C138.868 146.115 135.104 142.351 135.104 137.708C135.104 133.066 138.868 129.302 143.511 129.302H154.719C159.361 129.302 163.125 133.066 163.125 137.708ZM115.49 146.115C120.132 146.115 123.896 142.351 123.896 137.708C123.896 133.066 120.132 129.302 115.49 129.302H104.281C99.6389 129.302 95.8752 133.066 95.8752 137.708C95.8752 142.351 99.6389 146.115 104.281 146.115H115.49ZM84.6668 137.708C84.6668 142.351 80.9031 146.115 76.2606 146.115H65.0522C60.4098 146.115 56.646 142.351 56.646 137.708C56.646 133.066 60.4098 129.302 65.0522 129.302H76.2606C80.9031 129.302 84.6668 133.066 84.6668 137.708ZM202.354 179.74C206.997 179.74 210.761 175.976 210.761 171.333C210.761 166.691 206.997 162.927 202.354 162.927H191.146C186.503 162.927 182.74 166.691 182.74 171.333C182.74 175.976 186.503 179.74 191.146 179.74H202.354ZM165.927 171.333C165.927 175.976 162.163 179.74 157.521 179.74H146.313C141.67 179.74 137.906 175.976 137.906 171.333C137.906 166.691 141.67 162.927 146.313 162.927H157.521C162.163 162.927 165.927 166.691 165.927 171.333ZM112.688 179.74C117.33 179.74 121.094 175.976 121.094 171.333C121.094 166.691 117.33 162.927 112.688 162.927H101.479C96.8368 162.927 93.0731 166.691 93.0731 171.333C93.0731 175.976 96.8368 179.74 101.479 179.74H112.688ZM76.2606 171.333C76.2606 175.976 72.4968 179.74 67.8543 179.74H56.646C52.0035 179.74 48.2397 175.976 48.2397 171.333C48.2397 166.691 52.0035 162.927 56.646 162.927H67.8543C72.4968 162.927 76.2606 166.691 76.2606 171.333Z" fill="#916248"/>
<path d="M179.938 213.365C184.58 213.365 188.344 209.601 188.344 204.958C188.344 200.316 184.58 196.552 179.938 196.552H79.0627C74.4202 196.552 70.6564 200.316 70.6564 204.958C70.6564 209.601 74.4202 213.365 79.0627 213.365H179.938Z" fill="#916248"/>
<path fill-rule="evenodd" clip-rule="evenodd" d="M174.333 50.8438C178.976 50.8438 182.74 47.0802 182.74 42.4375C182.74 37.7948 178.976 34.0312 174.333 34.0312H84.6668C80.0243 34.0312 76.2606 37.7948 76.2606 42.4375C76.2606 47.0802 80.0243 50.8438 84.6668 50.8438H174.333Z" fill="#4F3421"/>
</svg>
