<svg width="344" height="343" viewBox="0 0 344 343" fill="none" xmlns="http://www.w3.org/2000/svg">
<path d="M224.387 162.856C212.651 162.856 201.26 158.368 192.458 149.911C179.859 137.658 175.372 119.536 180.895 102.622L190.732 72.2466C195.565 57.2314 206.956 53.4344 215.93 56.1958C237.331 62.7542 278.235 102.45 285.483 123.678C288.417 132.653 284.966 144.043 270.123 149.394L240.093 160.267C234.915 162.165 229.737 163.028 224.387 163.028V162.856ZM213.859 82.4293L204.539 110.389C201.95 118.155 204.022 126.094 209.89 131.79C215.758 137.485 223.869 139.211 231.463 136.449L259.25 126.439C251.138 112.805 227.839 90.1958 213.859 82.2567V82.4293Z" fill="white"/>
<path d="M132.574 287.464C130.675 287.464 128.777 287.119 127.051 286.601C105.65 280.043 64.7466 240.348 57.6705 219.119C54.7365 210.145 58.1882 198.754 73.0308 193.404L103.061 182.703C119.63 176.663 137.924 180.632 150.523 193.058C163.122 205.312 167.609 223.434 162.259 240.348L152.249 270.723C148.279 282.805 140.168 287.637 132.401 287.637L132.574 287.464ZM83.7313 216.185C91.843 229.82 115.315 252.602 129.295 260.368L138.442 232.409C141.031 224.642 138.96 216.703 133.092 211.008C127.224 205.312 119.112 203.586 111.518 206.348L83.7313 216.358V216.185Z" fill="white"/>
<path d="M173.123 237.068C158.107 237.068 143.092 230.165 129.803 217.221C102.016 190.124 101.498 157.332 128.595 129.546C155.691 101.759 188.31 101.241 216.27 128.338C229.904 141.454 237.153 156.642 237.326 171.83C237.498 187.018 230.767 202.378 217.478 216.013C204.361 229.647 189.173 236.896 173.986 237.068C173.813 237.068 173.468 237.068 173.295 237.068H173.123ZM172.777 133.515C163.975 133.515 155.346 138.002 146.544 147.15C129.285 164.926 129.458 182.013 147.234 199.444C156.036 208.073 164.666 212.043 173.468 212.216C182.097 212.216 190.727 207.556 199.356 198.754C207.985 189.952 212.3 181.15 212.128 172.52C212.128 163.891 207.468 155.261 198.666 146.632C189.864 138.175 181.234 133.86 172.777 133.86V133.515Z" fill="white"/>
</svg>
