<?xml version="1.0" encoding="UTF-8"?>
<svg id="Livello_1" data-name="Livello 1" xmlns="http://www.w3.org/2000/svg" viewBox="0 0 13.31 13.45">
  <defs>
    <style>
      .cls-1 {
        fill: #fff;
        stroke-width: 0px;
      }
    </style>
  </defs>
  <path class="cls-1" d="M9.72,6.23c-.68,0-1.34-.26-1.85-.75-.73-.71-.99-1.76-.67-2.74l.57-1.76c.28-.87.94-1.09,1.46-.93,1.24.38,3.61,2.68,4.03,3.91.17.52-.03,1.18-.89,1.49h0l-1.74.63c-.3.11-.6.16-.91.16ZM9.11,1.57l-.54,1.62c-.15.45-.03.91.31,1.24.34.33.81.43,1.25.27l1.61-.58c-.47-.79-1.82-2.1-2.63-2.56Z"/>
  <path class="cls-1" d="M4.4,13.45c-.11,0-.22-.02-.32-.05-1.24-.38-3.61-2.68-4.02-3.91-.17-.52.03-1.18.89-1.49l1.74-.62c.96-.35,2.02-.12,2.75.6.73.71.99,1.76.68,2.74l-.58,1.76c-.23.7-.7.98-1.15.98ZM1.57,9.32c.47.79,1.83,2.11,2.64,2.56l.53-1.62c.15-.45.03-.91-.31-1.24-.34-.33-.81-.43-1.25-.27l-1.61.58Z"/>
  <path class="cls-1" d="M6.75,10.53c-.87,0-1.74-.4-2.51-1.15-1.61-1.57-1.64-3.47-.07-5.08,1.57-1.61,3.46-1.64,5.08-.07.79.76,1.21,1.64,1.22,2.52s-.38,1.77-1.15,2.56c-.76.79-1.64,1.21-2.52,1.22-.01,0-.03,0-.04,0ZM6.73,4.53c-.51,0-1.01.26-1.52.79-1,1.03-.99,2.02.04,3.03.51.5,1.01.73,1.52.74.5,0,1-.27,1.5-.78h0c.5-.51.75-1.02.74-1.52,0-.5-.27-1-.78-1.5-.51-.49-1.01-.74-1.5-.74Z"/>
</svg>