<svg width="20" height="20" viewBox="0 0 20 20" fill="none" xmlns="http://www.w3.org/2000/svg">
<path d="M9.0449 2.76314C8.97714 2.72267 8.89969 2.70129 8.82076 2.70129C8.74183 2.70129 8.66438 2.72267 8.59662 2.76314C8.54073 2.80742 8.50302 2.87067 8.49062 2.94089C8.47823 3.01111 8.49202 3.08344 8.52938 3.14418C9.90784 5.53127 10.1992 8.78129 8.31645 10.5744C7.59206 9.96567 7.01696 9.19888 6.6354 8.33301C5.93914 8.71971 5.36212 9.28975 4.96698 9.98125C4.57183 10.6728 4.37367 11.4593 4.394 12.2555C4.51205 15.1708 6.38884 17.2986 9.99749 17.2986C13.6061 17.2986 15.4777 15.0572 15.601 12.2555C15.7467 8.89336 13.3596 4.75799 9.0449 2.76314Z" fill="#FC9042" stroke="#FC9042" stroke-width="0.545399" stroke-linecap="round" stroke-linejoin="round"/>
<path d="M12.7998 12.256C12.7998 12.8504 12.5637 13.4205 12.1434 13.8408C11.7231 14.2611 11.153 14.4972 10.5586 14.4972" fill="white"/>
<path d="M12.7998 12.256C12.7998 12.8504 12.5637 13.4205 12.1434 13.8408C11.7231 14.2611 11.153 14.4972 10.5586 14.4972" stroke="white" stroke-width="1.62304" stroke-linecap="round" stroke-linejoin="round"/>
</svg>
