<svg width="20" height="20" viewBox="0 0 20 20" fill="none" xmlns="http://www.w3.org/2000/svg">
<rect x="8.61548" y="3.50452" width="4" height="4" fill="white"/>
<path d="M10.6078 7.50176C11.7116 7.50176 12.6064 6.60694 12.6064 5.50314C12.6064 4.39933 11.7116 3.50452 10.6078 3.50452C9.50394 3.50452 8.60913 4.39933 8.60913 5.50314C8.60913 6.60694 9.50394 7.50176 10.6078 7.50176Z" stroke="#D771E0" stroke-width="1.55892" stroke-linecap="round" stroke-linejoin="round"/>
<path d="M10.6079 7.50183V10.4598C10.6079 11.0338 11.0745 11.4884 11.6466 11.5342C13.8956 11.7142 14.6814 12.6798 15.3846 16.4956" stroke="#D771E0" stroke-width="1.55892" stroke-linecap="round" stroke-linejoin="round"/>
<path d="M8.10952 9.50012C7.47817 9.50076 6.85876 9.67228 6.31701 9.99649C5.77526 10.3207 5.33136 10.7855 5.03242 11.3416C4.73347 11.8977 4.59062 12.5243 4.61902 13.155C4.64742 13.7857 4.84601 14.397 5.19373 14.924C5.54144 15.451 6.02531 15.874 6.59401 16.1482C7.16271 16.4224 7.79503 16.5376 8.42388 16.4815C9.05274 16.4253 9.65468 16.2001 10.1659 15.8295C10.677 15.459 11.0784 14.957 11.3273 14.3768" stroke="#D771E0" stroke-width="1.55892" stroke-linecap="round" stroke-linejoin="round"/>
</svg>
