<svg width="16" height="16" viewBox="0 0 16 16" fill="none" xmlns="http://www.w3.org/2000/svg">
<path d="M8.50268 5.93306C9.41587 5.93306 10.1562 5.19279 10.1562 4.27959C10.1562 3.3664 9.41587 2.6261 8.50268 2.6261C7.5894 2.6261 6.84912 3.3664 6.84912 4.27959C6.84912 5.19279 7.5894 5.93306 8.50268 5.93306Z" stroke="#D771E0" stroke-width="1.28972" stroke-linecap="round" stroke-linejoin="round"/>
<path d="M8.50269 5.93317V8.38037C8.50269 8.85517 8.88871 9.23127 9.36202 9.26916C11.2227 9.41816 11.8728 10.217 12.4545 13.3739" stroke="#D771E0" stroke-width="1.28972" stroke-linecap="round" stroke-linejoin="round"/>
<path d="M6.43583 7.58636C5.91354 7.58686 5.40108 7.72883 4.95287 7.99704C4.50467 8.26526 4.13743 8.6498 3.89011 9.10987C3.64278 9.56994 3.5246 10.0883 3.5481 10.6101C3.57159 11.1319 3.73589 11.6377 4.02356 12.0736C4.31123 12.5096 4.71155 12.8596 5.18204 13.0864C5.65253 13.3133 6.17564 13.4085 6.69594 13.3621C7.21615 13.3157 7.7142 13.1293 8.13712 12.8228C8.55996 12.5162 8.89205 12.1009 9.09797 11.6209" stroke="#D771E0" stroke-width="1.28972" stroke-linecap="round" stroke-linejoin="round"/>
<path d="M9.81813 3.03613H7.33618V5.51808H9.81813V3.03613Z" fill="#D771E0"/>
</svg>
