<svg width="24" height="24" viewBox="0 0 24 24" fill="none" xmlns="http://www.w3.org/2000/svg">
<path d="M12.0004 12.6448C14.3322 12.6448 16.2224 10.7545 16.2224 8.42274C16.2224 6.09096 14.3322 4.20068 12.0004 4.20068C9.6686 4.20068 7.77832 6.09096 7.77832 8.42274C7.77832 10.7545 9.6686 12.6448 12.0004 12.6448Z" stroke="black" stroke-width="2.98794" stroke-linecap="round" stroke-linejoin="round"/>
<path d="M18.8939 19.165C18.5251 17.6787 17.6849 16.3484 16.495 15.3759C15.2263 14.3389 13.6382 13.7725 11.9997 13.7725C10.3611 13.7725 8.77299 14.3389 7.50433 15.3759C6.31447 16.3484 5.47426 17.6787 5.10547 19.1649C5.46187 19.2838 5.83404 19.3668 6.21754 19.4095C8.0988 19.6192 10.0304 19.7993 11.9997 19.7993C13.9691 19.7993 15.9007 19.6192 17.7819 19.4095C18.1654 19.3668 18.5375 19.2838 18.8939 19.165Z" stroke="black" stroke-width="2.98794" stroke-linecap="round" stroke-linejoin="round"/>
</svg>
