<svg width="24" height="24" viewBox="0 0 24 24" fill="none" xmlns="http://www.w3.org/2000/svg">
<path d="M15.4581 3.59351H8.5419L6.82539 6.70282C6.48586 6.73146 6.1483 6.76071 5.81279 6.78969C4.37814 6.91358 3.19716 8.01893 2.98697 9.44349C2.79655 10.734 2.625 12.0632 2.625 13.4206C2.625 14.7781 2.79655 16.1072 2.98697 17.3977C3.19716 18.8223 4.37814 19.9277 5.81279 20.0516C7.87116 20.2294 9.93229 20.4065 12 20.4065C14.0677 20.4065 16.1288 20.2294 18.1872 20.0516C19.6219 19.9277 20.8028 18.8223 21.013 17.3977C21.2034 16.1072 21.375 14.7781 21.375 13.4206C21.375 12.0632 21.2034 10.734 21.013 9.44349C20.8028 8.01893 19.6219 6.91358 18.1872 6.78969C17.8497 6.76053 17.5122 6.73129 17.1746 6.70282L15.4581 3.59351Z" stroke="black" stroke-width="2.25003" stroke-linejoin="round"/>
<path d="M12.001 16.3533C13.8649 16.3533 15.376 14.8422 15.376 12.9783C15.376 11.1143 13.8649 9.60327 12.001 9.60327C10.137 9.60327 8.62598 11.1143 8.62598 12.9783C8.62598 14.8422 10.137 16.3533 12.001 16.3533Z" stroke="black" stroke-width="2.25003" stroke-linecap="round" stroke-linejoin="round"/>
</svg>
