<svg width="254" height="280" viewBox="0 0 254 280" fill="none" xmlns="http://www.w3.org/2000/svg">
<path d="M1.81998 208.46C-10.44 182.09 52.81 188.39 58.38 170.07C63.94 151.75 -1.88002 141.28 13.88 108.99C29.64 76.7 42.36 94.16 58.72 85.43C75.08 76.7 64.88 48.78 87.13 47.04C109.38 45.3 146.47 73.22 164.08 91.54C181.7 109.86 235.16 82.1299 241.03 116.72C244.47 137 206.73 148.26 205.8 166.58C204.87 184.9 248.45 186.65 244.74 214.57C241.03 242.49 187.26 221.55 168.71 231.15C150.17 240.75 154.8 275.65 114.94 279.14C75.08 282.63 73.22 257.33 54.68 239C36.14 220.68 14.81 236.38 1.82996 208.46H1.81998Z" fill="#F1E8E1"/>
<path d="M204.72 148.46C204.15 166.57 196.54 182.28 183.16 195.23C179.9 198.39 179.1 200.46 182.47 203.92C185.82 207.35 188.67 211.28 191.67 215.04C193.23 217 194.18 219.4 191.98 221.24C189.58 223.25 187.62 221.21 186.19 219.43C182.66 215.04 179.17 210.6 175.96 205.98C174.29 203.58 172.95 203.27 170.3 204.63C146.98 216.58 123.66 215.25 100.74 203.69C95.7499 201.18 93.2499 201.33 90.4799 206.42C86.13 214.4 81.1299 222.03 76.1499 229.65C74.7099 231.85 73.3499 235.97 69.4999 233.36C65.7199 230.79 68.4399 227.65 70.0599 225.17C75.2099 217.27 80.3899 209.37 85.9699 201.77C88.5799 198.22 88.4399 196.29 84.9299 193.41C62.1399 174.71 54.1699 144.85 64.7599 117.64C68.4599 108.14 74.2499 99.7699 81.9299 92.9599C85.0799 90.1699 85.7499 88.2099 82.9999 84.5699C76.7199 76.2399 76.8699 76.0199 68.8499 82.6399C63.9899 86.6599 59.2899 90.8799 54.5899 95.0799C51.6299 97.7199 49.3899 98.9999 46.5899 94.4299C36.8699 78.5799 34.6599 61.2799 47.0199 45.9999C49.3699 43.0899 49.2899 41.4499 47.0499 39.0799C46.3899 38.3799 46.0299 37.3899 45.5599 36.5199C44.7399 35.0299 43.8099 33.3999 45.7699 32.1799C47.3699 31.1799 49.0099 32.2099 49.6099 33.4499C52.4399 39.2999 56.0799 38.0099 60.9899 35.9399C76.0499 29.5799 93.0199 34.0599 103.81 46.4599C106.14 49.1299 106.76 50.8699 103.26 53.4599C96.1999 58.6899 89.6399 64.5799 82.8099 70.1099C80.9999 71.5799 80.1599 72.6799 82.1299 74.8299C84.9199 77.8799 86.7099 82.3899 90.0599 84.2299C94.0099 86.3999 97.1499 81.4799 100.75 79.9299C120.36 71.4799 139.9 71.3599 159.49 79.6599C161.61 80.5599 162.27 79.9299 163.25 78.3299C167.28 71.6699 171.32 65.0199 175.56 58.4899C177.11 56.0999 176.82 55.0199 174.31 53.5599C166.31 48.9199 158.5 43.9499 150.58 39.1599C147.36 37.2099 146.58 35.2199 148.87 31.6899C157.81 17.9299 169.09 7.69991 186.1 5.41991C190.47 4.82991 194.83 4.94991 198.83 6.75991C202.86 8.58991 205.67 8.03991 207.66 3.97991C208.01 3.25991 208.69 2.69989 209.22 2.05989C210.17 0.909894 211.42 0.3199 212.72 1.1599C214.12 2.0699 213.89 3.55989 212.97 4.64989C208.79 9.55989 211.29 12.6299 214.92 16.8399C226.12 29.8299 225.22 44.9099 220.1 59.9699C214.03 77.8199 213.03 77.9999 197.27 68.1299C193.22 65.5899 188.96 63.3199 185.15 60.4599C182.61 58.5499 181.28 58.8099 179.74 61.3699C176.15 67.3199 172.55 73.2599 168.71 79.0499C166.83 81.8899 167.27 83.1999 170.19 85.1399C189.82 98.1399 201.27 116.38 204.29 139.76C204.63 142.39 204.59 145.06 204.77 148.47L204.72 148.46Z" fill="#4F3421"/>
<path d="M122.98 260.15C114.21 259.85 100.33 259.6 87.4399 255.89C74.2499 252.09 73.1899 245.21 84.9899 239.92C93.3199 236.19 103.18 235 113.07 234.51C133.77 233.49 154.12 234.79 173.56 239.58C179.1 240.94 185.57 242.62 185.39 246.83C185.23 250.78 178.85 252.38 173.63 253.85C159.2 257.91 144 260.02 122.98 260.15Z" fill="#4F3421"/>
<path d="M253.16 133.5C252.34 151.22 247.88 163.84 240.47 175.48C239.49 177.02 238.38 179.8 236.14 178.2C234.4 176.96 236.47 174.95 237.29 173.45C243.3 162.44 247.62 150.86 248.06 138.21C248.61 122.5 243.88 108.27 234.98 95.3697C234.23 94.2797 233.33 93.2897 232.57 92.2097C231.44 90.5897 230.82 88.8697 232.63 87.3397C234.59 85.6797 236.29 87.1597 237.32 88.4497C239.68 91.4197 241.9 94.5497 243.75 97.8497C250.62 110.1 254.05 123.2 253.16 133.49V133.5Z" fill="#4F3421"/>
<path d="M26.39 145.26C26.35 130.4 30.07 119.04 35.95 108.3C36.83 106.69 38.01 104.15 40.22 105.27C42.49 106.42 41.1499 108.93 40.3299 110.6C36.0099 119.37 32.2399 128.22 31.5799 138.21C30.4799 154.86 36.2 169.33 44.97 183C46.25 184.99 49.5999 187.69 46.6099 189.59C44.4499 190.96 42.34 187.47 40.95 185.28C32.7 172.28 26.1299 158.7 26.3999 145.25L26.39 145.26Z" fill="#4F3421"/>
<path d="M225.61 140.19C225.6 132.6 222.99 125.69 219.65 118.98C218.69 117.06 216.94 114.58 219.09 113.2C221.74 111.5 223.25 114.53 224.26 116.38C232.45 131.22 232.6 146.25 224.87 161.33C224.43 162.19 223.73 162.97 223.01 163.63C222.22 164.35 221.58 165.98 220.28 165.21C218.93 164.4 219.39 162.81 219.98 161.64C222.6 156.43 224.35 150.97 225.18 145.21C225.41 143.57 225.46 141.91 225.6 140.2L225.61 140.19Z" fill="#4F3421"/>
<path d="M43.56 142.52C43.51 137.14 44.37 131.46 47.18 126.24C47.95 124.81 49.01 122.88 50.87 123.6C53.33 124.55 52.06 126.91 51.43 128.32C45.36 141.93 47.76 154.66 55.1 166.96C56.09 168.63 57.96 170.94 56.04 172.21C53.57 173.85 52.4 170.78 51.34 169.14C46.21 161.21 43.26 152.57 43.55 142.53L43.56 142.52Z" fill="#4F3421"/>
<path d="M124.72 199.25C93.8299 200.61 69.1199 178.19 65.1799 150.06C62.9199 133.93 65.9899 118.74 76.4699 105.62C90.5799 87.9496 108.47 77.6497 131.56 77.7597C158 77.8897 176.56 93.2296 184.16 120.98C193.86 156.41 171.31 191.42 135.17 199.15C131.83 199.86 128.21 199.24 124.72 199.24V199.25Z" fill="#F1E8E0"/>
<path d="M219.03 41.6197C218.78 50.4197 216.48 59.4297 211.66 67.7697C210.35 70.0397 209.38 71.2897 206.46 69.3997C189.28 58.2897 171.95 47.3998 154.7 36.3898C153.82 35.8298 151.92 35.6697 153.34 33.6197C160.92 22.6697 169.36 12.4997 183.31 9.98974C204.29 6.20974 219.16 19.3397 219.03 41.6097V41.6197Z" fill="#F1E8E0"/>
<path d="M51.0199 91.5099C35.8599 72.7499 42.9399 46.1299 65.1299 38.1299C76.5799 33.9999 91.4299 38.4599 99.4099 48.0299C101.53 50.5699 99.5099 51.1299 98.2999 52.1399C83.9599 64.1699 69.5699 76.1499 55.1999 88.1399C53.8199 89.2899 52.4099 90.3899 51.0099 91.5199L51.0199 91.5099Z" fill="#F1E8E0"/>
<path d="M199.86 148.69C199.92 156.02 198.65 163.1 195.77 169.93C194.55 172.83 193.6 172.62 191.1 171.26C185.39 168.15 184.66 165.02 187.01 158.48C193.12 141.49 191.65 124.31 184.32 107.72C183.71 106.34 181.86 104.52 183.75 103.5C185.42 102.59 186.14 105.01 187.06 106.23C196.49 118.83 199.76 133.29 199.86 148.69Z" fill="#F1E8E0"/>
<path d="M171.58 137.76C170.67 167.28 150.22 185.25 124.48 186.05C99.34 186.84 78.8 164.45 79.82 137.73C80.73 113.9 100.67 93.66 128.6 93.08C152.42 92.59 171.66 112.78 171.58 137.75V137.76Z" fill="#4F3421"/>
<path d="M211.56 44.3597C212.07 48.3197 210.81 52.2697 209.52 56.2097C209.1 57.4897 208.27 58.8297 206.75 58.5397C205.16 58.2397 204.19 56.9397 204.39 55.2197C204.67 52.7597 205.22 50.3297 205.49 47.8597C206.11 42.1797 205.32 36.6597 203.63 31.1997C203.08 29.4097 202.42 26.7997 204.9 26.0497C207.22 25.3497 208.44 27.7297 209.1 29.4997C210.84 34.1697 211.84 39.0297 211.57 44.3497L211.56 44.3597Z" fill="#4F3421"/>
<path d="M48.6299 69.2199C49.2099 65.4399 49.1499 61.3998 51.4399 57.9298C52.1699 56.8298 52.9299 55.5199 54.4999 56.0399C55.8199 56.4699 56.0399 57.9298 55.7199 58.9898C53.7899 65.4798 53.5999 71.8898 55.8299 78.3598C56.2499 79.5798 55.4499 80.6199 54.2199 81.0599C52.6099 81.6399 51.5899 80.5699 51.0999 79.3699C49.7899 76.1699 48.6999 72.8699 48.6299 69.2299V69.2199Z" fill="#4F3421"/>
<path d="M85.4199 140.02C83.6699 118.7 105.88 96.3301 132.89 97.4401C151.5 98.2001 167.15 115.36 166.97 136.12C166.75 162.12 147.46 181.71 122.53 181.5C104.47 181.35 83.7899 161.66 85.4299 140.02H85.4199Z" fill="#F1E8E0"/>
<path d="M151.82 116.74C152.65 116.56 153.48 116.64 153.52 117.39C153.55 118.11 153.25 119.11 152.72 119.53C150.67 121.18 148.51 122.71 146.31 124.17C140.68 127.92 135.1 131.74 129.33 135.26C126.37 137.06 125.28 138.96 126.09 142.54C127.63 149.28 128.64 156.14 129.78 162.97C129.95 164.01 130.33 165.55 128.9 165.97C127.47 166.39 126.86 164.89 126.59 163.91C124.08 155.05 121.67 146.16 119.28 137.26C118.89 135.8 119.68 134.59 120.88 133.91C130.91 128.24 140.97 122.63 151.02 117.01C151.3 116.85 151.64 116.78 151.81 116.72L151.82 116.74Z" fill="#4F3421"/>
</svg>
