<svg width="20" height="20" viewBox="0 0 20 20" fill="none" xmlns="http://www.w3.org/2000/svg">
<path d="M17.8165 16.367C16.9385 15.3209 16.463 13.9957 16.4756 12.63V6.94647C16.4756 4.4262 14.7667 2.37524 12.6662 2.37524H5.80936C3.70888 2.37524 2 4.4262 2 6.94647C2 9.46674 3.70888 11.5177 5.80936 11.5177H8.09497V12.63C8.08251 14.3591 8.68769 16.0357 9.80156 17.3582C9.87313 17.4418 9.96193 17.5089 10.0619 17.5549C10.1618 17.601 10.2705 17.6248 10.3806 17.6249H17.2374C17.3832 17.625 17.526 17.5833 17.6488 17.5047C17.7716 17.4262 17.8692 17.314 17.9302 17.1816C17.9912 17.0491 18.0128 16.902 17.9927 16.7576C17.9725 16.6132 17.9114 16.4777 17.8165 16.367ZM5.80936 9.99472C4.54922 9.99472 3.52374 8.62716 3.52374 6.94724C3.52374 5.26731 4.54922 3.89975 5.80936 3.89975C7.06949 3.89975 8.09497 5.26655 8.09497 6.94724C8.09497 8.62792 7.06949 9.99472 5.80936 9.99472ZM10.7455 16.1004C10.0048 15.0958 9.60941 13.8782 9.61871 12.63V7.29693C9.61871 7.2756 9.60805 7.25732 9.60652 7.23598C9.61186 7.13999 9.61871 7.04475 9.61871 6.94647C9.62886 5.85188 9.2858 4.78318 8.64047 3.89899H12.6662C13.9263 3.89899 14.9518 5.26655 14.9518 6.94647V12.63C14.9479 13.839 15.2404 15.0306 15.8036 16.1004H10.7455ZM5.80936 5.9949C5.5832 6.02282 5.37693 6.13806 5.23458 6.31599C5.09223 6.49393 5.02509 6.72047 5.04749 6.94724C5.02509 7.174 5.09223 7.40054 5.23458 7.57848C5.37693 7.75641 5.5832 7.87165 5.80936 7.89957C6.03551 7.87165 6.24178 7.75641 6.38413 7.57848C6.52648 7.40054 6.59363 7.174 6.57123 6.94724C6.59363 6.72047 6.52648 6.49393 6.38413 6.31599C6.24178 6.13806 6.03551 6.02282 5.80936 5.9949Z" fill="white" stroke="white" stroke-width="0.5"/>
</svg>
