<svg width="20" height="20" viewBox="0 0 20 20" fill="none" xmlns="http://www.w3.org/2000/svg">
<path d="M17.6484 10.998H16.2492" stroke="white" stroke-width="1.79619" stroke-linecap="round" stroke-linejoin="round"/>
<path d="M9.11426 10.998H7.62255" stroke="white" stroke-width="1.79619" stroke-linecap="round" stroke-linejoin="round"/>
<path d="M13.25 10.998H12.0661" stroke="white" stroke-width="1.79619" stroke-linecap="round" stroke-linejoin="round"/>
<path d="M7.8857 6.83949C7.8857 4.07935 6.01169 3.06467 4.76964 3.06467C4.76964 3.06467 8.12722 2.76855 9.77494 2.76855C10.5157 2.76855 11.9364 2.82503 13.276 2.88721C15.183 2.97572 16.8454 4.21017 17.2793 6.02985C18.1808 9.81034 17.6864 13.3312 16.4341 17.019C13.2692 17.3268 9.57725 17.3268 6.41229 17.019C6.9032 15.7431 7.8857 11.0446 7.8857 6.83949Z" stroke="white" stroke-width="1.79619" stroke-linecap="round" stroke-linejoin="round"/>
<path d="M5.06669 11.0169C3.25889 11.0169 2.24188 9.58298 2.24188 7.03383C2.24188 4.48468 3.25889 3.05078 5.06669 3.05078C6.87464 3.05078 7.8916 4.48468 7.8916 7.03383C7.8916 9.58298 6.87464 11.0169 5.06669 11.0169Z" stroke="white" stroke-width="1.79619" stroke-linecap="round" stroke-linejoin="round"/>
<path d="M4.20515 7.02622C4.20515 7.79092 4.38022 8.41083 5.009 8.41083C5.63778 8.41083 5.89746 7.79092 5.89746 7.02622C5.89746 6.26152 5.6086 5.6416 5.009 5.6416C4.4094 5.6416 4.20515 6.26152 4.20515 7.02622Z" fill="white"/>
</svg>
