<svg width="26" height="26" viewBox="0 0 26 26" fill="none" xmlns="http://www.w3.org/2000/svg">
<path d="M18.4266 11.0328L16.6826 11.6582C15.1673 12.2016 13.6895 10.7656 14.1891 9.23535L14.7642 7.47413C14.8558 7.19356 15.0451 6.92367 15.3276 7.00929C16.3412 7.31658 18.5388 9.45194 18.875 10.4563C18.9687 10.7362 18.7044 10.9332 18.4266 11.0328Z" stroke="#F6B092" stroke-width="1.45178" stroke-linejoin="round"/>
<path d="M11.1612 18.51L11.7362 16.7488C12.2358 15.2186 10.758 13.7826 9.2427 14.3259L7.49872 14.9513C7.22089 15.0509 6.95655 15.2479 7.05025 15.5278C7.38651 16.5322 9.58408 18.6676 10.5977 18.9749C10.8802 19.0605 11.0696 18.7906 11.1612 18.51Z" stroke="#F6B092" stroke-width="1.45178" stroke-linejoin="round"/>
<path d="M15.1 15.0687C16.3779 13.7536 16.357 12.295 15.0418 11.017C13.7267 9.73911 12.2681 9.76005 10.9902 11.0752C9.71225 12.3904 9.73319 13.849 11.0483 15.1269C12.3635 16.4048 13.8221 16.3839 15.1 15.0687Z" stroke="#F6B092" stroke-width="1.45178" stroke-linecap="round" stroke-linejoin="round"/>
</svg>
