<svg width="16" height="16" viewBox="0 0 16 16" fill="none" xmlns="http://www.w3.org/2000/svg">
<path d="M13.2372 6.12209L11.5656 6.72151C10.1133 7.24234 8.69685 5.86599 9.1757 4.3993L9.72691 2.71123C9.8147 2.44232 9.99614 2.18364 10.2669 2.2657C11.2384 2.56023 13.3447 4.60689 13.667 5.56953C13.7568 5.83781 13.5034 6.02662 13.2372 6.12209Z" stroke="#FF9696" stroke-width="1.39148" stroke-linejoin="round"/>
<path d="M6.27334 13.2887L6.82446 11.6007C7.3033 10.134 5.88689 8.75768 4.43453 9.27842L2.76299 9.87784C2.4967 9.9733 2.24334 10.1621 2.33314 10.4304C2.65544 11.3931 4.76173 13.4398 5.73325 13.7343C6.00401 13.8164 6.18554 13.5577 6.27334 13.2887Z" stroke="#FF9696" stroke-width="1.39148" stroke-linejoin="round"/>
<path d="M10.0486 9.99037C11.2734 8.72989 11.2533 7.33188 9.99277 6.10696C8.73229 4.88215 7.33428 4.90222 6.10946 6.16275C4.88459 7.42332 4.90466 8.82133 6.16515 10.0462C7.42572 11.271 8.82373 11.2509 10.0486 9.99037Z" stroke="#FF9696" stroke-width="1.39148" stroke-linecap="round" stroke-linejoin="round"/>
</svg>
