<svg width="28" height="28" viewBox="0 0 28 28" fill="none" xmlns="http://www.w3.org/2000/svg">
<path d="M3.80176 19.6056V21.1746C3.80176 22.0069 4.13237 22.8051 4.72087 23.3936C5.30937 23.9821 6.10755 24.3127 6.93981 24.3127H21.0611C21.8933 24.3127 22.6915 23.9821 23.28 23.3936C23.8685 22.8051 24.1991 22.0069 24.1991 21.1746V19.6056" stroke="black" stroke-width="2.7" stroke-linecap="round" stroke-linejoin="round"/>
<path d="M14.0004 12.1853C12.8291 12.1853 11.1185 12.0078 9.80854 11.8469C8.80778 11.724 8.17062 10.7205 8.56927 9.79443C9.53126 7.5596 11.0188 5.48721 13.2635 4.1024C13.7153 3.82367 14.2854 3.82365 14.7372 4.10236C16.982 5.48703 18.4695 7.55949 19.4315 9.79431C19.8301 10.7204 19.193 11.7239 18.1923 11.8468C16.8823 12.0077 15.1717 12.1853 14.0004 12.1853Z" stroke="black" stroke-width="2.7" stroke-linecap="round" stroke-linejoin="round"/>
<path d="M14 12.1854L14 19.6053" stroke="black" stroke-width="2.7" stroke-linecap="round" stroke-linejoin="round"/>
</svg>
