<svg width="40" height="40" viewBox="0 0 40 40" fill="none" xmlns="http://www.w3.org/2000/svg">
<path fill-rule="evenodd" clip-rule="evenodd" d="M30.4407 8.30203C25.1687 3.72409 17.0749 4.26381 12.3974 9.5052C10.5139 11.6158 9.63474 15.1635 9.62735 15.1994C8.2108 20.7408 8.61318 30.8759 9.56498 31.7023C10.4437 32.4653 20.9036 31.6311 26.1445 29.5418C26.1784 29.5289 29.6344 28.2188 31.5179 26.1082C36.1953 20.8668 35.7116 12.8789 30.4395 8.30093L30.4407 8.30203Z" fill="#4F3421"/>
<path d="M28.4773 23.5591C27.7052 22.6515 27.2871 21.5019 27.2981 20.3171V15.3865C27.2981 13.2001 25.7952 11.4209 23.9479 11.4209H17.9176C16.0703 11.4209 14.5674 13.2001 14.5674 15.3865C14.5674 17.5729 16.0703 19.3522 17.9176 19.3522H19.9277V20.3171C19.9167 21.8171 20.4489 23.2717 21.4286 24.4189C21.4915 24.4914 21.5696 24.5497 21.6575 24.5896C21.7454 24.6295 21.841 24.6502 21.9378 24.6503H27.9681C28.0963 24.6504 28.2219 24.6142 28.3299 24.546C28.4379 24.4779 28.5238 24.3806 28.5774 24.2657C28.631 24.1508 28.65 24.0232 28.6323 23.8979C28.6146 23.7727 28.5608 23.6551 28.4773 23.5591ZM17.9176 18.031C16.8093 18.031 15.9075 16.8446 15.9075 15.3872C15.9075 13.9298 16.8093 12.7434 17.9176 12.7434C19.0258 12.7434 19.9277 13.9292 19.9277 15.3872C19.9277 16.8452 19.0258 18.031 17.9176 18.031ZM22.2587 23.3277C21.6073 22.4562 21.2596 21.3999 21.2677 20.3171V15.6906C21.2677 15.6721 21.2584 15.6562 21.257 15.6377C21.2617 15.5544 21.2677 15.4718 21.2677 15.3865C21.2767 14.4369 20.975 13.5098 20.4074 12.7428H23.9479C25.0561 12.7428 25.958 13.9292 25.958 15.3865V20.3171C25.9546 21.366 26.2118 22.3997 26.7071 23.3277H22.2587ZM17.9176 14.561C17.7187 14.5852 17.5373 14.6852 17.4121 14.8396C17.2869 14.9939 17.2278 15.1905 17.2475 15.3872C17.2278 15.5839 17.2869 15.7804 17.4121 15.9348C17.5373 16.0892 17.7187 16.1891 17.9176 16.2134C18.1165 16.1891 18.2979 16.0892 18.4231 15.9348C18.5482 15.7804 18.6073 15.5839 18.5876 15.3872C18.6073 15.1905 18.5482 14.9939 18.4231 14.8396C18.2979 14.6852 18.1165 14.5852 17.9176 14.561Z" fill="#F0ECE9"/>
</svg>
