<svg width="70" height="71" viewBox="0 0 70 71" fill="none" xmlns="http://www.w3.org/2000/svg">
<path fill-rule="evenodd" clip-rule="evenodd" d="M53.2708 14.7285C44.0447 6.60685 29.8805 7.56435 21.695 16.863C18.3989 20.6074 16.8603 26.9013 16.8474 26.9649C14.3684 36.7959 15.0726 54.7764 16.7382 56.2427C18.2759 57.5963 36.5808 56.1163 45.7525 52.4097C45.8117 52.3869 51.8597 50.0625 55.1558 46.3181C63.3413 37.0194 62.4948 22.8482 53.2686 14.7266L53.2708 14.7285Z" fill="white"/>
<path d="M48.8562 41.9182C47.5051 40.3081 46.7732 38.2685 46.7925 36.1667V27.4194C46.7925 23.5406 44.1624 20.384 40.9297 20.384H30.3766C27.1439 20.384 24.5138 23.5406 24.5138 27.4194C24.5138 31.2982 27.1439 34.4548 30.3766 34.4548H33.8943V36.1667C33.8751 38.8278 34.8065 41.4083 36.5208 43.4437C36.631 43.5723 36.7677 43.6756 36.9215 43.7464C37.0753 43.8173 37.2426 43.854 37.412 43.8541H47.9651C48.1894 43.8543 48.4091 43.7901 48.5981 43.6692C48.7871 43.5482 48.9374 43.3756 49.0313 43.1718C49.1251 42.968 49.1585 42.7415 49.1274 42.5193C49.0964 42.2971 49.0023 42.0885 48.8562 41.9182ZM30.3766 32.1108C28.4372 32.1108 26.8589 30.0061 26.8589 27.4206C26.8589 24.8351 28.4372 22.7303 30.3766 22.7303C32.316 22.7303 33.8943 24.8339 33.8943 27.4206C33.8943 30.0073 32.316 32.1108 30.3766 32.1108ZM37.9736 41.5078C36.8336 39.9616 36.2251 38.0877 36.2394 36.1667V27.9588C36.2394 27.926 36.223 27.8978 36.2207 27.865C36.2289 27.7172 36.2394 27.5707 36.2394 27.4194C36.255 25.7348 35.7271 24.09 34.7339 22.7292H40.9297C42.8691 22.7292 44.4474 24.8339 44.4474 27.4194V36.1667C44.4413 38.0274 44.8914 39.8613 45.7583 41.5078H37.9736ZM30.3766 25.9549C30.0285 25.9979 29.7111 26.1752 29.492 26.4491C29.2729 26.7229 29.1696 27.0716 29.204 27.4206C29.1696 27.7696 29.2729 28.1182 29.492 28.3921C29.7111 28.666 30.0285 28.8433 30.3766 28.8863C30.7247 28.8433 31.0421 28.666 31.2612 28.3921C31.4803 28.1182 31.5836 27.7696 31.5492 27.4206C31.5836 27.0716 31.4803 26.7229 31.2612 26.4491C31.0421 26.1752 30.7247 25.9979 30.3766 25.9549Z" fill="#4F3421"/>
</svg>
