<svg width="24" height="24" viewBox="0 0 24 24" fill="none" xmlns="http://www.w3.org/2000/svg">
<path d="M2.03378 17.3931C2.2881 19.7701 4.19996 21.682 6.57588 21.9468C8.34064 22.1436 10.1526 22.3125 12 22.3125C13.8474 22.3125 15.6594 22.1436 17.4241 21.9468C19.8 21.682 21.7119 19.7701 21.9662 17.3931C22.154 15.6383 22.3125 13.8367 22.3125 12C22.3125 10.1633 22.154 8.36172 21.9662 6.60692C21.7119 4.22986 19.8 2.31799 17.4241 2.05315C15.6594 1.85645 13.8474 1.6875 12 1.6875C10.1526 1.6875 8.34064 1.85645 6.57588 2.05315C4.19996 2.31799 2.2881 4.22986 2.03378 6.60692C1.84604 8.36172 1.6875 10.1633 1.6875 12C1.6875 13.8367 1.84604 15.6383 2.03378 17.3931Z" stroke="black" stroke-width="2.475"/>
</svg>
