<svg width="246" height="280" viewBox="0 0 246 280" fill="none" xmlns="http://www.w3.org/2000/svg">
<path d="M2.29999 198.75C-9.96001 172.38 53.29 178.68 58.86 160.36C64.42 142.04 -1.4 131.57 14.36 99.28C30.12 66.99 42.84 84.45 59.2 75.72C75.55 66.99 65.36 39.07 87.61 37.33C109.86 35.59 146.95 63.51 164.56 81.83C182.18 100.15 235.64 72.42 241.51 107.01C244.95 127.29 207.21 138.55 206.28 156.87C205.35 175.19 248.93 176.94 245.22 204.86C241.51 232.78 187.74 211.84 169.19 221.44C150.65 231.04 155.28 265.94 115.42 269.43C75.56 272.92 73.7 247.62 55.16 229.29C36.62 210.97 15.29 226.67 2.30999 198.75H2.29999Z" fill="#F1E8E1"/>
<path d="M145.89 277.46C145.89 277.46 177.19 252.41 142.68 246.63C110.57 241.25 81.66 257.55 61.75 237.87C21.43 198.03 143.87 207.64 175.21 180.15C192.52 164.97 207.98 128.48 117.33 104.68C83.53 95.8002 65.93 80.3202 88.39 59.4902C115.25 34.5802 150.08 50.7302 166.45 67.4302" stroke="#4F3421" stroke-width="5" stroke-miterlimit="10" stroke-linecap="round"/>
<path d="M79.91 195.34L30.28 205.21L35.58 219.31L49.21 237.87L81.94 235.98L94.76 185.35L98.35 155.98L84.73 149.09L80.59 184.27L79.91 195.34Z" fill="#F1E8E0"/>
<path d="M79.91 195.34C79.91 195.34 24.55 197.77 31.19 212.45C37.83 227.12 86.2 210.34 86.2 210.34C86.2 210.34 100.4 158.25 98.36 155.99C96.32 153.73 86.99 149.71 84.74 149.09C82.49 148.47 79.92 195.34 79.92 195.34H79.91Z" stroke="#4F3421" stroke-width="5" stroke-miterlimit="10" stroke-linecap="round"/>
<path d="M64.63 203.69C64.63 203.69 42.1699 206 43.09 207.95C44.01 209.9 53.13 212.89 61.74 210.65C70.36 208.41 74.29 206.73 73.87 204.6C73.45 202.47 64.63 203.68 64.63 203.68V203.69Z" stroke="#4F3421" stroke-width="3" stroke-miterlimit="10" stroke-linecap="round"/>
<path d="M86.1999 210.33L84.5299 218.67C82.8599 227.01 80.1499 236.32 80.1499 236.32C80.1499 236.32 51.0199 242.62 48.4599 235.13C45.8999 227.64 31.1899 212.44 31.1899 212.44" stroke="#4F3421" stroke-width="5" stroke-miterlimit="10" stroke-linecap="round"/>
<path d="M203.84 136.65L153.45 132.05L154.53 147.07L162.34 168.73L194.27 176.2L220.91 131.27L232.68 104.13L221.57 93.6602L207.63 126.22L203.84 136.65Z" fill="#F1E8E0"/>
<path d="M203.84 136.65C203.84 136.65 150.07 123.29 152.27 139.24C154.47 155.19 205.62 152.81 205.62 152.81C205.62 152.81 234.01 106.88 232.68 104.13C231.35 101.38 223.56 94.89 221.57 93.66C219.58 92.43 203.83 136.65 203.83 136.65H203.84Z" stroke="#4F3421" stroke-width="5" stroke-miterlimit="10" stroke-linecap="round"/>
<path d="M186.82 140.33C186.82 140.33 164.63 136.18 164.96 138.31C165.29 140.44 173.19 145.89 182.08 146.19C190.98 146.49 195.22 145.98 195.42 143.82C195.62 141.66 186.82 140.32 186.82 140.32V140.33Z" stroke="#4F3421" stroke-width="3" stroke-miterlimit="10" stroke-linecap="round"/>
<path d="M205.62 152.81L201.66 160.34C197.7 167.87 192.46 176.03 192.46 176.03C192.46 176.03 162.74 173.81 162.41 165.91C162.08 158.01 152.28 139.25 152.28 139.25" stroke="#4F3421" stroke-width="5" stroke-miterlimit="10" stroke-linecap="round"/>
<path d="M103.95 49.42L54.72 61.15L60.55 75.04L74.86 93.07L107.5 89.96L118.41 38.88L120.9 9.40002L107.03 3.02002L104.21 38.33L103.95 49.42Z" fill="#F1E8E0"/>
<path d="M103.95 49.42C103.95 49.42 48.73 53.9301 55.91 68.3401C63.09 82.7601 110.8 64.17 110.8 64.17C110.8 64.17 123.04 11.5801 120.91 9.40009C118.78 7.22009 109.31 3.55008 107.04 3.02008C104.77 2.49008 103.96 49.42 103.96 49.42H103.95Z" stroke="#4F3421" stroke-width="5" stroke-miterlimit="10" stroke-linecap="round"/>
<path d="M88.99 58.3402C88.99 58.3402 66.63 61.5002 67.63 63.4102C68.63 65.3202 77.85 67.9702 86.37 65.4102C94.9 62.8502 98.76 61.0202 98.26 58.9102C97.76 56.8002 88.99 58.3402 88.99 58.3402Z" stroke="#4F3421" stroke-width="3" stroke-miterlimit="10" stroke-linecap="round"/>
<path d="M110.79 64.1699L109.44 72.5699C108.09 80.9699 105.73 90.3699 105.73 90.3699C105.73 90.3699 76.86 97.7599 74.02 90.3699C71.18 82.9799 55.91 68.34 55.91 68.34" stroke="#4F3421" stroke-width="5" stroke-miterlimit="10" stroke-linecap="round"/>
</svg>
